<svg clip-rule="evenodd" fill-rule="evenodd" stroke-linejoin="round" stroke-miterlimit="2" viewBox="0 0 871 871" xmlns="http://www.w3.org/2000/svg"><path d="m774.612 241.071c-.059-6.58-3.997-9.794-7.059-13.611 0 0-150.282-180.945-182.258-217.491-1.641-1.876-1.737-1.897-5.304-5.505-2.372-2.399-5.738-4.464-8.415-4.464-244.225 0-274.008-.004-410.617-.008-36.402 0-65.955 29.582-65.955 66.011v738.819c0 36.433 29.553 66.011 65.955 66.011h547.731c36.398 0 65.955-29.578 65.955-66.011zm-242.451 260.688c89.631 0 162.228-72.659 162.228-162.365 0-15.527-2.23-30.545-6.286-44.854-3.143-10.959-16.628-13.395-24.638-5.378l-77.87 77.935c-3.041 3.045-7.199 4.77-11.457 4.77h-58.199c-8.923 0-16.223-7.307-16.223-16.237v-58.248c0-4.262 1.723-8.423 4.765-11.467l77.87-77.936c8.01-8.017 5.475-21.513-5.374-24.659-14.296-4.059-29.303-6.292-44.816-6.292-89.631 0-162.228 72.659-162.228 162.366 0 19.382 3.448 38.054 9.633 55.305l-184.129 184.285c-12.877 12.888-20.177 30.443-20.177 48.71 0 38.054 30.823 68.903 68.845 68.903 18.251 0 35.792-7.306 48.669-20.194l184.128-184.285c17.237 6.292 35.893 9.641 55.259 9.641zm-275.787 89.301c13.349 0 24.334 10.994 24.334 24.355 0 13.36-10.985 24.354-24.334 24.354-13.35 0-24.335-10.994-24.335-24.354 0-13.361 10.985-24.355 24.335-24.355z"/></svg>