<svg clip-rule="evenodd" fill-rule="evenodd" stroke-linejoin="round" stroke-miterlimit="2" viewBox="0 0 871 871" xmlns="http://www.w3.org/2000/svg"><path d="m773.013 240.3c-.059-6.558-3.988-9.763-7.042-13.567 0 0-149.929-180.366-181.829-216.796-1.638-1.87-1.734-1.891-5.292-5.487-2.367-2.392-5.725-4.45-8.396-4.45-243.65 0-273.362-.004-409.65-.008-36.317 0-65.8 29.487-65.8 65.8v736.458c0 36.317 29.483 65.8 65.8 65.8h546.442c36.312 0 65.8-29.483 65.8-65.8l-.034-561.95zm-483.495 375.026c0-5.515-1.93-10.204-5.791-14.065-3.861-3.86-8.549-5.791-14.064-5.791-5.516 0-10.296 1.931-14.341 5.791-4.045 3.861-6.067 8.55-6.067 14.065 0 5.516 2.022 10.296 6.067 14.34 4.045 4.045 8.825 6.068 14.341 6.068 5.515 0 10.203-2.023 14.064-6.068 3.861-4.044 5.791-8.824 5.791-14.34zm202.972-132.373-214.554 215.106c-3.677 3.677-7.998 6.527-12.962 8.549s-10.203 3.034-15.719 3.034c-5.148 0-10.204-1.012-15.168-3.034s-9.468-4.872-13.513-8.549l-33.093-34.196c-4.045-3.677-7.078-7.998-9.1-12.962-2.023-4.964-3.034-10.02-3.034-15.167 0-5.516 1.011-10.756 3.034-15.72 2.022-4.964 5.055-9.284 9.1-12.961l214.554-214.554c8.09 20.591 20.04 38.792 35.851 54.603 15.811 15.812 34.013 27.762 54.604 35.851zm200.214-136.785c0 5.148-.828 10.755-2.482 16.823-1.655 6.067-3.218 11.49-4.688 16.27-5.148 13.973-12.135 26.843-20.959 38.609-8.825 11.767-19.121 21.786-30.887 30.06-11.767 8.273-24.636 14.8-38.609 19.58-13.973 4.412-28.313 6.619-43.021 6.619-19.488 0-37.874-3.678-55.156-11.032-16.914-7.354-31.806-17.465-44.675-30.335-12.87-12.87-22.982-27.761-30.336-44.676-7.354-17.282-11.031-35.667-11.031-55.155s3.677-37.69 11.031-54.604c7.354-17.282 17.466-32.266 30.336-44.951 12.869-12.686 27.761-22.89 44.675-30.612 17.282-7.354 35.668-11.031 55.156-11.031 11.398 0 23.9 1.747 37.505 5.24s25.188 8.365 34.748 14.616c1.471 1.103 2.666 2.39 3.585 3.861.92 1.471 1.379 3.126 1.379 4.964 0 1.839-.459 3.585-1.379 5.24-.919 1.655-2.114 2.85-3.585 3.585l-92.661 53.501v70.598l61.223 33.645c2.574-1.471 8.273-4.964 17.098-10.479 9.192-5.884 18.845-11.859 28.956-17.926 10.112-6.067 19.58-11.491 28.405-16.271 8.457-4.78 13.421-7.17 14.892-7.17 3.31 0 5.883 1.011 7.722 3.034 1.838 2.022 2.758 4.688 2.758 7.997z"/></svg>