<svg clip-rule="evenodd" fill-rule="evenodd" stroke-linejoin="round" stroke-miterlimit="2" viewBox="0 0 871 871" xmlns="http://www.w3.org/2000/svg"><path d="m773.013 240.3c-.059-6.558-3.988-9.763-7.042-13.567 0 0-149.929-180.366-181.829-216.796-1.638-1.87-1.734-1.891-5.292-5.487-2.367-2.392-5.725-4.45-8.396-4.45-243.65 0-273.362-.004-409.65-.008-36.317 0-65.8 29.487-65.8 65.8v736.458c0 36.317 29.483 65.8 65.8 65.8h546.442c36.312 0 65.8-29.483 65.8-65.8l-.034-561.95zm-339.069 64.276c0-.011 0-.022 0-.034 0-71.026 58.445-129.471 129.471-129.471 12.743 0 25.416 1.881 37.609 5.582 7.777 2.356 13.133 9.575 13.133 17.702 0 4.902-1.949 9.609-5.414 13.076l-81.876 81.85c1.554 11.714 6.807 23.034 15.808 32.035 9.001 9.002 20.321 14.255 32.06 15.784l81.826-81.851c3.467-3.466 8.173-5.415 13.075-5.415 8.127 0 15.346 5.356 17.702 13.134 3.702 12.194 5.584 24.869 5.584 37.613 0 71.026-58.446 129.471-129.472 129.471-3.691 0-7.381-.157-11.058-.473-25.106-2.121-46.117 2.466-56.943 15.635l-176.328 214.183c-15.442 18.66-38.439 29.479-62.659 29.479-44.618 0-81.333-36.715-81.333-81.333 0-24.214 10.813-47.206 29.465-62.648l214.158-176.352c13.145-10.851 17.756-31.838 15.635-56.943-.301-3.667-.449-7.345-.443-11.024zm-194.405 305.183c0-10.146 8.349-18.496 18.496-18.496h.197c10.147 0 18.496 8.35 18.496 18.496v.198c0 10.146-8.349 18.495-18.496 18.495h-.197c-10.147 0-18.496-8.349-18.496-18.495z"/></svg>