<svg clip-rule="evenodd" fill-rule="evenodd" stroke-linejoin="round" stroke-miterlimit="2" viewBox="0 0 871 871" xmlns="http://www.w3.org/2000/svg"><path d="m766.446 227.304c4.046 3.383 6.579 8.4 6.6 14.008 0 .505-.279.921-.313 1.409v551.733c0 40.558-32.987 73.596-73.579 73.596h-530.537c-40.592 0-73.613-33.038-73.613-73.596v-720.675c0-40.592 33.042-73.596 73.613-73.596h395.537c6.321-.866 12.796 1.338 16.996 6.338zm-331.029-27.6c-99.436 0-180.029 80.593-180.029 180.028 0 100.016 80.013 140.022 120.019 220.035h120.019c40.006-80.013 120.019-120.019 120.019-220.035 0-99.435-80.593-180.028-180.028-180.028zm0 60.009v100.016h80.012l-80.012 140.022v-100.016h-80.013zm-60.01 380.06v20.003c0 22.104 17.903 40.006 40.007 40.006 0 10.974 9.029 20.004 20.003 20.004 10.973 0 20.003-9.03 20.003-20.004 22.103 0 40.006-17.902 40.006-40.006v-20.003z"/></svg>