<svg clip-rule="evenodd" fill-rule="evenodd" stroke-linejoin="round" stroke-miterlimit="2" viewBox="0 0 800 629" xmlns="http://www.w3.org/2000/svg"><g fill="#30343a" fill-rule="nonzero"><path d="m19.181 42.218 12 .4v112l-12 .8v6.8c8.6 0 26.8-.8 35.599-.8 11.2 0 30.6.8 38.8.8v-6.8l-16-.8v-44h15.8c30.4 0 51.8-13.2 51.8-37.6 0-29.6-23-37.6-53.6-37.6-10.4 0-29.6.4-37.6.4-7.999 0-25.799-.4-34.799-.4zm58.399 61.6v-61.6h3.6c15.2 0 16 11.2 16 29 0 17.6-1.6 32.6-15.2 32.6z"/><path d="m213.58 107.218v-64l11.8-.8v-6.8c-8.4 0-29.8.8-36 .8s-27.8-.8-36.2-.8v6.8l11.6.8v72.6c0 38.2 23 48.6 52.8 48.6 32 0 51.2-14.6 51.2-55.4v-33.6c0-26.2 16-33 17.8-33v-6.8c-10 0-15.8.8-23.8.8s-14.8-.8-24.8-.8v6.8c7.4 0 22.8 6.8 22.8 33v33.2c0 33-13.2 38.4-24.8 38.4-14.4 0-22.4-10.4-22.4-39.8z"/><path d="m353.579 36.218c-20.2 0-40-.8-58.8-.8l-2.2 54h6.8l1.6-4.6c1-2.8 14.4-41.8 28-41.8h1v111.6l-15.8.8v6.8c10.4 0 28.8-.8 39.4-.8s28.6.8 39 .8v-6.8l-15.8-.8v-111.6h1c13.6 0 27 38.8 28 41.8l1.6 4.6h6.8l-2.2-54c-18.8 0-38.2.8-58.4.8z"/><path d="m51.38 254.218v44.399l-11.599.8v6.8c8.4 0 28.599-.8 34.799-.8s26.4.8 34.8.8v-6.8l-11.6-.8v-32.199c0-17 8.8-36.8 13.2-46.8 12-27.8 26-33.4 33-33.4v-6.8c-10 0-15.4.8-23.2.8-10 0-19-.8-29-.8v6.8c9.6 0 20.8 10 11.4 31.6-2.6 6-6.4 15-9.2 24.2h-.4l-24.4-54.8 11.4-1v-6.8c-13.2 0-27.2.8-36.999.8-10.2 0-23.4-.8-34.4-.8v6.8l10.2 1z"/><path d="m209.58 310.017c35.6 0 68.6-18.4 68.6-67.999 0-49.4-33.4-65.6-68.6-65.6-34.8 0-68.599 18.2-68.599 67.6 0 49.599 33.399 65.999 68.599 65.999zm0-7.2c-15.8 0-17.2-17.6-17.2-59.799 0-40.2 1.4-59.4 17.2-59.4 16 0 17.2 19.2 17.2 59.4s-1.2 59.799-17.2 59.799z"/><path d="m348.579 251.218v-64l11.8-.8v-6.8c-8.4 0-29.8.8-36 .8s-27.8-.8-36.2-.8v6.8l11.6.8v72.6c0 38.199 23 48.599 52.8 48.599 32 0 51.2-14.6 51.2-55.399v-33.6c0-26.2 16-33 17.8-33v-6.8c-10 0-15.8.8-23.8.8s-14.8-.8-24.8-.8v6.8c7.4 0 22.8 6.8 22.8 33v33.2c0 32.999-13.2 38.399-24.8 38.399-14.4 0-22.4-10.399-22.4-39.799z"/><path d="m463.379 179.818c-7.6 0-26-.4-34.8-.4v6.8l12 .4v111.999l-12 .8v6.8c8.4 0 27.2-.8 35.6-.8 12.8 0 28.8.8 36.8.8v-6.8l-14-.8v-53.799h.6c16.8 0 17.4 12.4 17.4 32 0 21.199 6.8 31.399 41.4 31.399 13.2 0 23.4-1.8 23.4-1.8v-6.8s-1.8.2-3 .2c-7 0-10-2.6-10-17.799 0-33.4-22.6-37-43.8-39.8v-1c25-3.8 41.4-12.6 41.4-33.2 0-22-18.4-28.6-43.4-28.6-18.2 0-39.8.4-47.6.4zm23.6 58.2v-51.8h3c15.6 0 16.6 9.6 16.6 25 0 17.4-3.2 26.8-19.2 26.8z"/><path d="m19.581 330.217 11.6.8v111.6l-12 .8v6.8c9.2 0 31-.8 56.399-.8 20.8 0 39 .8 55.8.8l1.2-57.4h-7.2l-.6 3c-1.2 6.4-12.6 42.2-38.2 45.6l-9 1.2v-111.6l11.6-.8v-6.8c-8.4 0-28.6.8-34.8.8-6.199 0-26.399-.8-34.799-.8v6.8z"/><path d="m216.18 450.217v-6.8l-11.6-.8v-111.6l11.6-.8v-6.8c-8.4 0-28.6.8-34.8.8s-26.4-.8-34.8-.8v6.8l11.6.8v111.6l-11.6.8v6.8c8.4 0 28.6-.8 34.8-.8s26.4.8 34.8.8z"/><path d="m305.179 329.217c26.8 0 36.4 35.8 39.4 49.8h8c0-9.2-.4-15.8-.4-28.4 0-8.8.4-19 .4-28h-7.2s-3.6 3-10.2 3c-6.8 0-15.2-5-32.4-5-34.8 0-72.6 15.6-72.6 70.8 0 38.8 18.8 62.8 68 62.8 18.6 0 33.8-5.6 41.4-9.2l9.6 7 6-2.2v-48.6l7.2-.8v-6.8c-6 0-14.4.8-28.6.8-13.8 0-24.8-.8-33.2-.8v6.8c9 0 11.6 2.2 11.6 16.8v27.6c-3 .4-6.2.6-9.2.6-15.2 0-22.4-19-22.4-56.6 0-25 3.6-59.6 24.6-59.6z"/><path d="m444.979 450.217v-6.8l-10.6-.8v-54.4h28v54.4l-10.6.8v6.8c8.4 0 27.8-.8 34-.8s26.2.8 34.6.8v-6.8l-11.6-.8v-111.6l11.6-.8v-6.8c-8.4 0-28.4.8-34.6.8s-25.6-.8-34-.8v6.8l10.6.8v49.8h-28v-49.8l10.6-.8v-6.8c-8.4 0-27.6.8-33.8.8s-26.4-.8-34.8-.8v6.8l11.6.8v111.6l-11.6.8v6.8c8.4 0 28.6-.8 34.8-.8s25.4.8 33.8.8z"/><path d="m592.378 324.217c-20.2 0-40-.8-58.8-.8l-2.2 54h6.8l1.6-4.6c1-2.8 14.4-41.8 28-41.8h1v111.6l-15.8.8v6.8c10.4 0 28.8-.8 39.4-.8s28.6.8 39 .8v-6.8l-15.8-.8v-111.6h1c13.6 0 27 38.8 28 41.8l1.6 4.6h6.8l-2.2-54c-18.8 0-38.2.8-58.4.8z"/><path d="m675.978 401.017h-7.2c0 8.2.6 16.6.6 25.8 0 9.6-.6 16-.6 25.6h6.6s2-4.4 7.6-4.4c5 0 16 6.2 39.8 6.2 29.8 0 56-11.8 56-44.6 0-60.2-77.8-40.6-77.8-69.6 0-5.4 4.2-12.8 17.6-12.8 20 0 38.2 29.8 41.2 35.8h6.6c0-6.4-.4-14.4-.4-23.8 0-6.4.4-11.8.4-18.4h-6.6s-1 4-5.8 4c-4.6 0-15.8-4.4-33.8-4.4-23.6 0-52.2 9.8-52.2 42.6 0 57.6 75.8 37 75.8 68.2 0 6.2-2.6 15.4-20.4 15.4-24.8 0-44.6-39.4-47.4-45.6z"/><path d="m87.78 598.016c35.6 0 68.6-18.4 68.6-68 0-49.399-33.4-65.599-68.6-65.599-34.8 0-68.599 18.2-68.599 67.599 0 49.6 33.399 66 68.599 66zm0-7.2c-15.8 0-17.2-17.6-17.2-59.8 0-40.199 1.4-59.399 17.2-59.399 16 0 17.2 19.2 17.2 59.399 0 40.2-1.2 59.8-17.2 59.8z"/><path d="m278.18 554.416-50.4-86.199-60.4-.8v6.4c7.4 0 16.8 2.8 16.8 21v61.999c0 25.6-16.4 30.6-17.8 30.6v6.8c10 0 15.8-.8 23.8-.8s15.8.8 25.8.8v-6.8c-10.4 0-23.8-5-23.8-30.6v-50.799h.2l49 87.799h45v-86.599c0-26.4 16.6-33 17.8-33v-6.8c-10 0-15.8.8-23.8.8s-15.8-.8-25.8-.8v6.8c9.8 0 23.8 6.6 23.8 33v47.199z"/></g></svg>