<svg clip-rule="evenodd" fill-rule="evenodd" stroke-linejoin="round" stroke-miterlimit="2" viewBox="0 0 492 456" xmlns="http://www.w3.org/2000/svg" xmlns:xlink="http://www.w3.org/1999/xlink"><clipPath id="a"><path clip-rule="evenodd" d="m0 0h491.763v455.1h-491.763z"/></clipPath><path d="m0 0h491.763v455.1h-491.763z" fill="none"/><g clip-path="url(#a)" fill="#30343a" fill-rule="nonzero"><path d="m298.003 219.407c-1.547-.475-3.147-.706-4.882-.706-2.6 0-5.112.506-7.775 1.041l-.937.187c.378 1.191 1.028 1.294 1.712 1.294.16 0 .322-.01.488-.016l.697-.028c2.687-.109 5.465-.219 8.194-.144 1.284.041 2.053-.168 2.503-1.628"/><path d="m279.054 225.853c-.094 0-.19.009-.275.015-4.603.316-8.95 1.997-13.331 5.128-.003.057.006.188.016.31.012.14.028.315.037.525.122-.003.241-.007.359-.007.135 0 .269.004.404.004.559.012 1.115.031 1.528-.179 3.703-1.84 7.381-3.5 11.662-3.509.341 0 1.05-.744 1.06-1.106.009-.238-.488-.603-.85-.869-.122-.094-.244-.181-.35-.266-.016-.012-.075-.046-.26-.046"/><path d="m292.131 214.772c.909-.019 1.809-.038 2.703-.038 2.2 0 3.872.116 5.419.375.387.059.859-.144 1.472-.412.244-.113.512-.232.803-.344-2.353-1.635-7.078-2.241-13.981-1.781l-.307.018c-1.443.088-2.937.178-4.081 1.913 1.525.209 3.144.306 5.203.306.932 0 1.853-.019 2.769-.037"/><path d="m309.059 211.876c.019.015.097.025.144.031.037.003.075.009.109.016.569.106 1.141.209 1.71.306 3.318.594 6.75 1.2 9.709 3.072.234.15.409.212.484.212v.178l.007-.178c.49-.231.975-.515 1.45-.787.122-.069.243-.141.362-.21-.078-.131-.147-.275-.219-.415-.19-.385-.387-.782-.65-.869-3.215-1.069-6.396-2.056-9.765-3.094-.981-.3-1.969-.606-2.96-.915l-1.787 1.312.253.244c.381.372.763.74 1.153 1.097"/><path d="m164.063 220.838-.335.388.007-.509c.031-2.607-1.422-3.382-2.957-4.204l-.656-.35.55-.084c.597-.094 1.169-.141 1.697-.141 1.603 0 2.691.444 3.062 1.254.41.893-.053 2.121-1.368 3.646m-6.8 2.288c-.522.547-1.247.862-1.985.862-.69 0-1.359-.275-1.931-.793-.669-.8-.847-1.707-.509-2.513.362-.856 1.231-1.44 2.272-1.525.096-.006.187-.012.278-.012 1.447 0 2.493.94 2.556 2.278.028.609-.213 1.212-.681 1.703m14.381-7.497c-3.116-.834-5.025-1.125-7.894-1.428-1.015-.069-1.778-.103-2.465-.103-2.075 0-3.585.297-5.388 1.069-2.419 1.028-4.378 2.796-5.375 4.859-1.819 3.766-2.562 8.925-1.372 9.516.269.134.525.203.76.203.978 0 1.54-1.222 1.837-2.25l.044-.144.15.009c.528.05 1.044.103 1.55.163 1.075.115 2.087.228 3.106.228 2.153 0 3.856-.538 5.519-1.741 2.997-2.162 4.7-4.687 5.528-8.181l.037-.153.157.009c.359.019.75.053 1.15.091.643.056 1.312.119 1.918.119 1.082 0 1.719-.191 2.013-.597.141-.431.147-.753.025-.985-.194-.356-.725-.525-1.3-.684"/><path d="m317.909 221.394h.003c.322 0 .694-.041 1.119-.087.259-.032.544-.063.859-.091-2.187-1.684-9.128-4.197-11.24-4.197-.528.003-1.069.172-1.694.369-.212.065-.441.14-.687.209 1.925 1.335 6.568 2.913 11.131 3.753.153.032.322.044.509.044"/><path d="m290.19 227.433c.156.135.278.247.378.338.128.119.263.241.307.247 1.575-.01 3.128-.056 4.809-.519 1.925-.525 4.009-.622 6.028-.712.838-.041 1.7-.075 2.538-.147.253-.022.518-.019.787-.013 1.028.019 2.134.069 3.031-1.619-1.697-.134-3.665-.265-5.64-.265-4.9 0-8.691.828-12.238 2.69"/><path d="m351.824 380.412c-2.385.441-4.775.194-7.888-.834-.734-.241-1.325-.354-1.875-.354-.666 0-1.237.172-1.744.516 1.728 1.534 5.635 2.675 9.241 2.675 1.766 0 3.212-.287 4.094-.809-.144-.982-.772-1.385-1.828-1.194"/><path d="m265.947 224.287c.416 0 .847-.147 1.325-.325 2.906-1.09 5.881-2.165 8.753-3.206l2.072-.747c.694-.253 1.066-.528 1.197-.887.128-.347.044-.804-.266-1.394-4.593 1.1-9.887 2.637-14.575 5.687.613.778 1.141.872 1.494.872"/><path d="m206.761 263.749c.15.116.3.232.447.35 1.316-1.325.572-2.246-.288-3.315l-.062-.078c-.503-.625-1.003-1.257-1.503-1.888-1.278-1.615-2.603-3.287-4-4.85-2.266-2.531-4.603-4.875-8.253-5.781-.372.534-.519.981-.444 1.356.106.516.647.903 1.212 1.244.194.112.385.222.579.337 1.05.613 2.137 1.244 2.925 2.107 1.806 1.975 3.562 4.043 5.262 6.04.981 1.16 1.969 2.316 2.963 3.463.328.372.731.684 1.162 1.015"/><path d="m225.7 274.934-.178-.053c-4.418-1.356-9.422-2.891-12.587-7.075-.241-.322-.816-.484-1.425-.653-.25-.072-.51-.144-.763-.231-.456 2.04-.05 3.318 1.344 4.243.431.288.863.585 1.294.878 1.3.897 2.64 1.825 4.081 2.507 2.966 1.406 6.591 2.85 11.003 2.918-.35-1.793-1.475-2.137-2.769-2.534"/><path d="m310.665 385.182c-.497-.066-1.016-.091-1.516-.119-.728-.04-1.472-.075-2.188-.225-2.425-.503-4.656-.122-6.618 1.128-1.338.85-2.7 1.232-4.085 1.163l-.472-.031c-2.659-.157-5.412-.319-8.059-.775-3.566-.616-7.134-1.466-10.587-2.285l-.741-.178c-1.091-.259-1.584-.062-1.903.816.856 1.031 2.137 1.222 3.494 1.425.29.043.578.084.859.134 1.772.319 3.631.691 5.537 1.1.813.178 1.619.375 2.432.569.893.215 1.818.44 2.737.631 1.003.213 2.175.438 3.331.488.263.012.525.025.791.04.656.035 1.334.072 1.994.072h.003c1.278 0 2.925-.119 4.281-1.034 1.538-1.035 3.21-1.541 5.106-1.541 1.1 0 2.272.163 3.688.509.797.191 1.459.282 2.094.282.765 0 1.506-.135 2.253-.413-.222-1.359-1.278-1.609-2.431-1.756"/><path d="m290.596 273.192c-1.041-.238-2.087-.46-3.137-.685-2.829-.597-5.76-1.215-8.479-2.219-.812-.296-1.378-.421-1.9-.421-.793 0-1.525.306-2.481 1.046 4.516 2.344 9.235 3.216 13.797 4.057l.503.093c.241.044.488.094.735.147.853.169 1.731.35 2.581.35 1.028 0 1.85-.259 2.584-.815.028-.238.056-.469.081-.707-.443-.087-.89-.168-1.34-.253-.966-.178-1.969-.365-2.944-.593"/><path d="m306.749 270.247c.225-.035.456-.241.841-.588.171-.153.371-.337.615-.537-1.656-.172-3.275-.338-4.862-.5-5.085-.522-9.882-1.013-14.669-1.45-.625-.057-1.3.103-1.953.256-.285.065-.578.137-.869.187l-.331.785c.147.053.294.109.44.165.447.175.872.338 1.316.391 1.378.169 2.778.366 4.131.562 3.547.504 7.21 1.025 10.847 1.025 1.588 0 3.063-.1 4.494-.296"/><path d="m315.901 273.457c-.944-.053-1.887-.106-2.831-.166-3.456-.203-7.025-.415-10.541-.506h-.003c-.537 0-1.069.319-1.631.65-.225.131-.453.269-.685.384l.207.644c.215.097.437.203.647.313.512.259.996.503 1.487.525 3.925.162 8.069.262 13.028.309l.038.188c.003 0 .003-.004.003-.004v-.184c.628 0 1.081-.153 1.35-.469.269-.315.359-.793.278-1.425-.134-.028-.266-.059-.391-.087-.35-.085-.65-.15-.956-.172"/><path d="m267.449 236.378c-5.822.406-9.447 2.635-10.779 6.619.335.403.685.6 1.063.6.503 0 1.034-.341 1.55-.672l.181-.116c.744-.471 1.475-.946 2.21-1.425 1.415-.921 2.881-1.871 4.365-2.743 1.128-.663 1.797-1.157 1.41-2.263"/><path d="m279.18 265.413c.218-1.085-.397-1.3-1.479-1.582-.171-.047-.35-.093-.521-.147-.944-.29-1.9-.615-2.822-.931-1.297-.44-2.638-.897-3.978-1.265-.538-.15-1.129-.172-1.682-.172l-.853.006c-.14 0-.281 0-.419-.006-.062.209-.125.412-.187.618.284.163.566.332.847.497.719.428 1.462.866 2.228 1.228.347.169.753.275 1.147.382.553.14 1.128.293 1.575.615 1.169.847 2.353 1.263 3.615 1.263.807 0 1.638-.166 2.529-.506"/><path d="m198.802 266.038c.06-.328.128-.622.188-.89.125-.529.225-.944.09-1.147-1.628-2.488-3.362-4.975-5.203-7.616-.55-.791-1.118-1.609-1.706-2.45-.147.363-.297.684-.422.953-.194.416-.415.894-.344.991.813 1.094 1.466 2.256 2.154 3.484 1.318 2.353 2.681 4.788 5.243 6.675"/><path d="m198.302 274.314c-1.135-1.793-2.307-3.65-3.563-5.403-.2-.281-.722-.425-1.222-.562-.178-.053-.356-.1-.528-.156-.044.171-.103.346-.159.521-.16.463-.322.95-.169 1.185 1.334 2.062 2.747 4.031 4.241 6.115.462.644.931 1.294 1.397 1.95.718-.34 1.118-.69 1.234-1.068.087-.303.003-.641-.288-1.091-.315-.5-.628-.994-.943-1.491"/><path d="m213.67 277.861c-3.278-1.732-6.646-3.747-9.125-6.763-.284-.34-.756-.584-1.256-.837-.172-.088-.353-.178-.528-.275-.253 2.093-.166 2.678 1.825 4.437 3.284 2.9 6.35 5.369 10.591 6.185.597-1.541-.191-2.054-1.507-2.747"/><path d="m189.172 259.462c-.597-1.119-1.306-2.216-1.993-3.275-.36-.563-.725-1.119-1.072-1.688-.26-.422-.7-.925-1.319-.925-.263 0-.544.091-.831.272-.357.219-.566.484-.625.784-.069.372.081.816.443 1.313.572.778 1.135 1.559 1.697 2.344.975 1.356 1.982 2.756 3.013 4.103.162.215.515.347.859.475.138.053.278.106.406.162.188-.109.372-.222.56-.331-.1-.309-.194-.625-.288-.941-.231-.778-.468-1.581-.85-2.293"/><path d="m338.396 224.809c-2.838-1.291-5.728-2.584-8.528-3.837l-1.85-.825c-.157-.075-.322-.157-.491-.244-.434-.228-.891-.463-1.281-.463-.335 0-.591.178-.806.557-.157.268-.207.496-.147.69.112.375.622.631 1.115.878.21.107.428.213.61.332.228.146.49.243.768.346.175.063.354.132.519.207.775.353 1.547.712 2.319 1.072 1.662.768 3.381 1.568 5.094 2.309l.175.081c.609.266 1.234.544 1.875.544.618 0 1.193-.266 1.747-.809-.144-.116-.272-.222-.391-.319-.272-.228-.491-.41-.728-.519"/><path d="m315.923 228.114c-.016.247.334.716.593.8l.244.072c1.922.591 3.913 1.197 5.913 1.566.5.09 1.112-.107 1.693-.297.241-.078.485-.16.732-.222.022-.15.047-.3.072-.453-2.6-1.416-5.5-2.153-8.616-2.182-.175 0-.622.469-.631.716"/><path d="m36.908 33.583c.066 0 .128-.01.178-.025.381-.11.769-.191 1.147-.275.278-.056.556-.119.831-.188.172-.043.344-.059.513-.072.337-.028.625-.05.865-.284.116-.106.275-.119.416-.131.044 0 .084-.003.122-.006l.24-.041c.585-.091 1.141-.181 1.625-.5.254-.169.513-.328.772-.491.219-.134.438-.268.653-.409.357-.231.56-.5.594-.778.031-.278-.1-.578-.381-.872-.172-.181-.406-.347-.691-.494-.462-.228-.931-.447-1.4-.665-.278-.132-.556-.26-.837-.394-.363-.172-.728-.356-1.081-.547-.15-.078-.297-.159-.441-.244-.209-.122-.422-.24-.641-.344-.55-.256-.965-.696-1.268-1.337-.488-1.034.037-1.841.612-2.497l.125-.144c.363-.409.738-.834 1.278-1.153.363-.209.688-.469 1.031-.744.547-.434 1.113-.881 1.822-1.118.266-.088.51-.222.769-.366.534-.287 1.091-.591 1.806-.484.182.025.513-.107.619-.25.053-.075.019-.388-.091-.603-.09-.185-.281-.229-.509-.122-.159.068-.328.115-.487.156-.119.031-.235.062-.344.106l-.485.178c-.546.203-1.112.41-1.643.663-.566.269-1.091.619-1.528.931-.229.163-.466.316-.704.466-.562.365-1.143.74-1.615 1.243-.691.738-1.475 1.575-1.85 2.672-.222.657-.11 1.344.356 2.163.216.378.656.669 1.078.95.116.075.231.153.341.231.137.091.269.191.4.288.412.312.803.609 1.319.746.537.147 1.04.425 1.521.7.129.072.254.141.379.21.19.106.409.34.453.59.043.219-.141.563-.357.657l-.228.1c-.759.334-1.547.681-2.356.931-.394.122-.816.153-1.225.184-.175.013-.35.025-.525.047l-.172.016-.006-.038c-.069 0-.134-.003-.2-.015l-.094-.013c-.365-.053-.55-.078-.556-.272-.013-.225-.013-.572.106-.868.069-.169.163-.319.26-.463.087-.134.171-.262.221-.397.029-.072.007-.197-.012-.319-.003-.012-.003-.021-.006-.031-.01.003-.022.003-.032.003-.115.007-.25.016-.3.057-.271.231-.528.496-.778.746-.147.157-.297.307-.45.454-.381.371-.559.856-.556 1.525 0 .421.797.981 1.397.981"/><path d="m45.049 22.41c-.463.288-.879.688-1.279 1.075l-.393.375c-.091.082-.135.166-.135.257 0 .162.141.375.41.615.209.188.325.172.512-.09l.069-.094c.184-.26.372-.528.637-.703.063-.044.132-.072.197-.103.169-.079.185-.085.141-.241-.072-.272.391-.541.406-.553.578-.338 1.156-.653 1.713-.941.031-.019.287-.144.484-.144.088 0 .159.029.209.079.172.159.235.459.222.662-.015.25-.056.491-.097.728-.028.153-.053.306-.071.46-.019.137-.007.278.009.425.022.212.044.453-.028.721-.166.629-.191 1.322-.216 1.991l-.009.294c-.013.315.05.647.112.969l.032.165c.059.322.134.635.212.953l.075.307c.034.15.113.206.291.206.081 0 .162-.01.228-.022.1-.013.206-.097.306-.234.197-.282.325-.732.278-.988-.137-.722-.187-1.466-.225-2.1-.012-.187.028-.359.069-.531.025-.122.053-.235.059-.347.019-.453.032-.906.047-1.356.022-.65.041-1.294.078-1.941.028-.441.163-.875.278-1.206.072-.216.291-.435.507-.506.912-.31 1.715-.557 2.462-.76.381-.103.769-.194 1.156-.281.45-.103.916-.209 1.366-.338.241-.071.5-.256.538-.384.025-.078-.107-.356-.307-.531-.043-.041-.203-.047-.318-.05-.082 0-.163-.003-.241-.013-.084.016-.172.032-.263.044-.187.028-.384.056-.562.113-.294.084-.584.184-.875.284-.456.153-.925.312-1.406.425-1 .241-2.16.581-3.178 1.306l-.179.131c-.262.197-.534.394-.846.485-.697.197-1.3.603-1.882.994-.197.134-.393.268-.593.393"/><path d="m57.057 22.114c.219-.378.444-.766.616-1.169l.044-.103c.109-.256.222-.519.359-.769.147-.265.331-.306.431-.306.11 0 .272.047.422.269.247.359.488.728.728 1.097.188.281.372.565.56.847.022.031.059.062.097.097.05.046.106.096.153.159.087.125.165.259.262.425l.206.35-.118.103c-.063.053-.119.106-.175.166-.128.125-.25.243-.413.312-.306.119-.625.219-.928.313-.234.075-.469.147-.7.231-.253.091-.503.191-.756.287-.319.129-.641.254-.966.363-.056.022-.122.031-.194.031-.146 0-.356-.047-.468-.175-.103-.119-.119-.334-.038-.634.191-.691.541-1.303.878-1.894m-1.868 1.431c-.15.332-.297.666-.444.997-.191.431-.378.866-.575 1.291l-.169.369c-.231.521-.472 1.056-.778 1.553-.191.312-.172.397-.003.547.2.187.362.193.59.034.429-.297.644-.716.9-1.281.175-.375.372-.738.585-1.119.094-.178.19-.359.29-.547l.107-.2.178.141c.094.078.184.147.269.212.171.131.325.244.456.385.165.168.347.159.512-.004.341-.346.76-.49 1.163-.634.181-.066.359-.125.531-.209.228-.11.469-.188.706-.266.26-.084.503-.162.728-.281.929-.475 1.679-.363 2.425.362.294.285.641.547 1.035.788.269.156.797-.053 1.003-.391.144-.247 0-.6-.347-.85-.35-.25-.525-.522-.522-.806.003-.291.2-.569.581-.819.982-.653 1.954-1.319 2.929-1.981l.443-.303c.575-.397.916-.222 1.028.4.029.156.007.309-.015.453-.013.087-.025.175-.022.266.003.112.022.225.044.337.022.141.043.284.047.434.003.35-.007.697-.013 1.05-.003.207-.009.41-.009.616-.003.141.093.334.231.475.087.088.172.131.212.131.375-.068.844-.587.857-.947.012-.415.018-.834.028-1.253.012-.618.025-1.256.059-1.887l.01-.175c.034-.653.071-1.328.346-2.003.025-.063.06-.135.088-.203.187-.416.378-.85.078-1.272-.084-.113-.025-.244.013-.335.221-.618.696-.94 1.115-1.218.622-.416 1.313-.719 2.244-.985.825-.234 1.619-.303 2.469-.197.197.022.475.294.462.507-.019.306-.069.65-.259.865-.294.338-.663.647-1.069.9-.362.222-.737.428-1.1.619-.319.175-.641.35-.953.534-.516.31-.9.594-.819 1.197.022.175.041.35.06.528.031.344.062.669.143.988.069.259.178.509.291.772.103.234.209.478.287.731.16.537.513.944.885 1.372.125.144.25.287.369.437.468.6.99 1.21 1.759 1.428.291.088.597.154.894.216.359.081.734.159 1.093.278.188.06.372.091.572.091.435 0 .847-.141 1.282-.288.187-.065.368-.125.553-.178.203-.053.4-.165.603-.281.106-.059.215-.119.328-.172.094-.047.191-.091.291-.131.203-.091.393-.172.556-.291.028-.025.072-.175.062-.365 0-.047-.043-.138-.075-.179-.315-.037-.659-.056-.903.01-.259.062-.509.162-.772.269-.215.084-.431.171-.65.237-1.318.397-2.612.091-3.781-.881-.491-.41-.878-.935-1.256-1.447-.128-.175-.256-.347-.388-.516-.143-.187-.262-.428-.362-.74-.063-.194-.11-.388-.16-.585-.062-.259-.121-.506-.212-.737-.109-.285-.103-.566.016-.785.112-.215.318-.353.59-.415.103-.025.206-.05.288-.088 1.003-.522 1.915-1.237 2.79-2.19.325-.347.482-.685.522-1.091.013-.128.047-.266.1-.406.169-.441-.065-.944-.534-1.144-.463-.2-.847-.316-1.316-.234-.206.034-.422-.01-.619-.057-.171-.037-.325-.071-.471-.053-.547.085-1.369.228-2.138.5-1.334.475-2.569 1.235-3.659 2.257-.347.331-.6.656-.757.968-.206.425-.365.882-.518 1.328l-.16.457c-.006.018-.006.065-.006.106.003.056.003.119-.006.187-.028.135-.056.3-.178.394l-.3.244c-.416.341-.844.694-1.3.987-.278.185-.578.322-.872.457-.216.1-.431.2-.641.318-.212.122-.419.26-.625.397-.278.191-.562.378-.869.532-.409.209-.856.287-1.165.203-.363-.1-.641-.544-.778-.797-.697-1.325-1.56-2.553-2.635-3.753-.14-.163-.353-.25-.59-.25-.244 0-.482.093-.653.262-.179.172-.254.381-.335.619-.031.087-.062.175-.1.269-.319.756-.659 1.503-1 2.25l-.244.54c-.153.341-.309.675-.465 1.013-.169.369-.338.74-.506 1.112"/><path d="m114.757 81.798c-.188-.025-.382-.035-.572-.044-.281-.016-.569-.028-.85-.088-.894-.187-1.716-.047-2.444.416-.484.306-.981.466-1.478.466-.053 0-.1-.004-.15-.007l-.219-.012c-1.006-.06-2.047-.122-3.053-.294-1.366-.237-2.737-.562-4.059-.878l-.269-.063c-.3-.071-.45-.09-.569.175.3.316.744.385 1.216.454.112.018.225.034.334.053.675.122 1.369.259 2.116.418.312.069.622.144.928.219.347.081.697.166 1.047.241.4.081.825.165 1.25.181l.312.016c.25.012.5.028.75.028.472 0 1.078-.044 1.572-.372.606-.413 1.266-.609 2.01-.609.431 0 .89.062 1.437.196.606.147 1.031.141 1.5-.015-.094-.322-.356-.419-.809-.481"/><path d="m80.015 16.124c.122.156.25.315.388.387.025.013.044.019.062.019.054 0 .132-.103.2-.194.025-.034.054-.068.079-.1.134-.165.346-.306.628-.434.318-.134.643-.263.968-.391.244-.097.485-.19.729-.287.087-.041.171-.091.256-.141.137-.084.278-.169.45-.212.744-.185 1.509-.341 2.247-.494.147-.028.259-.041.353-.041.053 0 .219 0 .315.116.141.162.147.475.082.684l-.038.113c-.109.359-.215.694-.125 1.056.047.169.044.378-.009.634-.041.197-.094.391-.144.585-.094.337-.178.659-.2.981-.094 1.422-.134 2.872-.178 4.278l-.006.222c-.003.1.081.256.212.388.125.128.256.196.319.196v.185l.003-.185c.316-.015.872-.453.916-.715.112-.663.222-1.372.253-2.075.012-.203-.022-.416-.06-.641-.037-.228-.081-.469-.068-.706.012-.338.065-.669.115-.988.044-.271.088-.556.11-.831.022-.306.022-.622.022-.928 0-.412 0-.834.053-1.25l.031-.297c.1-.89.15-1.34 1.322-1.703.203-.059.412-.103.615-.141.51-.1.991-.193 1.335-.596.075-.091.2-.091.244-.091h.118c.588-.141 1.169-.278 1.75-.428.247-.063.491-.128.735-.2.45-.125.915-.256 1.387-.347.569-.106 1.147-.181 1.706-.25.288-.038.579-.072.863-.116.031-.031.062-.056.106-.072l1.441-.628c.165-.072.284-.175.312-.265.01-.028.016-.069-.028-.135-.181-.293-.469-.543-.731-.64-.113-.032-.341.034-.544.106-.087.031-.175.062-.259.084-.363.1-.722.2-1.085.303-.556.16-1.115.319-1.678.463-.403.103-.822.181-1.222.256-.203.038-.406.072-.609.113-.541.112-1.078.29-1.6.468-.459.15-.934.307-1.416.425-.893.21-1.781.507-2.64.8-.363.122-.728.244-1.097.36l-.803.256c-.86.269-1.716.541-2.569.831-1.594.538-2.747 1.157-3.722 2.003v.013c.003.025.01.069.016.084z"/><path d="m131.053 80.259c-.065-.265-.247-.296-.387-.296-.05 0-.1.003-.16.015-.931.172-1.862.078-3.068-.322-.5-.165-.847-.175-1.141-.031.688.519 2.05.891 3.322.891.606 0 1.109-.091 1.434-.257"/><path d="m21.048 44.316c.434-4.879.641-9.854.837-14.663l.007-.194.068-4.19.072-.053c2.685-2.007 5.644-3.735 8.791-5.138 6.353-2.822 13.303-5.35 21.875-7.947 4.747-1.437 8.459-2.35 12.037-2.953 2.56-.434 5.188-.75 7.729-1.062 1.465-.179 2.981-.36 4.465-.566 1.41-.194 2.841-.416 4.225-.631 1.61-.25 3.275-.507 4.922-.722 2.509-.328 5.053-.556 7.203-.741 3.169-.253 6.275-.497 9.391-.665l1.275-.072c2.506-.135 5.094-.272 7.6-.625l.212-.028.038 4.206c.175 6.787.365 12.9.928 18.981l.016.169-.394.075c-2.185.144-4.397.156-6.535.162-1.359.007-2.762.013-4.137.053-4.763.138-10.391.322-15.991.597-1.203.06-2.412.232-3.584.397-.847.116-1.728.238-2.594.316-3.675.34-7.578.672-12.29 1.04-5.379.425-10.641 1.71-15.732 2.957l-1.093.265c-2.544.622-5.091 1.4-7.554 2.153-.796.241-1.593.485-2.39.725-5.475 1.635-11.256 3.569-16.41 6.619-.821.481-1.678 1.025-2.7 1.706l-.321.216zm98.794 33.396.031.066c.056.247.116.497.172.747l.165.691-.3-.079c-.15-.04-.284-.078-.409-.121-.434-.147-.872-.297-1.306-.447-.438-.153-.875-.307-1.316-.457-.169-.056-.328-.112-.475-.121-.075-.007-.153-.016-.234-.022-.1-.016-.203-.032-.3-.032-.203 0-.263.066-.297.188-.025.081-.025.134-.003.169.059.09.3.125.462.15.063.009.122.018.175.031 1.378.281 2.632.828 3.847 1.366l.338.146.2.847c.028.113.172.232.312.347.025.019.05.044.075.063.025-.032.053-.063.078-.094.1-.122.194-.234.26-.35l.156-.284.194.318c.028.038.056.082.078.135.337.925.403 1.972.209 3.203-.065.415-.387.897-.815 1.225-1.375 1.059-3.025 1.872-5.054 2.478-.618.187-1.278.278-2.018.278-.935 0-1.872-.144-2.775-.281l-.257-.038c-.843-.128-1.731-.187-2.8-.187-.856 0-1.721.037-2.562.078l-.369.016c-2.328.096-4.287-.454-5.95-1.71-1.278-.962-2.594-1.875-3.906-2.712-.631-.397-.95-.916-.978-1.575l-.013-.213c-.037-.69-.081-1.472.528-2.115.175-.182.454-.335.76-.425.3-.091.612-.16.919-.232.55-.125 1.068-.24 1.528-.462.693-.331 1.44-.494 2.284-.494.772 0 1.534.131 2.381.291l.294.053c.734.137 1.497.278 2.247.325.134.006.266.009.397.009 1.009 0 1.862-.222 2.603-.678.422-.266.912-.456 1.384-.637l.372-.15c.431-.175.878-.354 1.378-.354.222 0 .438.035.65.11.013-.003.072-.031.125-.06-.272-.35-.459-.475-.693-.475-.147 0-.332.047-.616.16-.313.125-.625.253-.938.384-.925.385-1.884.781-2.881 1.022-.356.084-.762.125-1.247.125-.4 0-.809-.028-1.209-.056-.172-.01-.341-.022-.509-.028-.394-.022-.785-.103-1.16-.182-.259-.056-.515-.109-.775-.143-.687-.091-1.375-.166-2.069-.241l-1.343-.147.44-.284c.228-.147.46-.303.694-.466.541-.365 1.103-.75 1.713-1.065 1.715-.891 4.006-2.004 6.525-2.682 2.003-.543 4.1-.35 6.15.563.096.04.184.075.246.144.735.784 1.71 1.35 2.654 1.893.409.238.834.482 1.237.744.275.178.444.456.609.722.066.103.129.209.197.306.166.228.338.463.51.706m.809-1.237c.1-.063.2-.128.313-.178 1.281-.556 2.815-1.128 4.487-1.128 1.744.009 3.131.9 4.028 1.572.453.34.906.687 1.356 1.031.663.509 1.329 1.019 2.007 1.512.468.347.722.847.703 1.378-.022.522-.316.991-.803 1.291-1.928 1.184-4.035 1.838-6.26 1.938-.312.015-.628.021-.947.021-.5 0-.99-.018-1.459-.059-.309-.022-.603-.134-.884-.241-.119-.043-.238-.09-.36-.128l-.128-.04-.003-.135c-.012-1.509-.441-2.906-1.347-4.4l-.112-.184.2-.088c.215-.087.428-.178.64-.271 1.047-.454 2.035-.879 3.25-.825l.094.006c.106.006.216.009.275-.006.069-.022.141-.063.175-.088-.009-.084-.05-.172-.078-.191-.378-.193-.85-.381-1.294-.225l-.519.175c-.556.191-1.134.385-1.687.604-.772.303-1.138.4-1.441.218l-.068-.043-.329-1.397zm-117.369 18.475c.007-.016.025-.088.035-.134.015-.044.025-.094.04-.141.094-.259.185-.519.275-.781.188-.541.378-1.1.594-1.644.459-1.159 1.131-2.119 2.056-2.938l.247-.212.178.925c.116.603.228 1.181.338 1.756.044.235.081.469.119.706.081.482.159.985.303 1.444l.081.275c.644 2.113 1.309 4.291 2.306 6.253.15.297.378.432.76.444.162 0 .312-.053.45-.456.181-.522.418-1.006.665-1.5 1.085-2.15 2.281-4.406 3.969-6.294 1.516-1.697 3.147-2.65 4.987-2.906.291-.041.319-.047.335-.475-.147-.019-.294-.041-.438-.06-.453-.065-.918-.131-1.378-.159-.494-.025-.969 0-1.344.106-1.246.341-2.365 1.088-3.321 2.219-.085.094-.16.194-.238.297-.053.075-.106.144-.162.219l-.494.622.209-.972c.694-3.285 1.319-6.519 2.006-10.097.541-2.835 1.247-6.581 1.922-10.397.082-.469.1-.963.119-1.434.016-.379.031-.766.078-1.15.238-1.916.497-3.829.753-5.741l.272-2.009c.15-1.138.303-2.279.456-3.419.36-2.666.719-5.335 1.057-8.003.131-1.022.234-2.066.334-3.078l.05-.504.069-.046c3.084-2.194 6.45-3.994 9.994-5.357 6.475-2.484 13.556-4.653 22.293-6.818 4.85-1.2 8.616-1.922 12.21-2.341 2.59-.303 5.247-.491 7.815-.672 1.475-.103 2.997-.212 4.494-.341 1.416-.125 2.853-.271 4.244-.415 1.634-.169 3.325-.341 4.99-.478 2.46-.197 4.944-.297 7.266-.375 3.003-.097 6.225-.188 9.456-.207l1.263-.006c2.512-.006 5.115-.015 7.647-.24l.184-.016.019.184c.012.128.022.257.031.385.013.143.025.284.038.425.309 2.809.634 5.615.959 8.428.144 1.237.287 2.481.428 3.719l.281 2.415c.222 1.941.45 3.888.657 5.828.043.413.053.828.065 1.232.013.506.025 1.028.103 1.521.538 3.454 1.119 6.91 1.666 10.132l.028.162v.003l.125.763c.538 3.125 1.206 7.022 1.913 10.731.053.275.112.553.175.831l.184.885-.35-.188c-.366-.2-.728-.397-1.094-.625-.184-.122-.372-.24-.562-.356-.694-.434-1.413-.881-2.038-1.406-1.044-.875-2.356-1.369-3.903-1.472-.4-.022-.772-.035-1.122-.035-1.622 0-2.915.263-4.078.829-.494.237-1.022.431-1.534.615-.582.206-1.182.422-1.713.71-1.987 1.065-3.978 2.203-5.9 3.303-.628.356-1.253.715-1.881 1.072l-.097.053c-.262.147-.534.3-.703.49-.684.782-.988 1.941-.784 3.028.196 1.06.859 1.938 1.865 2.469 1.791.947 3.222 1.981 4.372 3.163 1.044 1.078 2.394 1.562 4.006 1.465.372-.025.741-.059 1.113-.097.422-.037.844-.078 1.265-.103.366-.022.75-.031 1.141-.031 1.541 0 3.088.169 4.584.328l.7.075c.541.06 1.147.122 1.735.122.853 0 1.528-.134 2.125-.422l.24-.119c2.06-.996 4.182-2.028 5.432-3.918l.062-.097.113.009c.159.019.318.038.478.056.356.041.697.075 1.037.088.228.006.46.016.688.028.712.038 1.444.053 1.987-.031 2.582-.391 4.647-1.238 6.313-2.591.847-.69 1.244-1.322 1.334-2.125.066-.603-.19-1.04-.834-1.412-.625-.36-1.263-.797-1.9-1.297-.191-.15-.378-.297-.566-.447-.972-.784-1.887-1.522-3.078-2.019-1.247-.519-2.291-.659-3.259-.44-1.16.256-2.303.584-3.513.928l-.875.247-.044-.188c-.209-.903-.425-1.834-.606-2.759-.64-3.235-1.312-6.697-1.878-10.153l-.025-.15h-.003l-.1-.579c-.553-3.481-.994-7.043-1.419-10.49l-.062-.494c-.11-.881-.178-1.778-.247-2.653-.069-.891-.141-1.819-.253-2.719-.216-1.684-.46-3.4-.697-5.053-.244-1.697-.494-3.453-.713-5.187-.222-1.744-.393-3.516-.562-5.235-.056-.575-.11-1.15-.169-1.728l-.019-.178.182-.022c.731-.084 1.503-.181 2.259-.319-.203-.603-.297-.928-.341-1.112l-2.209.422-.022-.2c-.069-.625-.137-1.288-.169-1.947l-.09-1.931c-.153-3.144-.31-6.394-.397-9.594-.078-3.05-.131-6.256-.15-9.541v-.159l.212-.035c.66-.115 1.344-.234 2.013-.387-.231-.597-.341-.916-.391-1.103l-1.84.45v-.235c0-.268-.004-.537-.007-.806-.003-.35-.006-.7-.006-1.05-.019-.003-.047-.006-.078-.006-.238 0-.563.087-.741.141l.016 2.159-.559.137c-2.166.254-4.363.372-6.491.485-1.35.078-2.744.153-4.109.259-5.007.397-10.4.847-15.875 1.391-1.191.125-2.385.353-3.541.575-.841.159-1.709.328-2.572.453-3.531.506-7.403 1.031-12.175 1.647-5.303.69-10.462 2.234-15.45 3.725l-1.141.34c-2.481.747-4.959 1.644-7.356 2.513-.8.291-1.603.581-2.406.866-6.219 2.218-11.325 4.331-16.031 7.456-.507.334-1.007.697-1.488 1.05l-.581.419.034-2.125c-.068-.01-.159-.013-.253-.013-.244 0-.422.044-.49.125-.007.509-.019 1.019-.029 1.528l-.021 1.035-.072.053c-.744.556-1.482 1.122-2.216 1.687l-.062.044c-.222.172-.394.428-.591.722-.059.087-.119.178-.181.272.14.043.278.065.406.065.434 0 .734-.272 1.025-.531l.144-.128c.259-.222.525-.428.793-.638.141-.109.282-.218.422-.331l.313-.25-.01.4c-.065 2.938-.153 5.628-.259 8.225-.128 3.01-.325 6.072-.512 9.028l-.107 1.657-.562.378c-.36.243-.716.493-1.069.737-.231.156-.412.4-.622.678-.062.088-.128.175-.197.26.163.062.316.093.463.093.409 0 .709-.243.997-.481l.15-.119c.075-.056.15-.109.225-.159.062-.044.122-.087.184-.131l.35-.263-.134 1.082c-.035.268-.069.534-.1.803-.082.69-.163 1.381-.241 2.065-.184 1.607-.375 3.266-.612 4.891-.238 1.628-.504 3.284-.766 4.881-.253 1.556-.513 3.166-.744 4.75-.125.844-.206 1.71-.284 2.544-.078.822-.156 1.669-.275 2.5l-.097.675c-.453 3.172-.919 6.45-1.494 9.656-.619 3.447-1.378 6.947-2.1 10.238-.331 1.5-.722 3.009-1.103 4.472l-.025.106c-.478.972-.806 1.794-1.05 2.628-.028.091-.069.175-.116.262l-.109.232-.384-.107-.025-.165c.025-.26.043-.522.062-.788.038-.572.078-1.159.188-1.728.303-1.559.672-3.115 1.053-4.706.437-1.809.756-3.788 1.006-6.231.097-.95.113-1.938.128-2.888.006-.334.013-.662.022-.997.003-.168-.031-.359-.103-.525-.019-.047-.094-.109-.125-.118-.006.012-.084.087-.103.15-.094.293-.166.615-.219.965l-.044.3c-.131.903-.268 1.838-.528 2.744-.297 1.053-.553 2.119-.822 3.244-.115.478-.228.959-.35 1.453l-.262 1.059-.103-1.087c-.013-.113-.022-.213-.035-.3-.018-.172-.034-.31-.037-.444-.016-1.438-.363-2.828-.7-4.172l-.147-.603c-.228-.922-.469-1.838-.713-2.753-.118-.453-.24-.903-.356-1.36-.09-.331-.219-.459-.253-.468-.162.109-.147.24-.053.578.581 2.178.859 4.387.834 6.609-.015 1.516-.012 3.185.003 5.25.004.441.041.888.082 1.322l.028.331c.069.8.14 1.597.212 2.397l.069.763-.362.072c-.538-1.857-.879-3.791-1.21-5.663-.247-1.387-.5-2.822-.831-4.2-.044-.012-.088-.016-.122-.016-.084 0-.184.019-.294.247-.147.316-.34.6-.528.866-.559.787-.915 1.591-1.087 2.45-.038.194-.1.394-.207.634-.121.285-.253.572-.381.86-.247.543-.5 1.106-.706 1.678-.225.619-.375 1.294-.525 1.947l-.072.315c-.006.035.022.132.047.197.084-.022.175-.065.259-.131"/><path d="m58.503 342.303.01-.169.172-.006c.168-.006.321-.012.475-.022l.165-.009.028.162c.128.7.263 1.404.397 2.11.31 1.6.625 3.262.85 4.906.278 2.059.444 4.169.497 6.269.163 6.469.278 13.047.388 19.406l.059 3.35c.016.778-.063 1.569-.231 2.347l-.191.875-.178-.878c-2.294-11.625-3.094-24.163-2.441-38.341m-4.712 25.735c-.019.14-.038.278-.05.415l-.094.863-1.141-3.478-.037-.013.003-.094-.003-.009.081-3.466c-.034-.006-.069-.015-.103-.022-.244-.05-.45-.093-.491-.278-.531-2.337-1.046-4.728-1.525-7.103-.05-.234.019-.469.085-.697.009-.025.019-.053.025-.084-.022-.003-.044-.006-.066-.006-.2-.032-.422-.06-.565-.21-.666-.684-1.122-.659-1.882.107-.556.562-1.212 1.031-1.74 1.409-.203.147-.394.284-.557.409l-.287.222-.013-.362c-.053-1.325 1.635-4.232 4.232-6.444l.237-.203.066.309c.244 1.181.475 2.275.697 3.344l.234 1.122.091.031-.028.163c-.004.012-.01.028-.013.043l1.981 7.978v.091l.003.009-.081 3.485c1.21.509 1.066 1.55.941 2.469m9.906-5.666c.672-4.003 1.363-8.141 2.172-12.188.444-2.203 1.119-4.39 1.775-6.506.228-.737.456-1.475.675-2.209.134-.466.437-.894.984-1.403l.366-.344-.053.5c-1.116 10.053-3.166 19.087-6.263 27.612l-.306.841-.053-.891c-.006-.093-.019-.187-.031-.281-.025-.219-.053-.444-.016-.665.253-1.491.503-2.975.75-4.466m1.788 20.916c.309-2.685 1.39-5.047 2.509-7.197 3.056-5.866 6.194-10.141 9.869-13.457 3.084-2.778 6.781-4.665 11.303-5.762.184-.044.422-.041.665-.025.094.006.191.012.282.012h.778l-.694.35c-4.947 2.51-9.384 6.166-13.969 11.504-2.075 2.412-3.909 5.106-5.684 7.712-.634.928-1.266 1.853-1.909 2.772-.425.603-.829 1.237-1.219 1.85-.503.787-1.022 1.603-1.597 2.372l-.413.556zm185.206-64.732c-1.081-1.284-2.2-2.612-3.253-3.953-1.975-2.515-4.044-5.031-6.041-7.469-1.766-2.15-3.587-4.368-5.341-6.578-.543-.687-1.2-1.431-1.893-2.215-2.153-2.444-4.597-5.216-4.375-7.154.062-.546.331-1.006.797-1.368l-.454-3.253.275.078c.354.1.675.187.969.269.619.168 1.153.312 1.663.493l.534.191c2.794 1.003 5.441 1.947 8.491 2.109 1.653.094 3.581 1.432 4.556 2.653 3.928 4.888 7.166 9.275 9.897 13.41 4.059 6.156 8.003 12.522 11.815 18.678.797 1.287 1.591 2.578 2.391 3.865.491.785 1.081 1.976 1.159 3.207.069.969.141 1.865.213 2.706.475 5.803.737 8.994-4.003 13.972-2.247 2.365-4.719 3.387-7.572 3.122l-.163-.016-.006-.159c-.1-2.363.906-4.306 1.881-6.188l.054-.103c.546-1.062 1.178-2.175 2.05-3.612.646-1.063.606-1.76-.163-2.378-3.203 1.478-5.831 6.715-7.816 15.584l-.028.112-.112.028c-.256.06-.522.129-.788.2-.628.16-1.275.329-1.943.419-.3.038-.622.057-1.019.057-.26 0-.522-.007-.8-.016-.281-.009-.578-.016-.888-.016h-.193l.009-.197c.172-3.153 1.622-5.778 3.028-8.315.234-.425.466-.847.694-1.272.406-.756.822-1.51 1.237-2.26 1.116-2.028 2.269-4.121 3.241-6.237 1.062-2.319 1.081-4.447.05-6.703-1.988-4.375-5.122-8.097-8.153-11.691m20.784-39.394.26.032c1.965.237 3.862.453 5.709.659 4.034.459 7.844.888 11.622 1.466l1.55.24c4.537.703 9.228 1.432 13.925 1.432 1.962 0 3.79-.122 5.587-.375l1.663-.235-1.572.591c-.356.137-.719.278-1.072.425-.809.322-1.647.659-2.506.897-1.253.356-2.613.643-4.285.912-3.775.597-7.537 1.166-11.19 1.688-5.972.853-10.65 3.034-14.297 6.656-.272.275-.569.497-.875.669-.156.081-.328.097-.613.119-.15.012-.35.024-.603.053l-.168.022-.032-.166-3.103-15.084zm-45.497 7.506c-.265 0-.506.006-.734.012-.197.003-.384.01-.559.01-.391 0-.672-.025-.935-.078-6.594-1.322-12.5-2.65-17.997-5.582-1.203-.64-1.912-1.003-2.44-1.003-.725 0-1.2.747-2.294 2.597l-.109.178-.163-.125c-.441-.334-.884-.662-1.322-.984-1.019-.753-1.981-1.472-2.925-2.244-4.25-3.472-7.297-7.878-10.244-12.141-1.131-1.631-2.296-3.318-3.515-4.931-1.491-1.969-3.188-3.85-4.828-5.675-.744-.825-1.491-1.653-2.219-2.49-.259-.3-.528-.594-.838-.938-.206-.231-.437-.481-.693-.769l-.194-.218.281-.085c.781-.234 1.528-.472 2.256-.706 1.541-.491 2.997-.959 4.491-1.278 3.922-.838 6.984-3.216 9.359-7.272.997-1.703 1.616-3.647 2.213-5.522.253-.794.516-1.616.803-2.409l.044-.122c.131-.356.294-.803.184-1.06-.059-.134-.119-.281-.181-.434-.291-.725-.694-1.712-1.153-1.809-.122-.028-.238-.038-.344-.038-.75 0-.922.65-1.106 1.647-.016.106-.038.206-.06.306-1.234 6.166-5.315 10.407-12.121 12.613-1.535.497-3.122.906-4.66 1.306-1.344.344-2.734.706-4.072 1.122-4.818 1.484-9.318 3.734-13.375 6.678-2.343 1.703-4.965 3.606-7.259 3.606-1.356 0-2.459-.681-3.284-2.025l-.094-.156.15-.097c.594-.391 1.312-.616 2.003-.841 1.297-.406 2.628-.831 3.294-2.321-.144-.066-.282-.138-.416-.21-.341-.181-.659-.35-.894-.322-.447.069-.868.247-1.315.438-.3.128-.616.262-.944.359l-.719.216c-2.169.65-4.869 1.456-7.297 1.456-.853 0-1.637-.1-2.328-.3-3.894-1.122-5.378-3.387-7.431-6.528l-.144-.222.131-.109c.716-.556 1.641-.894 2.535-1.216 1.962-.715 3.819-1.39 3.362-4.328l-.122.072c-1.906 1.153-3.703 2.234-5.79 2.237-.816 0-1.619-.165-2.456-.5l-.06-.028-.031-.053c-1.206-2.184 0-4.156 1.066-5.897l.134-.222c4.459-7.321 9.016-14.615 13.541-21.681.75-1.169 1.34-2.353 1.912-3.503 1.284-2.569 2.497-5 5.269-6.947 2.581-1.819 5.497-2.597 8.322-3.347.584-.159 1.172-.309 1.753-.475.575-.165 1.578-.518 2.74-.928 3.11-1.1 7.422-2.609 9.029-2.447.781.082 1.559.125 2.315.125 8.038 0 13.569-4.815 17.494-9.012 3.856-4.131 6.487-9.047 9.031-13.797.606-1.128 1.21-2.26 1.828-3.378 2.053-3.71 4.244-7.419 6.363-11.016l.725-1.225c1.85-3.141 4.669-5.684 8.619-7.778 8.737-4.641 16.687-8.728 25.49-11.737l.103-.038c1.738-.594 3.538-1.209 5.432-1.209.987 0 1.918.162 2.84.496l.075.022.035.075c.953 2.15.087 4.1-.75 5.988-.729 1.647-1.447 2.894-2.263 3.925-5.644 7.14-9.109 15.341-11.762 22.419-2.669 7.128-8.044 12.197-15.969 15.068-1.844.666-3.728 1.316-5.553 1.947-3.56 1.228-7.244 2.503-10.775 3.947-6.544 2.681-11.21 5.763-14.682 9.7-.165.188-.428.272-.706.36-.128.04-.269.087-.406.143l-.119.053-.09-.096c-1.432-1.529-.416-2.957.259-3.901 2.444-3.399 5.487-5.853 8.809-7.084 10.369-3.856 16.691-11.606 21.044-17.925.994-1.444 1.922-2.978 2.822-4.456 1.647-2.716 3.353-5.525 5.525-7.913.653-.709 1.297-1.434 1.947-2.162 4.422-4.963 8.994-10.091 16.078-12.403.712-.231 1.366-.681 2-1.116.237-.169.487-.337.737-.494-1.018-1.84-1.512-2.456-2.328-2.456-.568 0-1.312.3-2.403.828-7.156 3.46-13.615 8.122-19.74 14.253-5.316 5.332-10.307 11.066-15.125 16.613-2.244 2.581-4.566 5.25-6.891 7.847-2.284 2.553-4.903 4.915-7.431 7.203-1.425 1.287-2.9 2.615-4.297 3.969l-.1.093c-1.394 1.347-2.838 2.738-3.753 4.344-.841 1.478-1.141 3.266-1.435 4.997l-.009.056c-.231 1.363.647 2.553 2.137 2.9 1.144.266 2.16.391 3.197.391.566 0 1.057-.038 1.535-.072.415-.031.812-.059 1.209-.059.969 0 2.109.147 3.894 1.222 3.706 2.225 6.781 5.021 9.147 8.309.084.112.178.225.275.334.225.26.459.528.55.856 1.503 5.194 5.94 5.629 10.353 5.629.359 0 .719-.003 1.075-.01 3.981-.047 7.872-1.362 10.437-2.459 3.519-1.506 6.953-3.331 10.275-5.1 1.763-.938 3.591-1.91 5.407-2.822 6.04-3.025 11.534-6.947 16.85-10.741 2.368-1.69 4.815-3.437 7.281-5.084 7.803-5.209 17.131-8.422 28.528-9.812.312-.038.637-.047.947-.054.428-.006.831-.015 1.219-.096 2.731-.575 5.518-.869 8.284-.869 7.984 0 15.931 2.265 25.766 7.34 6.384 3.288 12.531 7.697 19.362 13.879 6.7 6.062 13.241 12.734 19.441 19.825 2.5 2.856 4.472 6.153 6.022 10.087.965 2.447 2.668 3.419 4.662 2.619 1.013-.4 2.066-.766 3.084-1.122 3.654-1.272 7.438-2.591 9.96-5.744.672-.84 1.281-1.706 1.987-2.709.322-.453.657-.928 1.019-1.438l.203-.281.125.325c.15.397.303.766.453 1.122.307.725.597 1.409.732 2.112.925 4.86 1.556 9.597-.838 14.107-2.797 5.268-5.897 7.415-10.697 7.415-.744 0-1.547-.053-2.387-.162-.95-.125-1.907-.2-2.741-.266-.266-.022-.519-.04-.753-.062-.559.8-1.091 1.59-1.613 2.368-1.268 1.879-2.465 3.66-3.871 5.304-1.369 1.609-3.15 3.096-5.154 4.309-5.484 3.316-12.075 5.222-20.746 5.997-.222.022-.438.031-.65.031-1.188 0-2.057-.384-2.725-1.219-1.472-1.837-17.172-7.325-23.404-9.15-.215-.062-.512-.059-.943-.043-.172.006-.366.015-.582.018.619.875 5.675 3.619 10.172 6.06 5.669 3.075 12.094 6.565 15.607 9.24 1.012.772 1.884 1.728 2.725 2.65.259.278.515.56.775.838 1.187 1.269 1.125 2.315-.219 3.74-4.675 4.95-11.075 7.197-16.719 8.744-4.466 1.222-9.047 2.338-13.472 3.422-5.75 1.403-11.697 2.853-17.453 4.547-4.109 1.212-8.109 2.975-11.978 4.675-1.756.775-3.572 1.572-5.369 2.309-.656.272-1.303.531-1.978.806l-.091.038-.084-.056c-2.25-1.497-2.159-3.613-2.075-5.657.063-1.44.125-2.928-.656-4.175-2.66 2.947-2.775 8.441-.219 12.138l.103.15-4.631 3.412-.106-.165c-2.488-3.919-3.053-8.003-1.682-12.134 2.247-6.744 6.947-10.86 13.969-12.222l2.328-.45c2.288-.438 4.65-.897 6.963-1.378 1.265-.263 2.534-.522 3.803-.782 4.128-.843 8.394-1.715 12.537-2.74 2.647-.657 5.266-1.597 7.797-2.5.707-.254 1.41-.507 2.113-.753.265-.094.484-.357.74-.663.091-.112.188-.231.291-.344-1.016-.944-2.266-1.384-3.922-1.384-.609 0-1.206.059-1.709.112-4.394.5-8.028.51-11.656.057-1.082-.138-2.25-.204-3.579-.204-1.553 0-3.143.094-4.684.179-.875.05-1.747.096-2.616.131-7.121.275-14.437-1.041-23.171-4.175-7.122-2.556-13.516-6.781-20.729-13.691-2.056-1.972-3.159-4.659-3.362-8.218-.45-7.704 2.041-14.641 7.603-21.216.709-.841 1.45-1.656 2.303-2.603.331-.363.678-.747 1.047-1.156-.816-.269-1.525-.5-2.222-.725l-2.147-.707.203-.212c.194-.207.372-.413.541-.616.359-.419.694-.812 1.131-1.106 3.478-2.338 7.038-4.691 10.472-6.966 1.556-1.028 3.113-2.059 4.663-3.087.262-.172.537-.341.806-.51.734-.447 1.487-.915 2.044-1.506.353-.369.518-.903.734-1.581.103-.335.222-.713.378-1.113l.031-.068.072-.035c7.025-2.89 15.3-4.294 25.288-4.294 1.022 0 2.081.013 3.147.041 7.687.209 14.634 2.922 21.359 5.541l1.653.644c5.406 2.093 10.766 5.037 16.375 8.987.547-.394.828-.784.835-1.159.012-.553-.572-1.047-1.01-1.372l-.859-.635c-1.969-1.468-4.006-2.981-6.235-4.05-6.771-3.246-13.115-6.075-19.393-8.65-5.372-2.203-11.203-2.65-16.7-2.806-.638-.019-1.272-.028-1.907-.028-6.834 0-13.862 1-21.484 3.056-3.944 1.063-7.941 2.847-12.219 5.441.932 1.725 2.363 1.769 4.166 1.822.541.015 1.097.031 1.675.097l.484.056-.403.281c-2.962 2.081-6.169 3.794-9.272 5.45-5.212 2.772-10.137 5.394-13.959 9.619 1.081 1.016 2.35 1.109 3.687 1.209.819.06 1.663.122 2.51.394l.222.072-.122.203c-.26.438-.513.872-.766 1.309-.512.888-1.044 1.803-1.609 2.678-3 4.625-5.288 9.641-6.788 14.904-1.097 3.828-.987 7.618.322 11.268.225.635.453 1.272.7 1.963l.428 1.219-.218.037c-.46.078-.932.116-1.441.116-1.141 0-2.269-.197-3.363-.388-1.087-.19-2.118-.365-3.156-.365-.89 0-1.678.137-2.409.422-.169.662-.144 1.149.078 1.478.322.478 1.066.662 2.087.79l.169.022c4.113.509 8.372 1.038 12.063 3.194.634.375 1.237.809 1.815 1.237.457.328.922.675 1.407.978.587.379 1.178.782 1.746 1.172 1.46.997 2.963 2.025 4.6 2.694 4.532 1.856 7.091 4.641 8.057 8.756.431 1.841.909 3.703 1.368 5.507.622 2.421 1.26 4.921 1.804 7.403.303 1.4.093 2.903-.125 4.062-1.004 5.156-1.697 10.203.712 15.216.913 1.897 1.772 2.74 2.797 2.74.678 0 1.462-.384 2.391-1.171 1.265-1.082 2.603-1.604 4.1-1.604 1.434 0 2.796.494 3.821.922 6.025 2.513 10.55 7.069 13.457 13.541l.053.119-.35.365c-.147.153-.288.303-.431.453l-.104.104-.125-.069c-.359-.2-.721-.403-1.084-.603-.847-.472-1.719-.957-2.559-1.457-.466-.278-.919-.575-1.372-.871-.828-.535-1.685-1.094-2.581-1.522-.082-.041-.197-.057-.344-.057-.466 0-1.072.21-1.272.444-.116.138-.15.572-.069.966.053.275.144.415.185.437 1.234.638 2.334 1.513 3.396 2.36 2.044 1.625 4.16 3.306 7.269 3.306.085 0 .163 0 .241-.003l.184-.006.147 3.1-.209-.019c-.438-.035-.853-.047-1.247-.063-.791-.025-1.531-.053-2.216-.247-6.294-1.781-12.787-3.621-18.787-6.54-4.819-2.35-8.328-5.985-11.047-11.438-2.088-4.2-4.35-7.94-6.919-11.443-1.053-1.444-2.047-2.963-3.003-4.429-1.272-1.95-2.591-3.968-4.066-5.821-2.534-3.163-5.518-6.107-8.359-8.854-.95-.915-2.419-1.625-3.653-1.771-6.66-.766-11.416-2.36-15.41-5.166-.121.066-.237.125-.343.181-.241.122-.435.219-.547.35-.2.225-.344.5-.469.741-.034.065-.069.131-.1.19.363.791.703 1.547 1.069 2.347l.872 1.916-.56-.006zm-34.828-99.707-.184.229c-2.603 3.196-6.481 7.125-10.144 7.665l-.212.031v-.218c0-2.785 2.078-6.566 3.821-9.25l.072-.113.128.035c2.072.512 4.15 1.025 6.235 1.55zm-6.028-2.118-.262-.066.153-.219c4.39-6.447 10.668-12.675 16-15.865l.434-.26-.162.478c-1.857 5.45-5.641 12.291-9.647 17.422l-.075.1-.116-.031c-2.119-.528-4.225-1.044-6.325-1.559m-16.628 11.384c.544-.831 1.044-1.637 1.528-2.419 1.003-1.622 1.956-3.153 3.069-4.559 3.387-4.256 4.087-9.253 4.512-14.003.244-2.688.388-5.435.532-8.088.14-2.665.287-5.428.531-8.134.64-7.091 3.525-13.006 8.575-17.597 1.372-1.244 2.737-2.541 4.059-3.794 4.044-3.834 8.222-7.8 13.138-10.89 1.003-.632 2.034-1.213 3.128-1.825.528-.297 1.072-.597 1.625-.919l.15-.081.097.137c2.19 3.141 2.565 6.472 1.143 10.166-.962 2.497-2.178 4.956-3.353 7.331-.481.975-.962 1.947-1.431 2.925-.391.822-.797 1.644-1.203 2.463-.697 1.409-1.422 2.868-2.063 4.328-1.037 2.353-1.325 4.7-.881 7.175.835 4.668-2.15 8.156-4.844 10.675-1.587 1.487-3.3 2.903-4.956 4.272-1.831 1.512-3.728 3.078-5.45 4.734-.465.45-.94.894-1.422 1.341-2.478 2.306-5.04 4.69-6.081 8.009-.159.512-.328 1.025-.503 1.534-.538 1.622-1.1 3.3-1.334 4.982-.391 2.715-1.366 2.928-4.129 3.15-.125.009-.253.015-.378.015-.753 0-1.506-.162-2.381-.344-.491-.103-.997-.212-1.55-.3l-.284-.043zm58.034-50.259.488.131-.46.216c-2.343 1.096-4.725 2.218-7.046 3.353-4.694 2.29-9.429 5.047-12.269 9.69-.506.828-1.025 1.65-1.541 2.469l-.697 1.113-.765-.238.04-.169c.294-1.256.569-2.547.832-3.793.59-2.8 1.203-5.697 2.134-8.454.931-2.765 2.019-5.484 3.244-8.493l.062-.15.16.04c5.846 1.566 11.025 2.969 15.818 4.285m25.369 57.79.366.122-.319.213c-.334.225-.669.443-1 .659-6.109 3.934-9.419 5.813-14.434 8.656-1.466.835-3.069 1.744-4.932 2.813-4 2.294-8.522 4.419-14.443 4.431-2.566 0-7.05-.728-8.282-2.678-2.912-6.838-9.487-10.741-12.293-12.406-.894-.532-1.332-.797-1.488-.994l-.075-.094.056-.106c1.653-3.109 2.753-4.141 5.882-5.528 2.503-1.103 5.156-1.994 7.725-2.86 1.487-.496 3.018-1.009 4.503-1.559.968-.356 1.931-.691 2.834-.997l.053-.019.056.016c13.96 3.719 25.332 7.006 35.791 10.331m119.903 72.947c.96 1.26.86 2.816-.272 4.388-.643.887-1.281 1.815-1.893 2.709-1.791 2.603-3.635 5.297-5.966 7.488-4.059 3.825-8.481 7.44-12.766 10.937-1.659 1.356-3.378 2.759-5.047 4.156-.484.403-1.075.797-1.803 1.2l-1.268.713c-5.735 3.197-11.666 6.506-17.522 9.722-.697.381-1.472.665-2.297.965-.4.141-.822.297-1.26.469l-.137.056-.084-.125c-1.466-2.14-.985-3.987-.369-5.693.122-.338.281-.679.437-1 .294-.625.572-1.219.616-1.822.053-.666-.313-1.71-.859-2.06-.263-.165-.529-.25-.785-.25-.725 0-1.278.669-1.431 1.297-.494 1.975-.856 4.122-1.163 6.947-.087.75.025 1.534.129 2.303.046.347.093.694.125 1.044l.009.081-.059.06c-.044.05-.088.112-.135.168-.115.153-.244.325-.44.375-1.688.432-2.91.744-3.716.744-1.697 0-1.719-1.256-1.772-4.612-.116-7.163 3.059-12.138 9.709-15.207.672-.309 1.341-.622 2.01-.937 3.672-1.719 7.462-3.497 11.503-4.794 3.9-1.25 7.622-3.216 11.216-5.116.912-.481 1.825-.962 2.737-1.437 3.041-1.556 4.972-4.238 6.459-6.656.872-1.419.763-2.594-.353-3.807-.862-.937-1.672-1.95-2.528-3.021-.406-.51-.834-1.044-1.294-1.607l-.184-.225.281-.075c.457-.118.888-.234 1.303-.347.772-.206 1.5-.403 2.232-.578.987-.237 1.981-.462 2.972-.69 1.915-.441 3.903-.891 5.821-1.419.569-.159 1.057-.234 1.497-.234.835 0 1.503.275 2.044.846 1.569 1.66 3.016 3.357 4.303 5.044m-59.922 26.116c-.262 1.194-.565 2.387-.859 3.537-.203.794-.403 1.578-.591 2.363l-.022.09-.734.344c-.459.216-.922.435-1.384.644-5.019 2.244-10.416 4.516-16.047 6.766l-.094.037-.084-.062c-.982-.716-1.907-1.338-2.825-1.9-.66-.407-1.313-.816-2.128-1.335l-1.513-.953.284-.147c4.807-2.556 9.807-4.109 14.635-5.609 3.912-1.216 7.606-2.366 11.103-3.985l.344-.159zm45.941 76.322c1.147.834 1.772 2.056 1.719 3.347-.053 1.259-.769 2.403-1.96 3.134-5.009 3.075-10.478 4.769-16.25 5.028-.847.041-1.69.063-2.506.063-1.291 0-2.556-.054-3.759-.15-.769-.066-1.513-.347-2.232-.616-.318-.125-.637-.244-.959-.347l-.128-.041-.003-.131c-.041-4.003-1.172-7.712-3.572-11.681l-.113-.184.197-.085c.569-.231 1.125-.475 1.678-.712 2.71-1.182 5.263-2.294 8.382-2.144l.231.016c.316.021.631.031.841-.032.321-.093.653-.322.681-.412.009-.288-.16-.747-.381-.863-.75-.384-1.625-.797-2.563-.797-.362 0-.709.063-1.062.185-.5.172-1 .34-1.504.512-1.415.478-2.878.975-4.284 1.532-1.319.521-2.153.803-2.762.803-1.075 0-1.438-.81-2.232-2.578l-.225-.504.144-.087c.178-.103.353-.216.531-.331.403-.253.819-.519 1.278-.719 3.322-1.45 7.31-2.938 11.641-2.938h.081c3.378.016 6.553 1.269 10.282 4.06 1.196.9 2.387 1.809 3.571 2.715 1.707 1.307 3.472 2.657 5.238 3.957m-28.641 12.5c-.187 1.162-1.15 2.356-2.018 3.028-3.563 2.747-7.86 4.853-13.138 6.44-1.587.475-3.287.707-5.2.707-2.425 0-4.866-.372-7.231-.732l-.66-.1c-2.221-.34-4.565-.493-7.375-.493-2.243 0-4.515.1-6.715.197l-.978.046c-6.088.272-11.094-1.168-15.397-4.409-3.372-2.544-6.819-4.941-10.25-7.122-1.575-1.003-2.347-2.24-2.425-3.89-.01-.185-.019-.372-.031-.563-.1-1.825-.207-3.712 1.306-5.303.415-.434 1.087-.813 1.85-1.041.778-.231 1.594-.415 2.384-.593 1.397-.316 2.838-.641 4.072-1.235 1.775-.853 3.691-1.269 5.85-1.269 1.997 0 3.981.341 6.184.754l.685.128c1.965.368 4.003.753 6.009.865.363.019.725.032 1.081.032 2.694 0 4.969-.597 6.947-1.825 1.085-.675 2.341-1.163 3.55-1.635.266-.103.528-.209.791-.312l.225-.091c1.109-.444 2.25-.9 3.494-.9.55 0 1.075.084 1.603.269.109.037.4-.094.656-.222.075-.034.147-.069.222-.103-.9-1.235-1.484-1.66-2.269-1.66-.434 0-.953.129-1.728.438-.822.322-1.644.666-2.462 1.003-2.413 1.003-4.91 2.038-7.494 2.663-.916.218-1.963.328-3.21.328-1.04 0-2.109-.072-3.143-.144-.447-.031-.891-.059-1.325-.084-1.016-.06-2.028-.266-3.003-.472-.672-.141-1.369-.282-2.054-.375-1.746-.232-3.465-.419-5.281-.613-.759-.081-1.519-.162-2.284-.25l-.522-.059.437-.281c.597-.385 1.197-.794 1.81-1.213 1.415-.962 2.872-1.959 4.469-2.791 4.465-2.321 10.44-5.221 17.025-7 5.178-1.4 10.596-.9 15.909 1.463l.109.044c.147.062.316.131.435.256 1.953 2.091 4.525 3.578 7.012 5.016 1.075.618 2.185 1.259 3.235 1.943.665.435 1.09 1.125 1.506 1.797.165.278.344.566.534.825.838 1.153 1.669 2.313 2.635 3.66l1.481 2.056-.51-.138c-.462-.125-.859-.228-1.206-.322-.634-.162-1.137-.293-1.615-.459-1.266-.425-2.519-.859-3.779-1.297-1.031-.356-2.065-.715-3.1-1.065l-.043-.016c-.419-.144-.853-.291-1.275-.319-.191-.012-.394-.037-.603-.065-.272-.035-.56-.072-.819-.072-.6 0-.919.209-1.066.706-.09.294-.078.519.028.687.232.354.894.45 1.422.529.163.025.313.046.444.071 3.55.722 6.794 2.15 9.934 3.529.95.421 1.935.853 2.91 1.259.665.281 1.225.994 1.428 1.562.872 2.375 1.044 5.069.537 8.232m61.085 39.64c.29-1.237.025-2.656-.235-4.022-.112-.609-.231-1.24-.303-1.85-.028-.253-.078-.5-.128-.759l-.191-1.031.454.559c2.721 3.325 3.625 7.328 2.934 12.985l-.056.443-.278-.353c-.125-.162-.25-.319-.372-.472-1.294-1.628-2.407-3.028-1.825-5.5m-12.46 3.06.297-.2c2.06-1.4 3.7-2.519 5.756-3.913l.144-.097 7.544 9.488zm-1.7-1.353c-.497 0-1.081-.172-1.425-.422-1.609-1.163-3.197-2.413-4.731-3.622-.547-.431-1.087-.86-1.637-1.288l-.1-.078.256-.822.109-.018c.556-.104 1.116-.213 1.678-.325 1.378-.269 2.81-.55 4.228-.725.635-.075 1.388.115 2.279.556 1.109.55 2.212 1.165 3.378 1.819.503.284 1.028.578 1.584.884l.253.141-.234.175c-.5.362-.978.721-1.444 1.075-1.2.903-2.331 1.753-3.531 2.5-.169.1-.388.15-.663.15m-11.2-9.888c-.543-.987-1.112-2.028-1.684-3.066l-.072-.121.606-.591 7.903 4.334-.046.147c-.057.191-.122.385-.185.575l-.04.125h-5.713zm-1.34-7.203 10.137-.675.063.069c2.062 2.262 3.172 5.04 4.24 7.731.157.394.316.794.482 1.187l.159.407-.4-.163c-5.644-2.212-10.631-5.119-14.763-7.669l-.115-.068zm13.456-.4c3.475.453 6.178 1.809 8.581 3.216.519.296.835.987 1.088 1.546 1.462 3.232 2.031 6.666 1.853 11.172l-.01.372-1.003-.812c-.368-.3-.647-.525-.922-.75-.265-.225-.525-.472-.778-.716-.547-.525-1.065-1.028-1.681-1.281-2.519-1.038-3.378-3.235-4.209-5.353-.616-1.572-1.313-3.128-2.06-4.778-.34-.757-.69-1.538-1.053-2.36l-.134-.3zm19.762 3.812.147-.393 3.372 6.403-5.14 10.644-.041-.716c-.341-6.1-.184-10.891 1.662-15.938m1.516-3.8.019-.05c.819-2.584 2.447-4.581 4.325-6.89l.378-.466 3.187 5.466c.479.822.138 1.531-.221 2.131-.972 1.634-1.938 3.272-3.022 5.116l-1.622 2.753-.156-.303c-.31-.632-.61-1.222-.9-1.797-.804-1.591-1.494-2.969-2.138-4.397-.197-.438-.003-1.063.15-1.563m6.028-9.106c2.15-2.312 4.378-4.462 6.825-6.569l.281-.243.022.372c.097 1.35.282 1.418 1.969 1.615l.35.047-.103.25-6.125 10.475-3.309-5.847zm8.603-8.053c1.616-1.312 2.991-2.366 4.335-3.322l.703-.5-2.241 3.838-.097.012c-.793.088-1.587.185-2.384.281l-.813.1zm5.407-.553c.734-.9 1.468-1.709 2.25-2.472l.412-.403-.259 1.484c-.078.475-.163.953-.244 1.428l-.028.147-.488.016c-.415.022-.831.05-1.243.087l-.675.054zm-5.947 22.803-.063.244c-.731 2.897-8.269 11.175-15.225 16.719l-.484.381.19-.588c1.716-5.325 4.225-9.787 6.65-14.103.394-.703.785-1.397 1.169-2.09l.05-.091.103-.003zm.234-13.519.191-.375c.922-1.837 1.737-3.328 2.562-4.687l.069-.11.125.019c1.491.272 2.766.572 3.891.913l.159.047-.028.162c-.025.128-.047.259-.069.388-.022.14-.047.278-.072.418-.159.963-.647 1.525-1.537 1.763-1.075.284-2.15.584-3.316.909zm5.413.378.075.082c.146.159.29.315.437.475l.113.122-1.082 2.812c-.728 1.909-1.459 3.816-2.203 5.719-.434 1.128-1.212 1.669-2.45 1.712-1 .035-2.019.169-3.006.297-.597.075-1.213.156-1.822.216-.062.003-.128.006-.191.006-.237 0-.481-.037-.759-.078-.178-.028-.369-.059-.581-.084l-.272-.025.475-.913c1.522-2.903 2.962-5.656 4.419-8.447l.04-.072zm3.309-3.118c.034-.191.069-.382.103-.572l.038-.219.212.078c4.719 1.806 9.05 4.619 13.244 8.6 7.297 6.935 12.64 15.475 17.078 22.931l.144.241-.278.041c-19.269 2.593-38.132 4.975-56.072 7.068l-.31.038.113-.294c.194-.481.519-.934.969-1.331l.762-.684c5.147-4.588 10.466-9.335 14.856-14.825 1.9-2.382 3.591-4.794 5.022-7.182 2.119-3.528 2.906-7.59 3.669-11.522.094-.484.187-.968.281-1.45.06-.306.119-.609.169-.918m1.872-4.013c.119 0 .24-.009.365-.019.307-.015.604-.021.835.032 5.772 1.403 10.487 3.806 14.422 7.356 4.687 4.222 8.693 9.684 12.6 17.184 1.362 2.61 2.809 5.741 3.209 9.178l.078.688-.412-.553c-.738-.991-1.407-2.038-2.053-3.05-.497-.775-1.01-1.581-1.547-2.347-.822-1.169-1.628-2.353-2.435-3.538-2.272-3.331-4.618-6.781-7.272-9.871-5.875-6.829-11.556-11.507-17.875-14.71l-.693-.35zm26.253-21.322-.059-.5.368.344c.694.644 1.078 1.188 1.247 1.766.278.94.569 1.881.86 2.822.837 2.703 1.703 5.5 2.268 8.315 1.038 5.169 1.919 10.46 2.772 15.575.319 1.903.638 3.806.963 5.706.047.279.015.56-.022.835-.016.122-.031.244-.038.365l-.053.897-.306-.843c-3.956-10.885-6.572-22.425-8-35.282m10.391 44.347c.143-8.112.287-16.503.496-24.756.066-2.684.282-5.384.638-8.006.281-2.088.681-4.194 1.072-6.232.175-.909.35-1.825.515-2.737l.029-.156.95.037.006.172c.834 18.134-.185 34.156-3.122 48.988l-.172.884-.191-.881c-.212-.991-.315-1.994-.3-2.985zm13.468-26.728s.828-3.944 1.257-6l.059-.306.241.203c3.306 2.819 5.456 6.516 5.393 8.194l-.012.359-.291-.219c-.206-.162-.45-.334-.712-.525-.672-.481-1.513-1.081-2.216-1.793-.994-1.004-1.612-1.032-2.478-.135-.175.175-3.294 15.291-3.294 15.291s-.778 2.294-1.153 3.431l-.272.825-.087-.866c-.022-.171-.047-.35-.069-.528-.159-1.165 3.634-17.931 3.634-17.931m-486.715 27.234c12.284-9.043 25.09-16.531 38.062-22.253 5.235-2.347 10.803-4.253 16.197-6.097 1.484-.509 2.975-1.015 4.453-1.534 4.816-1.709 9.75-3.3 14.525-4.841l.356-.115.082.106c.609.803 1.49 1.203 2.781 1.256h.103c.881 0 1.45-.472 1.906-1.587.188-.46.416-.91.635-1.341l.134-.262.369-.119c18.659-5.938 37.631-11.394 55.981-16.666 9.047-2.603 18.406-5.297 27.541-7.99 6.315-1.86 12.69-3.788 18.859-5.65 7.266-2.197 14.784-4.466 22.153-6.613l43.116-12.581c7.465-2.209 15.181-4.494 22.447-6.816l.175-.053.059.172c.684 2.053.525 4.013-.466 5.828-.346.628-.881 1.485-1.55 2.569-2.637 4.237-7.043 11.331-7.743 17.062-.1.441-.038.81.187 1.088.288.366.831.566 1.535.566l.462-.007c2.95-.043 5.734-.081 8.388-1.334 1.818-.856 3.812-1.734 6.268-2.769 6.982-2.925 10.472-7.025 12.453-14.609.241-.931.116-2.003.007-2.953-.119-1.022-.21-1.832.162-2.247.375-.425 1.103-.347 2.4.287 3.481 1.141 7.063 2.263 10.528 3.353 1.422.444 2.844.894 4.266 1.341.587.188 1.175.391 1.756.597 1.219.428 2.475.869 3.75 1.116.416.081.822.118 1.2.118 1.994 0 3.341-1.128 3.694-3.1.378-2.084.347-3.856-.081-5.265-1.766-5.785-5.216-10.785-10.263-14.857l-.55-.446.691.115c5.1-2.059 10.194-4.228 15.14-6.45.191-.09.382-.178.575-.269l.725-.337-.071.362c-.266 1.332-.429 2.444-.51 3.491-.025.388-.056.775-.09 1.163-.269 3.29-.547 6.69 1.212 9.781 6.878-1.203 13.081-3.463 18.956-6.903 1.657-.972 3.41-1.853 5.103-2.703 1.144-.579 2.322-1.172 3.463-1.788 1.966-1.066 3.662-2.081 5.184-3.103 8.357-5.631 15.438-11.394 21.647-17.625 4.066-4.078 7.397-8.419 9.9-12.894.813-1.45.731-2.9-.24-4.3-1.072-1.544-2.216-3.044-3.425-4.637-.541-.703-1.091-1.428-1.66-2.182l-.147-.203.238-.084c5.731-2.106 9.069-6.528 12.297-10.806l.781-1.032.103.007c1.694.153 3.028.222 4.194.222 2.706 0 4.594-.388 6.509-1.341 5.685-2.831 8.894-7.856 9.541-14.947.578-6.419-.972-12.766-4.61-18.859l-.106-.175c-.406-.691-.831-1.403-1.562-1.403-.157 0-.328.034-.513.1-1.153.4-1.622 1.284-1.362 2.546.193.96.218 1.807.068 2.597-.034.185-.046.366-.059.56-.05.675-.103 1.437-1.028 2.634-2.678 4.444-6.113 5.809-10.081 7.384-1.007.4-2.044.813-3.1 1.288l-.15.066-.088-.135c-.256-.403-.494-.765-.712-1.097-.457-.684-.844-1.272-1.153-1.89-2.057-4.066-5.079-7.435-7.488-9.91-.694-.718-1.322-1.515-1.925-2.287-.322-.406-.641-.816-.975-1.213-5.019-6.009-9.806-10.922-14.637-15.012-7.432-6.291-15.704-11.975-24.575-16.9-2.791-1.55-5.804-3.119-9.257-3.76-3.856-.718-7.097-1.281-10.39-1.7-2.788-.353-5.582-.534-8.297-.534-7.113 0-14.072 1.231-20.678 3.656-4.472 1.641-7.525 2.885-12.207 6.325-2.878 1.285-6.64 4.075-10.278 6.775-1.575 1.169-3.203 2.375-4.756 3.463l-.075.053-.087-.031c-10.394-3.297-21.575-6.513-35.182-10.125l-.593-.157.578-.196c3.459-1.191 6.815-2.435 9.843-4.538 6.344-4.409 10.375-9.453 12.313-15.416 2.222-6.828 5.237-12.596 9.231-17.625.556-.703 1.125-1.487 1.735-2.4l.075-.112.131.034c12.606 3.413 25.344 6.675 38.828 10.132 3.328.853 6.675 1.709 10.041 2.575 23.109 5.968 44 11.481 65.609 18.515 12.372 4.038 23.269 8.075 33.312 12.338 12.313 5.222 22.891 10.634 32.344 16.54 11.66 7.316 20.975 15.019 28.485 23.541 4.168 4.694 7.846 9.809 10.94 15.212 1.569 2.688 2.916 5.544 4.006 8.485 1.016 2.784 1.757 5.856 2.194 9.131.763 5.706.31 12.038-1.356 18.822-.791 3.15-1.75 6.231-2.847 9.156-.125.319-.247.644-.369.969-.44 1.166-.897 2.372-1.412 3.491-.625 1.487-1.344 2.806-2.103 4.2l-.041.075c-2.878 4.981-6.775 9.94-11.903 15.165-4.45 4.463-9.413 8.769-14.756 12.794-9.807 7.434-21.119 14.378-33.625 20.637-12.838 6.363-24.985 11.082-37.128 14.441-5.11 1.409-10.679 2.791-17.529 4.353l-.084.019-.275-.216c-2.45-1.972-4.987-4.012-8.137-5.325-3.338-1.39-6.125-1.762-8.732-1.181-2.997.669-5.934 1.509-9.037 2.4-1.35.388-2.725.778-4.144 1.172l-.075.022-.066-.041c-.331-.184-.687-.375-1.056-.575-.865-.472-1.85-1.003-2.769-1.587-.512-.328-1.025-.65-1.54-.972-1.788-1.119-3.641-2.272-5.241-3.619-2.778-2.334-6.278-3.656-10.397-3.919-1.059-.065-2.028-.1-2.965-.1-4.282 0-7.716.703-10.81 2.203-1.268.619-2.643 1.116-3.975 1.591-1.534.556-3.122 1.125-4.537 1.884-5.216 2.797-10.425 5.775-15.463 8.657-1.64.937-3.281 1.875-4.925 2.806l-.272.153c-.703.394-1.428.8-1.896 1.338-1.857 2.115-2.672 5.246-2.132 8.175.532 2.878 2.322 5.256 5.044 6.69 1.047.55 2.075 1.131 3.066 1.731l.347.21-.388.125c-3.869 1.259-7.091 2.372-10.131 3.494-6.941 2.568-13.103 5.234-18.838 8.143-6.672 3.375-12.384 6.947-17.459 10.919-5.906 4.634-10.656 9.716-14.109 15.109-.9 1.391-1.741 2.875-2.579 4.538-.081.15-.231.444-.3.619l-.256.593c-.206.563-.35 1.022-.431 1.394-.231.925-.263 1.947-.094 2.953.406 2.366 2.122 4.025 3.11 4.803 1.265 1.007 2.756 1.85 4.687 2.654 2.819 1.146 5.913 2.003 10.028 2.784 3.053.578 6.388 1.044 10.188 1.428 6.04.6 12.531.95 20.428 1.1 2.531.047 5.147.069 7.784.069 9.797 0 20.25-.294 32.888-.919 12.422-.625 25.609-1.525 40.315-2.747 20.213-1.69 41.341-3.815 64.603-6.497l.132-.015.056.118c.037.075.081.15.122.222.069.113.134.228.184.357.272.671.647.912 1.135.725.306-.116.612-.644.693-1.044.022-.1.025-.216.025-.335l.013-.303 2.819-.331c3.184-.369 6.368-.734 9.54-1.119 14.5-1.753 29.394-3.662 45.535-5.834l.125-.019.062.113c.663 1.209 1.153 2.218 1.544 3.178.615 1.5 1.381 2.112 2.622 2.059 1.909-.081 3.1-.684 3.862-1.95.844-1.409 1.669-2.925 2.597-4.769l.047-.087.097-.013c7.4-1.018 14.153-1.968 20.653-2.903 9.737-1.375 9.356-3.937-.369-2.565-6.278.9-12.565 1.781-18.697 2.634l-.337.044.14-.306c2.313-5.075 4.235-10.422 6.094-15.591l.306-.85c.632-1.75.991-3.641 1.341-5.466.163-.853.328-1.737.525-2.597.381-1.696.766-3.396 1.163-5.146l.896-3.947.229.175c3.993 2.993 6.893 6.509 8.871 10.747.966 2.059 1.835 4.203 2.675 6.275.375.921.747 1.84 1.129 2.756.062.144.112.306.162.472.097.318.197.647.378.772.606.406 1.303.65 1.856.65.185-.088.597-1.025.5-1.4l-.325-1.197c-.65-2.432-1.325-4.947-2.312-7.278-.916-2.157-2.038-4.269-3.128-6.316-.553-1.041-1.125-2.116-1.666-3.188-.434-.862-.709-1.581-.872-2.25-.775-3.281-2.362-6.331-4.862-9.318-.763-.91-1.628-1.982-2.278-3.157-.653-1.184-1.435-1.462-2.928-1.062-1.5 5.259-2.641 10.728-3.744 16.019-1.447 6.953-2.947 14.137-5.285 21.009l-.534 1.572.553-5.256c.291-2.725.578-5.45.85-8.178.041-.41.085-.822.125-1.232.169-1.628.347-3.309.363-4.965.072-7.816.078-13.857.009-19.582-.103-8.24 1.109-16.428 3.6-24.331l.05-.169c.369-1.143.653-2.046-.534-2.7-.685-.375-1.575.569-2.035 2.063-.512 1.669-1.034 3.334-1.556 5.003-1.053 3.372-2.144 6.859-3.141 10.309-.209.744-.428 1.482-.646 2.219-1.485 5.05-3.025 10.266-3.097 15.694-.01.494-.072.981-.157 1.597-.043.337-.093.712-.14 1.147l-.106.925-.26-.897c-.55-1.888-1.072-3.735-1.581-5.55-1.172-4.153-2.278-8.081-3.584-11.972-1.107-3.294-1.697-6.709-2.275-10.016l-.222-1.272c-.228-1.309-.557-2.543-.969-3.662-.147-.413-.7-.884-1.072-.919-.378 0-.95.391-1.128.747-.344.681-.525 1.472-.5 2.169.041 1.253.069 2.509.091 3.765.075 3.535.15 7.194.581 10.744 1.1 9.141 2.503 16.541 4.419 23.291 1.675 5.9 3.29 11.681 4.628 17.509.478 2.103.656 4.306.828 6.435.078.953.159 1.934.262 2.896l.019.163-.841.2-.068-.125c-.066-.122-.138-.244-.21-.366-.168-.281-.347-.568-.453-.884-2.869-8.347-7.7-15.841-14.762-22.909-4.285-4.288-9.303-7.129-14.925-8.444-.997-.238-2.132-.372-3.457-.416l-.212-.009.034-.206c.166-1.085.325-2.172.485-3.257.275-1.881.562-3.822.868-5.728.125-.787.029-1.309-.815-1.59-.35.331-.71.665-1.063 1.003-.818.768-1.659 1.568-2.528 2.328-3.775 3.309-7.265 6.34-10.675 9.275-3.753 3.228-6.722 6.44-9.078 9.834-2.95 4.25-4.831 9.05-5.581 14.269-.05.337-.185.647-.335 1.003-.075.172-.153.347-.228.544l-.131.353-.197-.319c-.337-.528-.65-1.047-.959-1.547-.675-1.1-1.313-2.134-1.991-3.137-.175-.256-.347-.522-.519-.791-.578-.915-1.175-1.856-1.993-2.403-4.235-2.844-8.288-4.287-12.394-4.419-1.978-.059-3.984.103-5.931.269-1.663.134-3.378.278-5.072.278-1.953 0-3.66-.194-5.222-.597-.4-.103-.75.022-.931.332-.2.34-.175.821.062 1.256.191.34.406.672.619.997.25.378.509.768.719 1.178.622 1.181 1.234 2.397 1.825 3.572 1.05 2.078 2.131 4.234 3.297 6.287 3.637 6.41 8.59 10.094 15.146 11.263 2.9.515 5.722 1.656 8.604 2.868 1.04.441 2.006 1.06 2.868 1.844l.303.275-.406.047c-22.2 2.55-42.75 4.65-62.825 6.416-14.656 1.262-27.815 2.193-40.234 2.85-13.116.681-23.922 1-34.003 1-2.197 0-4.388-.016-6.51-.047-7.831-.128-14.265-.46-20.25-1.041-3.762-.369-7.034-.819-10.006-1.369-3.916-.731-6.969-1.565-9.612-2.634-1.713-.706-3.079-1.472-4.175-2.334-1.335-1.057-2.157-2.278-2.369-3.535-.122-.756-.1-1.447.069-2.118.081-.357.171-.638.312-1.025l.253-.594c.056-.15.1-.231.16-.347l.09-.175c.803-1.6 1.603-3.022 2.456-4.35 3.313-5.203 7.894-10.125 13.613-14.634 4.944-3.894 10.541-7.41 17.106-10.747 5.653-2.885 11.741-5.528 18.619-8.091 3.55-1.325 7.412-2.647 11.791-4.053l.087-.028.078.05c2.263 1.565 4.178 3.165 5.853 4.887 2.55 2.625 5.785 3.957 9.616 3.957.362 0 .734-.013 1.103-.035.988-.065 1.991-.159 2.959-.253 1.069-.1 2.182-.203 3.279-.269.946-.053 1.946-.084 2.965-.084 4.013 0 8.06.441 11.972.862.613.066 1.228.135 1.844.197 1.419.15 3.025.322 4.575.322 2.278 0 4.087-.365 5.694-1.147l.662-.318c5.406-2.625 11-5.338 14.313-10.36l.059-.094.112.013c.429.041.85.087 1.269.137.938.104 1.822.204 2.725.232.585.015 1.178.047 1.769.078.891.04 1.812.087 2.709.087.978 0 1.819-.056 2.582-.172 6.812-1.034 12.268-3.275 16.678-6.853 2.281-1.853 3.362-3.578 3.603-5.765.184-1.697-.556-2.966-2.335-3.994-1.271-.734-2.565-1.6-4.062-2.725l-.322-.241.391-.09c6.215-1.453 11.275-2.732 15.931-4.025 12.069-3.363 24.647-8.282 37.387-14.622 12.579-6.338 23.963-13.353 33.825-20.863 5.391-4.078 10.397-8.44 14.888-12.968 5.212-5.325 9.169-10.391 12.103-15.491.813-1.488 1.591-2.944 2.197-4.4.534-1.175.978-2.359 1.412-3.503.132-.35.266-.703.4-1.056 1.113-2.988 2.079-6.122 2.872-9.31 1.166-4.806 1.747-9.45 1.716-13.803l-.006-1.219c-.151-3.343-.589-6.574-1.397-9.662l-.288-1.028c-.334-1.178-.637-2.141-.959-3.022-1.144-3.05-2.491-5.894-4.125-8.691-3.144-5.472-6.888-10.653-11.128-15.406-7.603-8.597-17.028-16.353-28.8-23.713-9.516-5.915-20.163-11.337-32.547-16.559-10.003-4.219-20.941-8.237-33.438-12.281-21.643-6.981-42.565-12.444-65.712-18.353-3.353-.853-6.691-1.697-10.006-2.538-13.391-3.39-26.041-6.594-38.566-9.94l-.244-.066.138-.213c1.209-1.912 2.287-3.846 3.469-5.987 1.503-2.738.084-5.447-1.319-7.506-.513-.744-1.347-1.107-2.556-1.107-.866 0-1.763.191-2.36.338-4.134 1.003-7.206 1.978-9.947 3.156-3.284 1.41-6.834 3-10.843 4.866l-.063.031-.062-.019c-5.035-1.368-10.391-2.803-16.857-4.518l-.203-.054.078-.196c1.082-2.66 1.975-4.879 2.794-7.204 1.197-3.4 1.097-6.593-.287-9.49-1.175-2.438-3.038-3.056-5.36-1.803-2.359 1.278-4.834 2.665-6.89 4.393-2.766 2.316-5.491 4.76-8.129 7.125-.684.616-1.368 1.229-2.056 1.844l-.072.066-.1-.028c-2.984-.785-5.956-1.569-8.89-2.353-16.678-4.435-34.394-9.216-50.96-14.119-3.65-1.088-7.265-2.203-10.765-3.281-4.241-1.313-8.25-2.547-12.285-3.725-7.772-2.263-14.743-4.319-21.415-6.6-3.769-1.285-7-2.491-9.875-3.685-2.835-1.194-6.113-2.669-8.991-4.544-1.256-.843-2.662-1.884-3.556-3.231-.86-1.322-1.097-3.009-.638-4.515.375-1.269 1.153-2.547 2.378-3.904.907-.993 1.975-1.946 3.363-3.006 4.816-3.562 9.919-5.997 14.737-8.178 4.175-1.856 8.579-3.603 13.857-5.509 4.918-1.766 9.84-3.403 15.225-5.063-4.125 1.26-9.366 2.931-15.241 5.022-5.294 1.897-9.703 3.634-13.872 5.472-4.831 2.175-9.956 4.594-14.787 8.153-1.391 1.059-2.472 2.016-3.388 3.016-1.259 1.387-2.031 2.647-2.425 3.956-.475 1.522-.231 3.294.638 4.634.953 1.435 2.362 2.457 3.609 3.303 2.878 1.894 6.031 3.322 9.009 4.585 2.872 1.203 6.107 2.425 9.882 3.725 6.631 2.284 13.618 4.365 21.406 6.659 4.028 1.185 8.037 2.435 12.284 3.76 3.494 1.087 7.103 2.212 10.741 3.303 16.587 4.962 34.284 9.79 50.937 14.268 2.744.738 5.519 1.479 8.307 2.225l.334.088-.256.228c-1.391 1.241-2.531 2.238-3.594 3.147-5.216 4.475-8.412 10.062-9.512 16.612-.538 3.207-.754 6.513-.963 9.716-.05.813-.103 1.619-.159 2.428-.107 1.444-.157 2.919-.203 4.347-.066 2.022-.138 4.116-.363 6.159-.109 1-.341 2.035-.725 3.26l-.056.165-.166-.04-29.259-6.878c-16.003-3.869-36.778-9.16-55.55-15.778-9.385-3.325-17.328-6.616-24.291-10.066-8.481-4.213-15.219-8.491-20.59-13.088-6.516-5.531-10.95-11.803-12.819-18.137-2.341-7.175-2.613-14.159-.791-20.197 1.628-5.572 4.975-10.706 9.95-15.256 3.688-3.385 7.931-6.322 13.356-9.238 4.735-2.54 9.341-4.362 12.822-5.665.888-.338 1.772-.669 2.647-.985-.875.313-1.762.641-2.65.978-3.478 1.291-8.078 3.097-12.834 5.635-5.444 2.909-9.7 5.837-13.394 9.215-5 4.547-8.372 9.688-10.022 15.279-3.894 13.278 1.688 29.125 13.575 38.543 5.385 4.625 12.125 8.935 20.619 13.178 6.978 3.479 14.925 6.797 24.3 10.138 18.787 6.678 39.556 12.022 55.553 15.931l29.378 6.985-.072.193c-1.268 3.416-3.478 6.475-5.612 9.432-.528.728-1.056 1.462-1.572 2.2-.934 1.334-8.256 5.743-9.906 6.146-4.588 1.135-8.51 3.11-11.988 6.038-1.972 1.656-2.753 3.653-3.581 5.766-.519 1.334-1.063 2.715-1.931 4.034-1.86 2.828-3.563 5.806-5.207 8.694-2.559 4.484-5.206 9.122-8.537 13.312-1.05 1.316-1.422 3.285-1.55 4.703-.091 1.025.309 2.369 1.081 3.597.616.975 1.41 1.881 2.178 2.76.503.578 1.022 1.168 1.491 1.784.384.503.741.994 1.078 1.469 1.638 2.29 2.931 4.097 6.106 4.678 2.453.453 4.507 1.422 6.741 2.553 1.247.628 2.734 1.331 4.294 1.762 2.087.585 3.962.4 5.468-.54 1.804-1.138 3.419-2.178 4.888-3.422 2.781-2.356 5.216-3.666 7.894-4.247 1.068-.234 2.409-.181 3.915.147 3.26.697 5.275 2.962 6.966 5.309 4.366 6.047 8.519 11.975 12.35 17.625 3.3 4.863 8.175 8.463 15.347 11.332.784.315 1.825.184 3.031.237-.419-1.519-.712-2.597-1-3.647l-.041-.156.15-.063c.1-.043.182-.081.247-.115.116-.06.203-.1.297-.1l.081.009c.357.106.71.231 1.066.353.641.219 1.306.447 1.969.557 5.387.89 15.684 3.884 16.444 6.121 2.053 3.232 4.396 6.544 6.975 9.863 3.171 4.081 6.506 8.162 9.731 12.106.769.941 1.537 1.878 2.306 2.822 1.066 1.309 2.175 2.622 3.247 3.891 2.031 2.403 4.131 4.89 6.022 7.447.384.518.731 1.075 1.069 1.696l.109.197-.216.072c-7.75 2.469-15.868 4.947-24.818 7.581l-40.532 11.735c-7.375 2.131-14.893 4.39-22.159 6.569-6.175 1.856-12.563 3.771-18.881 5.618-9.088 2.666-18.407 5.325-27.419 7.9-17.841 5.094-36.291 10.369-54.459 16.075l-.463.147.372-.64c3.709-6.254 7.816-12.813 13.569-18.282 5.128-4.878 10.643-7.606 16.859-8.343 1.45-.172 1.488-.179 1.544-2.044-.622-.066-1.238-.141-1.86-.219-1.575-.187-3.203-.384-4.815-.462-.485-.022-.928-.035-1.35-.035-1.316 0-2.431.113-3.416.344-4.394 1.031-8.315 3.25-11.656 6.597-5.519 5.522-9.294 11.378-11.538 17.909-.09.25-.225.472-.353.688-.059.1-.118.197-.172.297l-.065.125-.141-.032c-.087-.022-.172-.04-.259-.062l-.325-.081.019-.16c.081-.759.146-1.531.209-2.281.131-1.663.272-3.381.647-5.025 1.044-4.559 2.306-9.088 3.619-13.7 1.5-5.281 2.596-11.069 3.459-18.216.334-2.79.394-5.665.45-8.443.022-.969.041-1.941.072-2.907.019-.537-.122-1.147-.385-1.675-.131-.265-.568-.565-.825-.565-.293.028-.712.39-.821.693-.319.86-.575 1.822-.76 2.86l-.169.962c-.45 2.6-.918 5.288-1.784 7.878-1.025 3.047-1.887 6.119-2.806 9.375-.4 1.416-.806 2.857-1.235 4.332l-.259.887-.103-.922c-.038-.334-.078-.618-.113-.878-.065-.494-.118-.881-.121-1.275-.06-4.231-1.26-8.309-2.422-12.253-.169-.584-.341-1.162-.51-1.744-.775-2.687-1.625-5.406-2.443-8.028-.413-1.319-.825-2.637-1.232-3.953-.347-1.141-1.018-1.872-1.528-1.591-.859.472-.722 1.06-.406 2.06l.044.134c1.95 6.188 2.897 12.597 2.818 19.05-.053 4.435-.05 9.303.007 15.322.015 1.303.153 2.634.287 3.919.035.309.066.619.097.922.219 2.19.447 4.375.681 6.559l.457 4.313-.538-1.569c-1.834-5.388-3.006-11.019-4.141-16.463-.859-4.125-1.75-8.387-2.915-12.49-1.138-.297-1.728-.082-2.225.822-.506.915-1.188 1.753-1.785 2.475-1.953 2.334-3.196 4.715-3.803 7.275-.125.528-.34 1.093-.681 1.765-.419.831-.856 1.653-1.291 2.472-.856 1.606-1.74 3.269-2.459 4.963-.772 1.821-1.3 3.79-1.809 5.693l-.253.932c-.069.259.212.918.35 1.043.453-.009.975-.193 1.434-.503.131-.09.206-.34.278-.581.041-.128.078-.259.128-.375.303-.722.597-1.45.894-2.178.653-1.613 1.331-3.281 2.081-4.885 1.55-3.325 3.825-6.081 6.953-8.425l.228-.171.066.278c.553 2.428 1.059 4.662 1.563 6.897.153.671.284 1.359.412 2.028.269 1.428.553 2.906 1.044 4.272l.269.746c2.028 5.641 4.131 11.479 7.106 16.816l.109.2-.219.069c-4.665 1.497-9.49 3.044-14.325 4.747-1.496.522-2.996 1.028-4.496 1.54-5.382 1.832-10.944 3.722-16.3 6.107-13.107 5.75-26.041 13.281-38.454 22.381"/><path d="m130.513 94.276c-.184.397-.747.659-.978.753-.666.269-1.366.403-2.075.403-.531 0-1.088-.072-1.653-.222-.953-.25-1.953-.431-2.925-.606l-.503-.084c-.935-.166-1.9-.332-2.51-1.422l-.103-.181.191-.082c.112-.053.218-.1.322-.153.228-.112.446-.219.684-.275.428-.094.891-.147 1.337-.147v.188l.013-.188c1.066 0 1.997-.328 2.937-.7.322-.125.66-.212 1.054-.309.178-.044.368-.091.575-.147.006-.025-.004-.044-.01-.053-.028-.059-.144-.128-.375-.131l-.047-.003c-.325 0-.715.084-1.128.24-.672.256-1.581.553-2.64.553-.232 0-.466-.012-.697-.04l-.519-.063.437-.278c.125-.081.247-.162.369-.247.285-.187.572-.387.891-.537.481-.235.978-.45 1.459-.653.36-.157.716-.31 1.069-.472.659-.303 1.319-.272 2.022.106.206.116.415.228.628.344.372.206.744.412 1.125.606 1.5.762 1.662 2.491 1.05 3.8m-3.128-5.491c-.172-.09-.456-.184-.685-.184-.065 0-.118.006-.156.019l-.394.153c-1.75.678-3.556 1.378-5.021 2.512-.172.135-.341.266-.51.4-.287.228-.578.457-.872.678-.39.288-.6.575-.622.85-.015.238.11.494.375.76.588.59 1.175 1.031 1.75 1.309 1.479.719 3.094.866 4.516.997.416.038.809.075 1.166.122 2.143-.028 2.815-.228 3.987-1.166.178-.14.319-.353.35-.515.063-.36.097-.735.128-1.094.032-.294.057-.588.097-.875.125-.891-.281-1.638-1.24-2.275-.997-.663-2.06-1.253-2.869-1.691"/><path d="m351.625 418.028c-.456.978-1.956 1.644-2.409 1.828-1.7.687-3.494 1.034-5.316 1.034-1.365 0-2.794-.193-4.247-.578-2.5-.659-5.118-1.125-7.647-1.575l-1.362-.244c-2.378-.412-4.838-.84-6.366-3.571l-.103-.182.188-.081c.309-.134.597-.275.872-.409.581-.288 1.131-.553 1.718-.688 1.091-.247 2.263-.375 3.394-.375h.041c2.875 0 5.443-.919 7.837-1.862.835-.328 1.735-.55 2.772-.807.497-.121 1.025-.253 1.603-.409.103-.187.11-.372.025-.537-.159-.307-.625-.497-1.244-.513h-.121c-1.138 0-2.3.353-3.072.65-2.585.988-4.685 1.428-6.81 1.428-.597 0-1.197-.034-1.797-.106l-.521-.063.443-.281c.335-.209.66-.428.985-.65.725-.487 1.475-.994 2.287-1.387 1.241-.597 2.538-1.157 3.794-1.694.928-.4 1.887-.813 2.816-1.238 1.65-.759 3.284-.675 5.021.266.541.291 1.082.588 1.619.888.978.537 1.981 1.09 2.991 1.606 2.272 1.159 3.053 3.053 3.309 4.437.303 1.647.05 3.507-.7 5.113m-7.784-14.516c-.485-.262-1.266-.525-1.922-.525-.213 0-.384.028-.525.081l-1.016.394c-4.603 1.781-9.362 3.625-13.247 6.628-.465.36-.931.725-1.39 1.094-.722.569-1.466 1.163-2.219 1.725-1.1.816-1.684 1.641-1.747 2.45-.05.716.303 1.463 1.06 2.222 1.559 1.566 3.128 2.737 4.668 3.487 3.925 1.9 8.178 2.291 11.935 2.635 1.09.103 2.122.2 3.065.325 5.71-.075 7.503-.603 10.647-3.122.528-.419.938-1.034 1.022-1.531.172-.972.263-1.966.353-2.935.069-.731.141-1.49.241-2.237.344-2.466-.763-4.506-3.381-6.247-2.613-1.734-5.404-3.284-7.544-4.444"/><path d="m171.968 318.034c-5.331.956-9.291 4.1-12.113 9.603-.84 1.641-1.493 3.394-2.181 5.247-.328.884-.669 1.797-1.044 2.741l-.246.622-.11-.663c-.044-.266-.09-.491-.134-.687-.075-.363-.138-.654-.11-.935.054-.584.104-1.162.15-1.747.141-1.706.288-3.472.616-5.175 1.369-7.128 5.322-12.15 11.75-14.922 1.116-.481 1.853-.409 2.75.216 1.194.831 2.456 1.603 3.678 2.353.663.403 1.322.806 1.972 1.219.181.116.313.281.45.459.059.078.122.16.194.238l.212.24-.312.066c-.638.131-1.25.263-1.856.388-1.26.268-2.454.521-3.666.737m2.037 5.309c.241.157.491.294.741.438.969.55 1.969 1.119 2.706 2.522l.166.306-.35-.037c-6.628-.729-11.894 1.809-16.238 7.809l-.178.253-.137-.275c-.538-1.1-.069-1.806.278-2.328l.103-.153c1.878-2.963 3.981-6.035 7.156-8.213 2.172-1.487 3.838-1.559 5.753-.322m5.832 5.897c.334.107.659.338.834.591 1.356 2.028 2.419 4.35 3.344 7.312l.137.441-.403-.219c-3.712-2.037-7.312-3.065-10.7-3.065-4.987 0-9.619 2.131-14.165 6.515l-.444.428.131-.603c.406-1.859 1.503-3.075 2.466-4.15l.037-.04c1.856-2.063 3.694-4.047 5.791-5.7 2.131-1.678 4.512-2.494 7.275-2.494 1.731 0 3.594.322 5.697.984m-24.463-2.937-.209.947-.156-.957c-.082-.515-.172-1.034-.269-1.55-.425-2.4-.869-4.884-.372-7.418.556-2.825 1.584-5.185 3.147-7.207.878-1.14 2.231-1.612 3.925-1.387 1.197.162 2.381.528 3.631.922.578.178 1.175.365 1.813.544l.35.096-.288.232c-.694.543-1.384 1.056-2.053 1.55-2.144 1.587-4.166 3.087-5.606 5.231-1.916 2.85-3.197 5.791-3.913 8.997m-2.137-12.875-.078-.431c-.735-4.063-.816-8.179-.891-12.154-.025-1.196-.05-2.396-.091-3.59l-.022-.622.36.503c.244.341.487.678.731 1.019 2.028 2.809 3.944 5.465 4.588 8.675l.015.078zm.593 29.075-.015.837-.725-1.618c-.3-.672-.6-1.347-.91-2.013-.528-1.147-1.05-2.319-1.553-3.456-1.128-2.544-2.293-5.178-3.653-7.647-3.328-6.059-8.484-9.134-15.331-9.141-1.428 0-2.875-.184-4.272-.359-.641-.081-1.278-.163-1.916-.225l-.121-.013-.257-.846.132-.072c.203-.11.4-.241.6-.366.443-.275.903-.569 1.406-.706.681-.194 1.362-.394 2.044-.6 2.118-.631 4.309-1.285 6.515-1.528 3.819-.425 6.766.322 9.122 2.29l.575.475c1.625 1.35 3.309 2.744 4.584 4.563 1.469 2.084 2.435 4.64 3.038 8.053.756 4.259.797 8.647.737 12.372m-5.34-3.888c-.591-.293-1.131-.572-1.641-.834-1.044-.541-1.95-1.006-2.884-1.391-3.76-1.562-7.544-1.784-11.219-.659-.659.203-1.609.575-2.384 1.203-.288.231-.578.456-.866.691-2.025 1.609-4.122 3.272-5.547 5.543-.112.182-.278.316-.469.469-.1.081-.209.172-.331.281l-.29.266-.022-.394c-.182-3.422.953-6.225 3.368-8.343 1.91-1.672 4.032-3.135 6.31-4.347 1.003-.535 2.047-.797 3.19-.797 1.879 0 3.729.712 5.516 1.406l.584.222c3.041 1.156 5.244 3.203 6.932 6.431l.265.51zm-23.047-5.668c1.15-2.782 2.341-5.66 4.919-7.707 1.512-1.206 3.247-1.478 5.428-.834 3.709 1.094 6.49 3.541 8.94 6.022l.097.097-.368.665-.144-.043c-.453-.132-.928-.247-1.385-.36-1.018-.244-2.068-.494-3-.969-1.39-.7-2.743-1.04-4.143-1.04-2.125 0-4.335.803-6.957 2.534-.184.122-.365.244-.546.366-.8.537-1.625 1.094-2.594 1.515l-.422.182zm6.962-19.963c.222-.081.441-.172.663-.262.475-.2.966-.404 1.478-.475 1.591-.225 3.688-.482 5.809-.482 2.104 0 3.994.247 5.785.753 2.897.819 4.469 2.275 5.106 4.719.231.903.541 1.81.838 2.681.134.4.271.8.4 1.204l.046.146-.134.075c-.141.075-.281.15-.422.229l-.125.065-1.309-1.4c-.722-.769-1.444-1.544-2.163-2.315-3-3.235-6.534-4.875-10.5-4.875-.293 0-.59.009-.89.028-.985.056-1.978.256-2.941.453-.447.09-.891.178-1.337.256l-.141.022-.356-.753zm11.775-3.122c.05-5.653 2.569-10.284 5.372-14.925l.066-.112.744.15.009.143.991 17.225-7.182-2.343zm33.21 9.097c.703 0 1.359.069 2.009.219.091.022.194.031.316.031.537 0 1.137-.206 1.281-.45.228-.381.131-1.284-.187-1.719-.744-1.022-1.657-2.181-2.791-3.009-6.313-4.609-11.981-6.938-17.844-7.328l-.112-.006-.044-.104c-.275-.609-.528-1.212-.778-1.8-.538-1.262-1.044-2.453-1.66-3.59-1.693-3.131-3.515-6.256-5.278-9.278l-.347-.597c-.168-.294-.431-.544-.762-.86-.128-.125-.269-.256-.416-.406-2.259 3.41-4.093 6.291-5.393 9.46-.938 2.281-1.66 4.593-2.422 7.046-.338 1.082-.675 2.166-1.035 3.257l-.043.128-.632.003c-.093 0-.197 0-.297-.003-.296-.006-.584-.01-.875-.01-4.196 0-7.5.813-10.4 2.557l-1.618.972c-2.397 1.44-4.872 2.925-7.269 4.446-.394.25-.778.947-.734 1.332.028.259.496.653 1.131.956.306.144.678.178 1.075.209.156.013.312.028.465.044 2.238.297 4.479.591 6.719.884l2.844.372-.363.275c-.362.275-.75.544-1.121.8-.794.55-1.616 1.122-2.254 1.819-3.171 3.478-5.118 7.163-5.959 11.266-.15.731-.303 1.462-.462 2.19-.307 1.432-.625 2.913-.882 4.382-.197 1.153-.309 2.35-.415 3.506-.032.359-.066.719-.103 1.075-.054.55.009.925.193 1.131.119.128.288.191.525.191.341-.01.782-.328 1.247-.878.713-.838 1.416-1.716 2.094-2.56 1.225-1.534 2.491-3.115 3.881-4.537 2.372-2.425 5.431-3.703 8.847-3.703 2.997 0 5.5.953 7.075 1.746 4.475 2.272 7.628 5.738 9.375 10.313.309.809.622 1.434 1.3 1.216.525-.166 1.056-.875 1.288-1.46 2.656-6.706 6.625-10.5 12.49-11.94 1.519-.372 2.988-.563 4.372-.563 2.828 0 5.381.75 7.803 2.297.406.259.806.522 1.21.781.815.531 1.659 1.081 2.506 1.588.253.147.569.228.962.325.163.04.338.084.528.137.038-.24.082-.472.129-.694.109-.54.206-1.006.081-1.365-.15-.435-.294-.872-.438-1.303-.965-2.875-1.968-5.85-3.684-8.453-2.019-3.072-3.941-5.741-7.041-7.382-.684-.362-1.343-.765-2.04-1.197-.322-.193-.653-.4-1-.606l-.388-.231.438-.109c1.603-.4 3.256-.813 4.903-.813"/></g></svg>