<?xml version="1.0" encoding="UTF-8" standalone="no"?><!DOCTYPE svg PUBLIC "-//W3C//DTD SVG 1.1//EN" "http://www.w3.org/Graphics/SVG/1.1/DTD/svg11.dtd"><svg width="100%" height="100%" viewBox="0 0 492 456" version="1.1" xmlns="http://www.w3.org/2000/svg" xmlns:xlink="http://www.w3.org/1999/xlink" xml:space="preserve" xmlns:serif="http://www.serif.com/" style="fill-rule:evenodd;clip-rule:evenodd;stroke-linejoin:round;stroke-miterlimit:2;"><rect x="0" y="0" width="491.763" height="455.1" style="fill:none;"/><g><clipPath id="_clip1"><rect x="0" y="0" width="491.763" height="455.1"/></clipPath><g clip-path="url(#_clip1)"><path d="M298.003,219.407c-1.547,-0.475 -3.147,-0.706 -4.882,-0.706c-2.6,0 -5.112,0.506 -7.775,1.041l-0.937,0.187c0.378,1.191 1.028,1.294 1.712,1.294c0.16,0 0.322,-0.01 0.488,-0.016l0.697,-0.028c2.687,-0.109 5.465,-0.219 8.194,-0.144c1.284,0.041 2.053,-0.168 2.503,-1.628" style="fill:#9aa1ab;fill-rule:nonzero;"/><path d="M279.054,225.853c-0.094,0 -0.19,0.009 -0.275,0.015c-4.603,0.316 -8.95,1.997 -13.331,5.128c-0.003,0.057 0.006,0.188 0.016,0.31c0.012,0.14 0.028,0.315 0.037,0.525c0.122,-0.003 0.241,-0.007 0.359,-0.007c0.135,0 0.269,0.004 0.404,0.004c0.559,0.012 1.115,0.031 1.528,-0.179c3.703,-1.84 7.381,-3.5 11.662,-3.509c0.341,0 1.05,-0.744 1.06,-1.106c0.009,-0.238 -0.488,-0.603 -0.85,-0.869c-0.122,-0.094 -0.244,-0.181 -0.35,-0.266c-0.016,-0.012 -0.075,-0.046 -0.26,-0.046" style="fill:#9aa1ab;fill-rule:nonzero;"/><path d="M292.131,214.772c0.909,-0.019 1.809,-0.038 2.703,-0.038c2.2,0 3.872,0.116 5.419,0.375c0.387,0.059 0.859,-0.144 1.472,-0.412c0.244,-0.113 0.512,-0.232 0.803,-0.344c-2.353,-1.635 -7.078,-2.241 -13.981,-1.781l-0.307,0.018c-1.443,0.088 -2.937,0.178 -4.081,1.913c1.525,0.209 3.144,0.306 5.203,0.306c0.932,0 1.853,-0.019 2.769,-0.037" style="fill:#9aa1ab;fill-rule:nonzero;"/><path d="M309.059,211.876c0.019,0.015 0.097,0.025 0.144,0.031c0.037,0.003 0.075,0.009 0.109,0.016c0.569,0.106 1.141,0.209 1.71,0.306c3.318,0.594 6.75,1.2 9.709,3.072c0.234,0.15 0.409,0.212 0.484,0.212l0,0.178l0.007,-0.178c0.49,-0.231 0.975,-0.515 1.45,-0.787c0.122,-0.069 0.243,-0.141 0.362,-0.21c-0.078,-0.131 -0.147,-0.275 -0.219,-0.415c-0.19,-0.385 -0.387,-0.782 -0.65,-0.869c-3.215,-1.069 -6.396,-2.056 -9.765,-3.094c-0.981,-0.3 -1.969,-0.606 -2.96,-0.915l-1.787,1.312l0.253,0.244c0.381,0.372 0.763,0.74 1.153,1.097" style="fill:#9aa1ab;fill-rule:nonzero;"/><path d="M164.063,220.838l-0.335,0.388l0.007,-0.509c0.031,-2.607 -1.422,-3.382 -2.957,-4.204l-0.656,-0.35l0.55,-0.084c0.597,-0.094 1.169,-0.141 1.697,-0.141c1.603,0 2.691,0.444 3.062,1.254c0.41,0.893 -0.053,2.121 -1.368,3.646m-6.8,2.288c-0.522,0.547 -1.247,0.862 -1.985,0.862c-0.69,0 -1.359,-0.275 -1.931,-0.793c-0.669,-0.8 -0.847,-1.707 -0.509,-2.513c0.362,-0.856 1.231,-1.44 2.272,-1.525c0.096,-0.006 0.187,-0.012 0.278,-0.012c1.447,0 2.493,0.94 2.556,2.278c0.028,0.609 -0.213,1.212 -0.681,1.703m14.381,-7.497c-3.116,-0.834 -5.025,-1.125 -7.894,-1.428c-1.015,-0.069 -1.778,-0.103 -2.465,-0.103c-2.075,0 -3.585,0.297 -5.388,1.069c-2.419,1.028 -4.378,2.796 -5.375,4.859c-1.819,3.766 -2.562,8.925 -1.372,9.516c0.269,0.134 0.525,0.203 0.76,0.203c0.978,0 1.54,-1.222 1.837,-2.25l0.044,-0.144l0.15,0.009c0.528,0.05 1.044,0.103 1.55,0.163c1.075,0.115 2.087,0.228 3.106,0.228c2.153,0 3.856,-0.538 5.519,-1.741c2.997,-2.162 4.7,-4.687 5.528,-8.181l0.037,-0.153l0.157,0.009c0.359,0.019 0.75,0.053 1.15,0.091c0.643,0.056 1.312,0.119 1.918,0.119c1.082,0 1.719,-0.191 2.013,-0.597c0.141,-0.431 0.147,-0.753 0.025,-0.985c-0.194,-0.356 -0.725,-0.525 -1.3,-0.684" style="fill:#9aa1ab;fill-rule:nonzero;"/><path d="M317.909,221.394l0.003,0c0.322,0 0.694,-0.041 1.119,-0.087c0.259,-0.032 0.544,-0.063 0.859,-0.091c-2.187,-1.684 -9.128,-4.197 -11.24,-4.197c-0.528,0.003 -1.069,0.172 -1.694,0.369c-0.212,0.065 -0.441,0.14 -0.687,0.209c1.925,1.335 6.568,2.913 11.131,3.753c0.153,0.032 0.322,0.044 0.509,0.044" style="fill:#9aa1ab;fill-rule:nonzero;"/><path d="M290.19,227.433c0.156,0.135 0.278,0.247 0.378,0.338c0.128,0.119 0.263,0.241 0.307,0.247c1.575,-0.01 3.128,-0.056 4.809,-0.519c1.925,-0.525 4.009,-0.622 6.028,-0.712c0.838,-0.041 1.7,-0.075 2.538,-0.147c0.253,-0.022 0.518,-0.019 0.787,-0.013c1.028,0.019 2.134,0.069 3.031,-1.619c-1.697,-0.134 -3.665,-0.265 -5.64,-0.265c-4.9,0 -8.691,0.828 -12.238,2.69" style="fill:#9aa1ab;fill-rule:nonzero;"/><path d="M351.824,380.412c-2.385,0.441 -4.775,0.194 -7.888,-0.834c-0.734,-0.241 -1.325,-0.354 -1.875,-0.354c-0.666,0 -1.237,0.172 -1.744,0.516c1.728,1.534 5.635,2.675 9.241,2.675c1.766,0 3.212,-0.287 4.094,-0.809c-0.144,-0.982 -0.772,-1.385 -1.828,-1.194" style="fill:#9aa1ab;fill-rule:nonzero;"/><path d="M265.947,224.287c0.416,0 0.847,-0.147 1.325,-0.325c2.906,-1.09 5.881,-2.165 8.753,-3.206l2.072,-0.747c0.694,-0.253 1.066,-0.528 1.197,-0.887c0.128,-0.347 0.044,-0.804 -0.266,-1.394c-4.593,1.1 -9.887,2.637 -14.575,5.687c0.613,0.778 1.141,0.872 1.494,0.872" style="fill:#9aa1ab;fill-rule:nonzero;"/><path d="M206.761,263.749c0.15,0.116 0.3,0.232 0.447,0.35c1.316,-1.325 0.572,-2.246 -0.288,-3.315l-0.062,-0.078c-0.503,-0.625 -1.003,-1.257 -1.503,-1.888c-1.278,-1.615 -2.603,-3.287 -4,-4.85c-2.266,-2.531 -4.603,-4.875 -8.253,-5.781c-0.372,0.534 -0.519,0.981 -0.444,1.356c0.106,0.516 0.647,0.903 1.212,1.244c0.194,0.112 0.385,0.222 0.579,0.337c1.05,0.613 2.137,1.244 2.925,2.107c1.806,1.975 3.562,4.043 5.262,6.04c0.981,1.16 1.969,2.316 2.963,3.463c0.328,0.372 0.731,0.684 1.162,1.015" style="fill:#9aa1ab;fill-rule:nonzero;"/><path d="M225.7,274.934l-0.178,-0.053c-4.418,-1.356 -9.422,-2.891 -12.587,-7.075c-0.241,-0.322 -0.816,-0.484 -1.425,-0.653c-0.25,-0.072 -0.51,-0.144 -0.763,-0.231c-0.456,2.04 -0.05,3.318 1.344,4.243c0.431,0.288 0.863,0.585 1.294,0.878c1.3,0.897 2.64,1.825 4.081,2.507c2.966,1.406 6.591,2.85 11.003,2.918c-0.35,-1.793 -1.475,-2.137 -2.769,-2.534" style="fill:#9aa1ab;fill-rule:nonzero;"/><path d="M310.665,385.182c-0.497,-0.066 -1.016,-0.091 -1.516,-0.119c-0.728,-0.04 -1.472,-0.075 -2.188,-0.225c-2.425,-0.503 -4.656,-0.122 -6.618,1.128c-1.338,0.85 -2.7,1.232 -4.085,1.163l-0.472,-0.031c-2.659,-0.157 -5.412,-0.319 -8.059,-0.775c-3.566,-0.616 -7.134,-1.466 -10.587,-2.285l-0.741,-0.178c-1.091,-0.259 -1.584,-0.062 -1.903,0.816c0.856,1.031 2.137,1.222 3.494,1.425c0.29,0.043 0.578,0.084 0.859,0.134c1.772,0.319 3.631,0.691 5.537,1.1c0.813,0.178 1.619,0.375 2.432,0.569c0.893,0.215 1.818,0.44 2.737,0.631c1.003,0.213 2.175,0.438 3.331,0.488c0.263,0.012 0.525,0.025 0.791,0.04c0.656,0.035 1.334,0.072 1.994,0.072l0.003,0c1.278,0 2.925,-0.119 4.281,-1.034c1.538,-1.035 3.21,-1.541 5.106,-1.541c1.1,0 2.272,0.163 3.688,0.509c0.797,0.191 1.459,0.282 2.094,0.282c0.765,0 1.506,-0.135 2.253,-0.413c-0.222,-1.359 -1.278,-1.609 -2.431,-1.756" style="fill:#9aa1ab;fill-rule:nonzero;"/><path d="M290.596,273.192c-1.041,-0.238 -2.087,-0.46 -3.137,-0.685c-2.829,-0.597 -5.76,-1.215 -8.479,-2.219c-0.812,-0.296 -1.378,-0.421 -1.9,-0.421c-0.793,0 -1.525,0.306 -2.481,1.046c4.516,2.344 9.235,3.216 13.797,4.057l0.503,0.093c0.241,0.044 0.488,0.094 0.735,0.147c0.853,0.169 1.731,0.35 2.581,0.35c1.028,0 1.85,-0.259 2.584,-0.815c0.028,-0.238 0.056,-0.469 0.081,-0.707c-0.443,-0.087 -0.89,-0.168 -1.34,-0.253c-0.966,-0.178 -1.969,-0.365 -2.944,-0.593" style="fill:#9aa1ab;fill-rule:nonzero;"/><path d="M306.749,270.247c0.225,-0.035 0.456,-0.241 0.841,-0.588c0.171,-0.153 0.371,-0.337 0.615,-0.537c-1.656,-0.172 -3.275,-0.338 -4.862,-0.5c-5.085,-0.522 -9.882,-1.013 -14.669,-1.45c-0.625,-0.057 -1.3,0.103 -1.953,0.256c-0.285,0.065 -0.578,0.137 -0.869,0.187l-0.331,0.785c0.147,0.053 0.294,0.109 0.44,0.165c0.447,0.175 0.872,0.338 1.316,0.391c1.378,0.169 2.778,0.366 4.131,0.562c3.547,0.504 7.21,1.025 10.847,1.025c1.588,0 3.063,-0.1 4.494,-0.296" style="fill:#9aa1ab;fill-rule:nonzero;"/><path d="M315.901,273.457c-0.944,-0.053 -1.887,-0.106 -2.831,-0.166c-3.456,-0.203 -7.025,-0.415 -10.541,-0.506l-0.003,0c-0.537,0 -1.069,0.319 -1.631,0.65c-0.225,0.131 -0.453,0.269 -0.685,0.384l0.207,0.644c0.215,0.097 0.437,0.203 0.647,0.313c0.512,0.259 0.996,0.503 1.487,0.525c3.925,0.162 8.069,0.262 13.028,0.309l0.038,0.188c0.003,0 0.003,-0.004 0.003,-0.004l0,-0.184c0.628,0 1.081,-0.153 1.35,-0.469c0.269,-0.315 0.359,-0.793 0.278,-1.425c-0.134,-0.028 -0.266,-0.059 -0.391,-0.087c-0.35,-0.085 -0.65,-0.15 -0.956,-0.172" style="fill:#9aa1ab;fill-rule:nonzero;"/><path d="M267.449,236.378c-5.822,0.406 -9.447,2.635 -10.779,6.619c0.335,0.403 0.685,0.6 1.063,0.6c0.503,0 1.034,-0.341 1.55,-0.672l0.181,-0.116c0.744,-0.471 1.475,-0.946 2.21,-1.425c1.415,-0.921 2.881,-1.871 4.365,-2.743c1.128,-0.663 1.797,-1.157 1.41,-2.263" style="fill:#9aa1ab;fill-rule:nonzero;"/><path d="M279.18,265.413c0.218,-1.085 -0.397,-1.3 -1.479,-1.582c-0.171,-0.047 -0.35,-0.093 -0.521,-0.147c-0.944,-0.29 -1.9,-0.615 -2.822,-0.931c-1.297,-0.44 -2.638,-0.897 -3.978,-1.265c-0.538,-0.15 -1.129,-0.172 -1.682,-0.172l-0.853,0.006c-0.14,0 -0.281,0 -0.419,-0.006c-0.062,0.209 -0.125,0.412 -0.187,0.618c0.284,0.163 0.566,0.332 0.847,0.497c0.719,0.428 1.462,0.866 2.228,1.228c0.347,0.169 0.753,0.275 1.147,0.382c0.553,0.14 1.128,0.293 1.575,0.615c1.169,0.847 2.353,1.263 3.615,1.263c0.807,0 1.638,-0.166 2.529,-0.506" style="fill:#9aa1ab;fill-rule:nonzero;"/><path d="M198.802,266.038c0.06,-0.328 0.128,-0.622 0.188,-0.89c0.125,-0.529 0.225,-0.944 0.09,-1.147c-1.628,-2.488 -3.362,-4.975 -5.203,-7.616c-0.55,-0.791 -1.118,-1.609 -1.706,-2.45c-0.147,0.363 -0.297,0.684 -0.422,0.953c-0.194,0.416 -0.415,0.894 -0.344,0.991c0.813,1.094 1.466,2.256 2.154,3.484c1.318,2.353 2.681,4.788 5.243,6.675" style="fill:#9aa1ab;fill-rule:nonzero;"/><path d="M198.302,274.314c-1.135,-1.793 -2.307,-3.65 -3.563,-5.403c-0.2,-0.281 -0.722,-0.425 -1.222,-0.562c-0.178,-0.053 -0.356,-0.1 -0.528,-0.156c-0.044,0.171 -0.103,0.346 -0.159,0.521c-0.16,0.463 -0.322,0.95 -0.169,1.185c1.334,2.062 2.747,4.031 4.241,6.115c0.462,0.644 0.931,1.294 1.397,1.95c0.718,-0.34 1.118,-0.69 1.234,-1.068c0.087,-0.303 0.003,-0.641 -0.288,-1.091c-0.315,-0.5 -0.628,-0.994 -0.943,-1.491" style="fill:#9aa1ab;fill-rule:nonzero;"/><path d="M213.67,277.861c-3.278,-1.732 -6.646,-3.747 -9.125,-6.763c-0.284,-0.34 -0.756,-0.584 -1.256,-0.837c-0.172,-0.088 -0.353,-0.178 -0.528,-0.275c-0.253,2.093 -0.166,2.678 1.825,4.437c3.284,2.9 6.35,5.369 10.591,6.185c0.597,-1.541 -0.191,-2.054 -1.507,-2.747" style="fill:#9aa1ab;fill-rule:nonzero;"/><path d="M189.172,259.462c-0.597,-1.119 -1.306,-2.216 -1.993,-3.275c-0.36,-0.563 -0.725,-1.119 -1.072,-1.688c-0.26,-0.422 -0.7,-0.925 -1.319,-0.925c-0.263,0 -0.544,0.091 -0.831,0.272c-0.357,0.219 -0.566,0.484 -0.625,0.784c-0.069,0.372 0.081,0.816 0.443,1.313c0.572,0.778 1.135,1.559 1.697,2.344c0.975,1.356 1.982,2.756 3.013,4.103c0.162,0.215 0.515,0.347 0.859,0.475c0.138,0.053 0.278,0.106 0.406,0.162c0.188,-0.109 0.372,-0.222 0.56,-0.331c-0.1,-0.309 -0.194,-0.625 -0.288,-0.941c-0.231,-0.778 -0.468,-1.581 -0.85,-2.293" style="fill:#9aa1ab;fill-rule:nonzero;"/><path d="M338.396,224.809c-2.838,-1.291 -5.728,-2.584 -8.528,-3.837l-1.85,-0.825c-0.157,-0.075 -0.322,-0.157 -0.491,-0.244c-0.434,-0.228 -0.891,-0.463 -1.281,-0.463c-0.335,0 -0.591,0.178 -0.806,0.557c-0.157,0.268 -0.207,0.496 -0.147,0.69c0.112,0.375 0.622,0.631 1.115,0.878c0.21,0.107 0.428,0.213 0.61,0.332c0.228,0.146 0.49,0.243 0.768,0.346c0.175,0.063 0.354,0.132 0.519,0.207c0.775,0.353 1.547,0.712 2.319,1.072c1.662,0.768 3.381,1.568 5.094,2.309l0.175,0.081c0.609,0.266 1.234,0.544 1.875,0.544c0.618,0 1.193,-0.266 1.747,-0.809c-0.144,-0.116 -0.272,-0.222 -0.391,-0.319c-0.272,-0.228 -0.491,-0.41 -0.728,-0.519" style="fill:#9aa1ab;fill-rule:nonzero;"/><path d="M315.923,228.114c-0.016,0.247 0.334,0.716 0.593,0.8l0.244,0.072c1.922,0.591 3.913,1.197 5.913,1.566c0.5,0.09 1.112,-0.107 1.693,-0.297c0.241,-0.078 0.485,-0.16 0.732,-0.222c0.022,-0.15 0.047,-0.3 0.072,-0.453c-2.6,-1.416 -5.5,-2.153 -8.616,-2.182c-0.175,0 -0.622,0.469 -0.631,0.716" style="fill:#9aa1ab;fill-rule:nonzero;"/><path d="M36.908,33.583c0.066,0 0.128,-0.01 0.178,-0.025c0.381,-0.11 0.769,-0.191 1.147,-0.275c0.278,-0.056 0.556,-0.119 0.831,-0.188c0.172,-0.043 0.344,-0.059 0.513,-0.072c0.337,-0.028 0.625,-0.05 0.865,-0.284c0.116,-0.106 0.275,-0.119 0.416,-0.131c0.044,0 0.084,-0.003 0.122,-0.006l0.24,-0.041c0.585,-0.091 1.141,-0.181 1.625,-0.5c0.254,-0.169 0.513,-0.328 0.772,-0.491c0.219,-0.134 0.438,-0.268 0.653,-0.409c0.357,-0.231 0.56,-0.5 0.594,-0.778c0.031,-0.278 -0.1,-0.578 -0.381,-0.872c-0.172,-0.181 -0.406,-0.347 -0.691,-0.494c-0.462,-0.228 -0.931,-0.447 -1.4,-0.665c-0.278,-0.132 -0.556,-0.26 -0.837,-0.394c-0.363,-0.172 -0.728,-0.356 -1.081,-0.547c-0.15,-0.078 -0.297,-0.159 -0.441,-0.244c-0.209,-0.122 -0.422,-0.24 -0.641,-0.344c-0.55,-0.256 -0.965,-0.696 -1.268,-1.337c-0.488,-1.034 0.037,-1.841 0.612,-2.497l0.125,-0.144c0.363,-0.409 0.738,-0.834 1.278,-1.153c0.363,-0.209 0.688,-0.469 1.031,-0.744c0.547,-0.434 1.113,-0.881 1.822,-1.118c0.266,-0.088 0.51,-0.222 0.769,-0.366c0.534,-0.287 1.091,-0.591 1.806,-0.484c0.182,0.025 0.513,-0.107 0.619,-0.25c0.053,-0.075 0.019,-0.388 -0.091,-0.603c-0.09,-0.185 -0.281,-0.229 -0.509,-0.122c-0.159,0.068 -0.328,0.115 -0.487,0.156c-0.119,0.031 -0.235,0.062 -0.344,0.106l-0.485,0.178c-0.546,0.203 -1.112,0.41 -1.643,0.663c-0.566,0.269 -1.091,0.619 -1.528,0.931c-0.229,0.163 -0.466,0.316 -0.704,0.466c-0.562,0.365 -1.143,0.74 -1.615,1.243c-0.691,0.738 -1.475,1.575 -1.85,2.672c-0.222,0.657 -0.11,1.344 0.356,2.163c0.216,0.378 0.656,0.669 1.078,0.95c0.116,0.075 0.231,0.153 0.341,0.231c0.137,0.091 0.269,0.191 0.4,0.288c0.412,0.312 0.803,0.609 1.319,0.746c0.537,0.147 1.04,0.425 1.521,0.7c0.129,0.072 0.254,0.141 0.379,0.21c0.19,0.106 0.409,0.34 0.453,0.59c0.043,0.219 -0.141,0.563 -0.357,0.657l-0.228,0.1c-0.759,0.334 -1.547,0.681 -2.356,0.931c-0.394,0.122 -0.816,0.153 -1.225,0.184c-0.175,0.013 -0.35,0.025 -0.525,0.047l-0.172,0.016l-0.006,-0.038c-0.069,0 -0.134,-0.003 -0.2,-0.015l-0.094,-0.013c-0.365,-0.053 -0.55,-0.078 -0.556,-0.272c-0.013,-0.225 -0.013,-0.572 0.106,-0.868c0.069,-0.169 0.163,-0.319 0.26,-0.463c0.087,-0.134 0.171,-0.262 0.221,-0.397c0.029,-0.072 0.007,-0.197 -0.012,-0.319c-0.003,-0.012 -0.003,-0.021 -0.006,-0.031c-0.01,0.003 -0.022,0.003 -0.032,0.003c-0.115,0.007 -0.25,0.016 -0.3,0.057c-0.271,0.231 -0.528,0.496 -0.778,0.746c-0.147,0.157 -0.297,0.307 -0.45,0.454c-0.381,0.371 -0.559,0.856 -0.556,1.525c0,0.421 0.797,0.981 1.397,0.981" style="fill:#9aa1ab;fill-rule:nonzero;"/><path d="M45.049,22.41c-0.463,0.288 -0.879,0.688 -1.279,1.075l-0.393,0.375c-0.091,0.082 -0.135,0.166 -0.135,0.257c0,0.162 0.141,0.375 0.41,0.615c0.209,0.188 0.325,0.172 0.512,-0.09l0.069,-0.094c0.184,-0.26 0.372,-0.528 0.637,-0.703c0.063,-0.044 0.132,-0.072 0.197,-0.103c0.169,-0.079 0.185,-0.085 0.141,-0.241c-0.072,-0.272 0.391,-0.541 0.406,-0.553c0.578,-0.338 1.156,-0.653 1.713,-0.941c0.031,-0.019 0.287,-0.144 0.484,-0.144c0.088,0 0.159,0.029 0.209,0.079c0.172,0.159 0.235,0.459 0.222,0.662c-0.015,0.25 -0.056,0.491 -0.097,0.728c-0.028,0.153 -0.053,0.306 -0.071,0.46c-0.019,0.137 -0.007,0.278 0.009,0.425c0.022,0.212 0.044,0.453 -0.028,0.721c-0.166,0.629 -0.191,1.322 -0.216,1.991l-0.009,0.294c-0.013,0.315 0.05,0.647 0.112,0.969l0.032,0.165c0.059,0.322 0.134,0.635 0.212,0.953l0.075,0.307c0.034,0.15 0.113,0.206 0.291,0.206c0.081,0 0.162,-0.01 0.228,-0.022c0.1,-0.013 0.206,-0.097 0.306,-0.234c0.197,-0.282 0.325,-0.732 0.278,-0.988c-0.137,-0.722 -0.187,-1.466 -0.225,-2.1c-0.012,-0.187 0.028,-0.359 0.069,-0.531c0.025,-0.122 0.053,-0.235 0.059,-0.347c0.019,-0.453 0.032,-0.906 0.047,-1.356c0.022,-0.65 0.041,-1.294 0.078,-1.941c0.028,-0.441 0.163,-0.875 0.278,-1.206c0.072,-0.216 0.291,-0.435 0.507,-0.506c0.912,-0.31 1.715,-0.557 2.462,-0.76c0.381,-0.103 0.769,-0.194 1.156,-0.281c0.45,-0.103 0.916,-0.209 1.366,-0.338c0.241,-0.071 0.5,-0.256 0.538,-0.384c0.025,-0.078 -0.107,-0.356 -0.307,-0.531c-0.043,-0.041 -0.203,-0.047 -0.318,-0.05c-0.082,0 -0.163,-0.003 -0.241,-0.013c-0.084,0.016 -0.172,0.032 -0.263,0.044c-0.187,0.028 -0.384,0.056 -0.562,0.113c-0.294,0.084 -0.584,0.184 -0.875,0.284c-0.456,0.153 -0.925,0.312 -1.406,0.425c-1,0.241 -2.16,0.581 -3.178,1.306l-0.179,0.131c-0.262,0.197 -0.534,0.394 -0.846,0.485c-0.697,0.197 -1.3,0.603 -1.882,0.994c-0.197,0.134 -0.393,0.268 -0.593,0.393" style="fill:#9aa1ab;fill-rule:nonzero;"/><path d="M57.057,22.114c0.219,-0.378 0.444,-0.766 0.616,-1.169l0.044,-0.103c0.109,-0.256 0.222,-0.519 0.359,-0.769c0.147,-0.265 0.331,-0.306 0.431,-0.306c0.11,0 0.272,0.047 0.422,0.269c0.247,0.359 0.488,0.728 0.728,1.097c0.188,0.281 0.372,0.565 0.56,0.847c0.022,0.031 0.059,0.062 0.097,0.097c0.05,0.046 0.106,0.096 0.153,0.159c0.087,0.125 0.165,0.259 0.262,0.425l0.206,0.35l-0.118,0.103c-0.063,0.053 -0.119,0.106 -0.175,0.166c-0.128,0.125 -0.25,0.243 -0.413,0.312c-0.306,0.119 -0.625,0.219 -0.928,0.313c-0.234,0.075 -0.469,0.147 -0.7,0.231c-0.253,0.091 -0.503,0.191 -0.756,0.287c-0.319,0.129 -0.641,0.254 -0.966,0.363c-0.056,0.022 -0.122,0.031 -0.194,0.031c-0.146,0 -0.356,-0.047 -0.468,-0.175c-0.103,-0.119 -0.119,-0.334 -0.038,-0.634c0.191,-0.691 0.541,-1.303 0.878,-1.894m-1.868,1.431c-0.15,0.332 -0.297,0.666 -0.444,0.997c-0.191,0.431 -0.378,0.866 -0.575,1.291l-0.169,0.369c-0.231,0.521 -0.472,1.056 -0.778,1.553c-0.191,0.312 -0.172,0.397 -0.003,0.547c0.2,0.187 0.362,0.193 0.59,0.034c0.429,-0.297 0.644,-0.716 0.9,-1.281c0.175,-0.375 0.372,-0.738 0.585,-1.119c0.094,-0.178 0.19,-0.359 0.29,-0.547l0.107,-0.2l0.178,0.141c0.094,0.078 0.184,0.147 0.269,0.212c0.171,0.131 0.325,0.244 0.456,0.385c0.165,0.168 0.347,0.159 0.512,-0.004c0.341,-0.346 0.76,-0.49 1.163,-0.634c0.181,-0.066 0.359,-0.125 0.531,-0.209c0.228,-0.11 0.469,-0.188 0.706,-0.266c0.26,-0.084 0.503,-0.162 0.728,-0.281c0.929,-0.475 1.679,-0.363 2.425,0.362c0.294,0.285 0.641,0.547 1.035,0.788c0.269,0.156 0.797,-0.053 1.003,-0.391c0.144,-0.247 0,-0.6 -0.347,-0.85c-0.35,-0.25 -0.525,-0.522 -0.522,-0.806c0.003,-0.291 0.2,-0.569 0.581,-0.819c0.982,-0.653 1.954,-1.319 2.929,-1.981l0.443,-0.303c0.575,-0.397 0.916,-0.222 1.028,0.4c0.029,0.156 0.007,0.309 -0.015,0.453c-0.013,0.087 -0.025,0.175 -0.022,0.266c0.003,0.112 0.022,0.225 0.044,0.337c0.022,0.141 0.043,0.284 0.047,0.434c0.003,0.35 -0.007,0.697 -0.013,1.05c-0.003,0.207 -0.009,0.41 -0.009,0.616c-0.003,0.141 0.093,0.334 0.231,0.475c0.087,0.088 0.172,0.131 0.212,0.131c0.375,-0.068 0.844,-0.587 0.857,-0.947c0.012,-0.415 0.018,-0.834 0.028,-1.253c0.012,-0.618 0.025,-1.256 0.059,-1.887l0.01,-0.175c0.034,-0.653 0.071,-1.328 0.346,-2.003c0.025,-0.063 0.06,-0.135 0.088,-0.203c0.187,-0.416 0.378,-0.85 0.078,-1.272c-0.084,-0.113 -0.025,-0.244 0.013,-0.335c0.221,-0.618 0.696,-0.94 1.115,-1.218c0.622,-0.416 1.313,-0.719 2.244,-0.985c0.825,-0.234 1.619,-0.303 2.469,-0.197c0.197,0.022 0.475,0.294 0.462,0.507c-0.019,0.306 -0.069,0.65 -0.259,0.865c-0.294,0.338 -0.663,0.647 -1.069,0.9c-0.362,0.222 -0.737,0.428 -1.1,0.619c-0.319,0.175 -0.641,0.35 -0.953,0.534c-0.516,0.31 -0.9,0.594 -0.819,1.197c0.022,0.175 0.041,0.35 0.06,0.528c0.031,0.344 0.062,0.669 0.143,0.988c0.069,0.259 0.178,0.509 0.291,0.772c0.103,0.234 0.209,0.478 0.287,0.731c0.16,0.537 0.513,0.944 0.885,1.372c0.125,0.144 0.25,0.287 0.369,0.437c0.468,0.6 0.99,1.21 1.759,1.428c0.291,0.088 0.597,0.154 0.894,0.216c0.359,0.081 0.734,0.159 1.093,0.278c0.188,0.06 0.372,0.091 0.572,0.091c0.435,0 0.847,-0.141 1.282,-0.288c0.187,-0.065 0.368,-0.125 0.553,-0.178c0.203,-0.053 0.4,-0.165 0.603,-0.281c0.106,-0.059 0.215,-0.119 0.328,-0.172c0.094,-0.047 0.191,-0.091 0.291,-0.131c0.203,-0.091 0.393,-0.172 0.556,-0.291c0.028,-0.025 0.072,-0.175 0.062,-0.365c0,-0.047 -0.043,-0.138 -0.075,-0.179c-0.315,-0.037 -0.659,-0.056 -0.903,0.01c-0.259,0.062 -0.509,0.162 -0.772,0.269c-0.215,0.084 -0.431,0.171 -0.65,0.237c-1.318,0.397 -2.612,0.091 -3.781,-0.881c-0.491,-0.41 -0.878,-0.935 -1.256,-1.447c-0.128,-0.175 -0.256,-0.347 -0.388,-0.516c-0.143,-0.187 -0.262,-0.428 -0.362,-0.74c-0.063,-0.194 -0.11,-0.388 -0.16,-0.585c-0.062,-0.259 -0.121,-0.506 -0.212,-0.737c-0.109,-0.285 -0.103,-0.566 0.016,-0.785c0.112,-0.215 0.318,-0.353 0.59,-0.415c0.103,-0.025 0.206,-0.05 0.288,-0.088c1.003,-0.522 1.915,-1.237 2.79,-2.19c0.325,-0.347 0.482,-0.685 0.522,-1.091c0.013,-0.128 0.047,-0.266 0.1,-0.406c0.169,-0.441 -0.065,-0.944 -0.534,-1.144c-0.463,-0.2 -0.847,-0.316 -1.316,-0.234c-0.206,0.034 -0.422,-0.01 -0.619,-0.057c-0.171,-0.037 -0.325,-0.071 -0.471,-0.053c-0.547,0.085 -1.369,0.228 -2.138,0.5c-1.334,0.475 -2.569,1.235 -3.659,2.257c-0.347,0.331 -0.6,0.656 -0.757,0.968c-0.206,0.425 -0.365,0.882 -0.518,1.328l-0.16,0.457c-0.006,0.018 -0.006,0.065 -0.006,0.106c0.003,0.056 0.003,0.119 -0.006,0.187c-0.028,0.135 -0.056,0.3 -0.178,0.394l-0.3,0.244c-0.416,0.341 -0.844,0.694 -1.3,0.987c-0.278,0.185 -0.578,0.322 -0.872,0.457c-0.216,0.1 -0.431,0.2 -0.641,0.318c-0.212,0.122 -0.419,0.26 -0.625,0.397c-0.278,0.191 -0.562,0.378 -0.869,0.532c-0.409,0.209 -0.856,0.287 -1.165,0.203c-0.363,-0.1 -0.641,-0.544 -0.778,-0.797c-0.697,-1.325 -1.56,-2.553 -2.635,-3.753c-0.14,-0.163 -0.353,-0.25 -0.59,-0.25c-0.244,0 -0.482,0.093 -0.653,0.262c-0.179,0.172 -0.254,0.381 -0.335,0.619c-0.031,0.087 -0.062,0.175 -0.1,0.269c-0.319,0.756 -0.659,1.503 -1,2.25l-0.244,0.54c-0.153,0.341 -0.309,0.675 -0.465,1.013c-0.169,0.369 -0.338,0.74 -0.506,1.112" style="fill:#9aa1ab;fill-rule:nonzero;"/><path d="M114.757,81.798c-0.188,-0.025 -0.382,-0.035 -0.572,-0.044c-0.281,-0.016 -0.569,-0.028 -0.85,-0.088c-0.894,-0.187 -1.716,-0.047 -2.444,0.416c-0.484,0.306 -0.981,0.466 -1.478,0.466c-0.053,0 -0.1,-0.004 -0.15,-0.007l-0.219,-0.012c-1.006,-0.06 -2.047,-0.122 -3.053,-0.294c-1.366,-0.237 -2.737,-0.562 -4.059,-0.878l-0.269,-0.063c-0.3,-0.071 -0.45,-0.09 -0.569,0.175c0.3,0.316 0.744,0.385 1.216,0.454c0.112,0.018 0.225,0.034 0.334,0.053c0.675,0.122 1.369,0.259 2.116,0.418c0.312,0.069 0.622,0.144 0.928,0.219c0.347,0.081 0.697,0.166 1.047,0.241c0.4,0.081 0.825,0.165 1.25,0.181l0.312,0.016c0.25,0.012 0.5,0.028 0.75,0.028c0.472,0 1.078,-0.044 1.572,-0.372c0.606,-0.413 1.266,-0.609 2.01,-0.609c0.431,0 0.89,0.062 1.437,0.196c0.606,0.147 1.031,0.141 1.5,-0.015c-0.094,-0.322 -0.356,-0.419 -0.809,-0.481" style="fill:#9aa1ab;fill-rule:nonzero;"/><path d="M80.015,16.124c0.122,0.156 0.25,0.315 0.388,0.387c0.025,0.013 0.044,0.019 0.062,0.019c0.054,0 0.132,-0.103 0.2,-0.194c0.025,-0.034 0.054,-0.068 0.079,-0.1c0.134,-0.165 0.346,-0.306 0.628,-0.434c0.318,-0.134 0.643,-0.263 0.968,-0.391c0.244,-0.097 0.485,-0.19 0.729,-0.287c0.087,-0.041 0.171,-0.091 0.256,-0.141c0.137,-0.084 0.278,-0.169 0.45,-0.212c0.744,-0.185 1.509,-0.341 2.247,-0.494c0.147,-0.028 0.259,-0.041 0.353,-0.041c0.053,0 0.219,0 0.315,0.116c0.141,0.162 0.147,0.475 0.082,0.684l-0.038,0.113c-0.109,0.359 -0.215,0.694 -0.125,1.056c0.047,0.169 0.044,0.378 -0.009,0.634c-0.041,0.197 -0.094,0.391 -0.144,0.585c-0.094,0.337 -0.178,0.659 -0.2,0.981c-0.094,1.422 -0.134,2.872 -0.178,4.278l-0.006,0.222c-0.003,0.1 0.081,0.256 0.212,0.388c0.125,0.128 0.256,0.196 0.319,0.196l0,0.185l0.003,-0.185c0.316,-0.015 0.872,-0.453 0.916,-0.715c0.112,-0.663 0.222,-1.372 0.253,-2.075c0.012,-0.203 -0.022,-0.416 -0.06,-0.641c-0.037,-0.228 -0.081,-0.469 -0.068,-0.706c0.012,-0.338 0.065,-0.669 0.115,-0.988c0.044,-0.271 0.088,-0.556 0.11,-0.831c0.022,-0.306 0.022,-0.622 0.022,-0.928c0,-0.412 0,-0.834 0.053,-1.25l0.031,-0.297c0.1,-0.89 0.15,-1.34 1.322,-1.703c0.203,-0.059 0.412,-0.103 0.615,-0.141c0.51,-0.1 0.991,-0.193 1.335,-0.596c0.075,-0.091 0.2,-0.091 0.244,-0.091l0.118,0c0.588,-0.141 1.169,-0.278 1.75,-0.428c0.247,-0.063 0.491,-0.128 0.735,-0.2c0.45,-0.125 0.915,-0.256 1.387,-0.347c0.569,-0.106 1.147,-0.181 1.706,-0.25c0.288,-0.038 0.579,-0.072 0.863,-0.116c0.031,-0.031 0.062,-0.056 0.106,-0.072l1.441,-0.628c0.165,-0.072 0.284,-0.175 0.312,-0.265c0.01,-0.028 0.016,-0.069 -0.028,-0.135c-0.181,-0.293 -0.469,-0.543 -0.731,-0.64c-0.113,-0.032 -0.341,0.034 -0.544,0.106c-0.087,0.031 -0.175,0.062 -0.259,0.084c-0.363,0.1 -0.722,0.2 -1.085,0.303c-0.556,0.16 -1.115,0.319 -1.678,0.463c-0.403,0.103 -0.822,0.181 -1.222,0.256c-0.203,0.038 -0.406,0.072 -0.609,0.113c-0.541,0.112 -1.078,0.29 -1.6,0.468c-0.459,0.15 -0.934,0.307 -1.416,0.425c-0.893,0.21 -1.781,0.507 -2.64,0.8c-0.363,0.122 -0.728,0.244 -1.097,0.36l-0.803,0.256c-0.86,0.269 -1.716,0.541 -2.569,0.831c-1.594,0.538 -2.747,1.157 -3.722,2.003l0,0.013c0.003,0.025 0.01,0.069 0.016,0.084l0.09,0.113Z" style="fill:#9aa1ab;fill-rule:nonzero;"/><path d="M131.053,80.259c-0.065,-0.265 -0.247,-0.296 -0.387,-0.296c-0.05,0 -0.1,0.003 -0.16,0.015c-0.931,0.172 -1.862,0.078 -3.068,-0.322c-0.5,-0.165 -0.847,-0.175 -1.141,-0.031c0.688,0.519 2.05,0.891 3.322,0.891c0.606,0 1.109,-0.091 1.434,-0.257" style="fill:#9aa1ab;fill-rule:nonzero;"/><path d="M21.048,44.316c0.434,-4.879 0.641,-9.854 0.837,-14.663l0.007,-0.194l0.068,-4.19l0.072,-0.053c2.685,-2.007 5.644,-3.735 8.791,-5.138c6.353,-2.822 13.303,-5.35 21.875,-7.947c4.747,-1.437 8.459,-2.35 12.037,-2.953c2.56,-0.434 5.188,-0.75 7.729,-1.062c1.465,-0.179 2.981,-0.36 4.465,-0.566c1.41,-0.194 2.841,-0.416 4.225,-0.631c1.61,-0.25 3.275,-0.507 4.922,-0.722c2.509,-0.328 5.053,-0.556 7.203,-0.741c3.169,-0.253 6.275,-0.497 9.391,-0.665l1.275,-0.072c2.506,-0.135 5.094,-0.272 7.6,-0.625l0.212,-0.028l0.038,4.206c0.175,6.787 0.365,12.9 0.928,18.981l0.016,0.169l-0.394,0.075c-2.185,0.144 -4.397,0.156 -6.535,0.162c-1.359,0.007 -2.762,0.013 -4.137,0.053c-4.763,0.138 -10.391,0.322 -15.991,0.597c-1.203,0.06 -2.412,0.232 -3.584,0.397c-0.847,0.116 -1.728,0.238 -2.594,0.316c-3.675,0.34 -7.578,0.672 -12.29,1.04c-5.379,0.425 -10.641,1.71 -15.732,2.957l-1.093,0.265c-2.544,0.622 -5.091,1.4 -7.554,2.153c-0.796,0.241 -1.593,0.485 -2.39,0.725c-5.475,1.635 -11.256,3.569 -16.41,6.619c-0.821,0.481 -1.678,1.025 -2.7,1.706l-0.321,0.216l0.034,-0.387Zm98.794,33.396l0.031,0.066c0.056,0.247 0.116,0.497 0.172,0.747l0.165,0.691l-0.3,-0.079c-0.15,-0.04 -0.284,-0.078 -0.409,-0.121c-0.434,-0.147 -0.872,-0.297 -1.306,-0.447c-0.438,-0.153 -0.875,-0.307 -1.316,-0.457c-0.169,-0.056 -0.328,-0.112 -0.475,-0.121c-0.075,-0.007 -0.153,-0.016 -0.234,-0.022c-0.1,-0.016 -0.203,-0.032 -0.3,-0.032c-0.203,0 -0.263,0.066 -0.297,0.188c-0.025,0.081 -0.025,0.134 -0.003,0.169c0.059,0.09 0.3,0.125 0.462,0.15c0.063,0.009 0.122,0.018 0.175,0.031c1.378,0.281 2.632,0.828 3.847,1.366l0.338,0.146l0.2,0.847c0.028,0.113 0.172,0.232 0.312,0.347c0.025,0.019 0.05,0.044 0.075,0.063c0.025,-0.032 0.053,-0.063 0.078,-0.094c0.1,-0.122 0.194,-0.234 0.26,-0.35l0.156,-0.284l0.194,0.318c0.028,0.038 0.056,0.082 0.078,0.135c0.337,0.925 0.403,1.972 0.209,3.203c-0.065,0.415 -0.387,0.897 -0.815,1.225c-1.375,1.059 -3.025,1.872 -5.054,2.478c-0.618,0.187 -1.278,0.278 -2.018,0.278c-0.935,0 -1.872,-0.144 -2.775,-0.281l-0.257,-0.038c-0.843,-0.128 -1.731,-0.187 -2.8,-0.187c-0.856,0 -1.721,0.037 -2.562,0.078l-0.369,0.016c-2.328,0.096 -4.287,-0.454 -5.95,-1.71c-1.278,-0.962 -2.594,-1.875 -3.906,-2.712c-0.631,-0.397 -0.95,-0.916 -0.978,-1.575l-0.013,-0.213c-0.037,-0.69 -0.081,-1.472 0.528,-2.115c0.175,-0.182 0.454,-0.335 0.76,-0.425c0.3,-0.091 0.612,-0.16 0.919,-0.232c0.55,-0.125 1.068,-0.24 1.528,-0.462c0.693,-0.331 1.44,-0.494 2.284,-0.494c0.772,0 1.534,0.131 2.381,0.291l0.294,0.053c0.734,0.137 1.497,0.278 2.247,0.325c0.134,0.006 0.266,0.009 0.397,0.009c1.009,0 1.862,-0.222 2.603,-0.678c0.422,-0.266 0.912,-0.456 1.384,-0.637l0.372,-0.15c0.431,-0.175 0.878,-0.354 1.378,-0.354c0.222,0 0.438,0.035 0.65,0.11c0.013,-0.003 0.072,-0.031 0.125,-0.06c-0.272,-0.35 -0.459,-0.475 -0.693,-0.475c-0.147,0 -0.332,0.047 -0.616,0.16c-0.313,0.125 -0.625,0.253 -0.938,0.384c-0.925,0.385 -1.884,0.781 -2.881,1.022c-0.356,0.084 -0.762,0.125 -1.247,0.125c-0.4,0 -0.809,-0.028 -1.209,-0.056c-0.172,-0.01 -0.341,-0.022 -0.509,-0.028c-0.394,-0.022 -0.785,-0.103 -1.16,-0.182c-0.259,-0.056 -0.515,-0.109 -0.775,-0.143c-0.687,-0.091 -1.375,-0.166 -2.069,-0.241l-1.343,-0.147l0.44,-0.284c0.228,-0.147 0.46,-0.303 0.694,-0.466c0.541,-0.365 1.103,-0.75 1.713,-1.065c1.715,-0.891 4.006,-2.004 6.525,-2.682c2.003,-0.543 4.1,-0.35 6.15,0.563c0.096,0.04 0.184,0.075 0.246,0.144c0.735,0.784 1.71,1.35 2.654,1.893c0.409,0.238 0.834,0.482 1.237,0.744c0.275,0.178 0.444,0.456 0.609,0.722c0.066,0.103 0.129,0.209 0.197,0.306c0.166,0.228 0.338,0.463 0.51,0.706m0.809,-1.237c0.1,-0.063 0.2,-0.128 0.313,-0.178c1.281,-0.556 2.815,-1.128 4.487,-1.128c1.744,0.009 3.131,0.9 4.028,1.572c0.453,0.34 0.906,0.687 1.356,1.031c0.663,0.509 1.329,1.019 2.007,1.512c0.468,0.347 0.722,0.847 0.703,1.378c-0.022,0.522 -0.316,0.991 -0.803,1.291c-1.928,1.184 -4.035,1.838 -6.26,1.938c-0.312,0.015 -0.628,0.021 -0.947,0.021c-0.5,0 -0.99,-0.018 -1.459,-0.059c-0.309,-0.022 -0.603,-0.134 -0.884,-0.241c-0.119,-0.043 -0.238,-0.09 -0.36,-0.128l-0.128,-0.04l-0.003,-0.135c-0.012,-1.509 -0.441,-2.906 -1.347,-4.4l-0.112,-0.184l0.2,-0.088c0.215,-0.087 0.428,-0.178 0.64,-0.271c1.047,-0.454 2.035,-0.879 3.25,-0.825l0.094,0.006c0.106,0.006 0.216,0.009 0.275,-0.006c0.069,-0.022 0.141,-0.063 0.175,-0.088c-0.009,-0.084 -0.05,-0.172 -0.078,-0.191c-0.378,-0.193 -0.85,-0.381 -1.294,-0.225l-0.519,0.175c-0.556,0.191 -1.134,0.385 -1.687,0.604c-0.772,0.303 -1.138,0.4 -1.441,0.218l-0.068,-0.043l-0.329,-1.397l0.191,-0.119Zm-117.369,18.475c0.007,-0.016 0.025,-0.088 0.035,-0.134c0.015,-0.044 0.025,-0.094 0.04,-0.141c0.094,-0.259 0.185,-0.519 0.275,-0.781c0.188,-0.541 0.378,-1.1 0.594,-1.644c0.459,-1.159 1.131,-2.119 2.056,-2.938l0.247,-0.212l0.178,0.925c0.116,0.603 0.228,1.181 0.338,1.756c0.044,0.235 0.081,0.469 0.119,0.706c0.081,0.482 0.159,0.985 0.303,1.444l0.081,0.275c0.644,2.113 1.309,4.291 2.306,6.253c0.15,0.297 0.378,0.432 0.76,0.444c0.162,0 0.312,-0.053 0.45,-0.456c0.181,-0.522 0.418,-1.006 0.665,-1.5c1.085,-2.15 2.281,-4.406 3.969,-6.294c1.516,-1.697 3.147,-2.65 4.987,-2.906c0.291,-0.041 0.319,-0.047 0.335,-0.475c-0.147,-0.019 -0.294,-0.041 -0.438,-0.06c-0.453,-0.065 -0.918,-0.131 -1.378,-0.159c-0.494,-0.025 -0.969,0 -1.344,0.106c-1.246,0.341 -2.365,1.088 -3.321,2.219c-0.085,0.094 -0.16,0.194 -0.238,0.297c-0.053,0.075 -0.106,0.144 -0.162,0.219l-0.494,0.622l0.209,-0.972c0.694,-3.285 1.319,-6.519 2.006,-10.097c0.541,-2.835 1.247,-6.581 1.922,-10.397c0.082,-0.469 0.1,-0.963 0.119,-1.434c0.016,-0.379 0.031,-0.766 0.078,-1.15c0.238,-1.916 0.497,-3.829 0.753,-5.741l0.272,-2.009c0.15,-1.138 0.303,-2.279 0.456,-3.419c0.36,-2.666 0.719,-5.335 1.057,-8.003c0.131,-1.022 0.234,-2.066 0.334,-3.078l0.05,-0.504l0.069,-0.046c3.084,-2.194 6.45,-3.994 9.994,-5.357c6.475,-2.484 13.556,-4.653 22.293,-6.818c4.85,-1.2 8.616,-1.922 12.21,-2.341c2.59,-0.303 5.247,-0.491 7.815,-0.672c1.475,-0.103 2.997,-0.212 4.494,-0.341c1.416,-0.125 2.853,-0.271 4.244,-0.415c1.634,-0.169 3.325,-0.341 4.99,-0.478c2.46,-0.197 4.944,-0.297 7.266,-0.375c3.003,-0.097 6.225,-0.188 9.456,-0.207l1.263,-0.006c2.512,-0.006 5.115,-0.015 7.647,-0.24l0.184,-0.016l0.019,0.184c0.012,0.128 0.022,0.257 0.031,0.385c0.013,0.143 0.025,0.284 0.038,0.425c0.309,2.809 0.634,5.615 0.959,8.428c0.144,1.237 0.287,2.481 0.428,3.719l0.281,2.415c0.222,1.941 0.45,3.888 0.657,5.828c0.043,0.413 0.053,0.828 0.065,1.232c0.013,0.506 0.025,1.028 0.103,1.521c0.538,3.454 1.119,6.91 1.666,10.132l0.028,0.162l0,0.003l0.125,0.763c0.538,3.125 1.206,7.022 1.913,10.731c0.053,0.275 0.112,0.553 0.175,0.831l0.184,0.885l-0.35,-0.188c-0.366,-0.2 -0.728,-0.397 -1.094,-0.625c-0.184,-0.122 -0.372,-0.24 -0.562,-0.356c-0.694,-0.434 -1.413,-0.881 -2.038,-1.406c-1.044,-0.875 -2.356,-1.369 -3.903,-1.472c-0.4,-0.022 -0.772,-0.035 -1.122,-0.035c-1.622,0 -2.915,0.263 -4.078,0.829c-0.494,0.237 -1.022,0.431 -1.534,0.615c-0.582,0.206 -1.182,0.422 -1.713,0.71c-1.987,1.065 -3.978,2.203 -5.9,3.303c-0.628,0.356 -1.253,0.715 -1.881,1.072l-0.097,0.053c-0.262,0.147 -0.534,0.3 -0.703,0.49c-0.684,0.782 -0.988,1.941 -0.784,3.028c0.196,1.06 0.859,1.938 1.865,2.469c1.791,0.947 3.222,1.981 4.372,3.163c1.044,1.078 2.394,1.562 4.006,1.465c0.372,-0.025 0.741,-0.059 1.113,-0.097c0.422,-0.037 0.844,-0.078 1.265,-0.103c0.366,-0.022 0.75,-0.031 1.141,-0.031c1.541,0 3.088,0.169 4.584,0.328l0.7,0.075c0.541,0.06 1.147,0.122 1.735,0.122c0.853,0 1.528,-0.134 2.125,-0.422l0.24,-0.119c2.06,-0.996 4.182,-2.028 5.432,-3.918l0.062,-0.097l0.113,0.009c0.159,0.019 0.318,0.038 0.478,0.056c0.356,0.041 0.697,0.075 1.037,0.088c0.228,0.006 0.46,0.016 0.688,0.028c0.712,0.038 1.444,0.053 1.987,-0.031c2.582,-0.391 4.647,-1.238 6.313,-2.591c0.847,-0.69 1.244,-1.322 1.334,-2.125c0.066,-0.603 -0.19,-1.04 -0.834,-1.412c-0.625,-0.36 -1.263,-0.797 -1.9,-1.297c-0.191,-0.15 -0.378,-0.297 -0.566,-0.447c-0.972,-0.784 -1.887,-1.522 -3.078,-2.019c-1.247,-0.519 -2.291,-0.659 -3.259,-0.44c-1.16,0.256 -2.303,0.584 -3.513,0.928l-0.875,0.247l-0.044,-0.188c-0.209,-0.903 -0.425,-1.834 -0.606,-2.759c-0.64,-3.235 -1.312,-6.697 -1.878,-10.153l-0.025,-0.15l-0.003,0l-0.1,-0.579c-0.553,-3.481 -0.994,-7.043 -1.419,-10.49l-0.062,-0.494c-0.11,-0.881 -0.178,-1.778 -0.247,-2.653c-0.069,-0.891 -0.141,-1.819 -0.253,-2.719c-0.216,-1.684 -0.46,-3.4 -0.697,-5.053c-0.244,-1.697 -0.494,-3.453 -0.713,-5.187c-0.222,-1.744 -0.393,-3.516 -0.562,-5.235c-0.056,-0.575 -0.11,-1.15 -0.169,-1.728l-0.019,-0.178l0.182,-0.022c0.731,-0.084 1.503,-0.181 2.259,-0.319c-0.203,-0.603 -0.297,-0.928 -0.341,-1.112l-2.209,0.422l-0.022,-0.2c-0.069,-0.625 -0.137,-1.288 -0.169,-1.947l-0.09,-1.931c-0.153,-3.144 -0.31,-6.394 -0.397,-9.594c-0.078,-3.05 -0.131,-6.256 -0.15,-9.541l0,-0.159l0.212,-0.035c0.66,-0.115 1.344,-0.234 2.013,-0.387c-0.231,-0.597 -0.341,-0.916 -0.391,-1.103l-1.84,0.45l0,-0.235c0,-0.268 -0.004,-0.537 -0.007,-0.806c-0.003,-0.35 -0.006,-0.7 -0.006,-1.05c-0.019,-0.003 -0.047,-0.006 -0.078,-0.006c-0.238,0 -0.563,0.087 -0.741,0.141l0.016,2.159l-0.559,0.137c-2.166,0.254 -4.363,0.372 -6.491,0.485c-1.35,0.078 -2.744,0.153 -4.109,0.259c-5.007,0.397 -10.4,0.847 -15.875,1.391c-1.191,0.125 -2.385,0.353 -3.541,0.575c-0.841,0.159 -1.709,0.328 -2.572,0.453c-3.531,0.506 -7.403,1.031 -12.175,1.647c-5.303,0.69 -10.462,2.234 -15.45,3.725l-1.141,0.34c-2.481,0.747 -4.959,1.644 -7.356,2.513c-0.8,0.291 -1.603,0.581 -2.406,0.866c-6.219,2.218 -11.325,4.331 -16.031,7.456c-0.507,0.334 -1.007,0.697 -1.488,1.05l-0.581,0.419l0.034,-2.125c-0.068,-0.01 -0.159,-0.013 -0.253,-0.013c-0.244,0 -0.422,0.044 -0.49,0.125c-0.007,0.509 -0.019,1.019 -0.029,1.528l-0.021,1.035l-0.072,0.053c-0.744,0.556 -1.482,1.122 -2.216,1.687l-0.062,0.044c-0.222,0.172 -0.394,0.428 -0.591,0.722c-0.059,0.087 -0.119,0.178 -0.181,0.272c0.14,0.043 0.278,0.065 0.406,0.065c0.434,0 0.734,-0.272 1.025,-0.531l0.144,-0.128c0.259,-0.222 0.525,-0.428 0.793,-0.638c0.141,-0.109 0.282,-0.218 0.422,-0.331l0.313,-0.25l-0.01,0.4c-0.065,2.938 -0.153,5.628 -0.259,8.225c-0.128,3.01 -0.325,6.072 -0.512,9.028l-0.107,1.657l-0.562,0.378c-0.36,0.243 -0.716,0.493 -1.069,0.737c-0.231,0.156 -0.412,0.4 -0.622,0.678c-0.062,0.088 -0.128,0.175 -0.197,0.26c0.163,0.062 0.316,0.093 0.463,0.093c0.409,0 0.709,-0.243 0.997,-0.481l0.15,-0.119c0.075,-0.056 0.15,-0.109 0.225,-0.159c0.062,-0.044 0.122,-0.087 0.184,-0.131l0.35,-0.263l-0.134,1.082c-0.035,0.268 -0.069,0.534 -0.1,0.803c-0.082,0.69 -0.163,1.381 -0.241,2.065c-0.184,1.607 -0.375,3.266 -0.612,4.891c-0.238,1.628 -0.504,3.284 -0.766,4.881c-0.253,1.556 -0.513,3.166 -0.744,4.75c-0.125,0.844 -0.206,1.71 -0.284,2.544c-0.078,0.822 -0.156,1.669 -0.275,2.5l-0.097,0.675c-0.453,3.172 -0.919,6.45 -1.494,9.656c-0.619,3.447 -1.378,6.947 -2.1,10.238c-0.331,1.5 -0.722,3.009 -1.103,4.472l-0.025,0.106c-0.478,0.972 -0.806,1.794 -1.05,2.628c-0.028,0.091 -0.069,0.175 -0.116,0.262l-0.109,0.232l-0.384,-0.107l-0.025,-0.165c0.025,-0.26 0.043,-0.522 0.062,-0.788c0.038,-0.572 0.078,-1.159 0.188,-1.728c0.303,-1.559 0.672,-3.115 1.053,-4.706c0.437,-1.809 0.756,-3.788 1.006,-6.231c0.097,-0.95 0.113,-1.938 0.128,-2.888c0.006,-0.334 0.013,-0.662 0.022,-0.997c0.003,-0.168 -0.031,-0.359 -0.103,-0.525c-0.019,-0.047 -0.094,-0.109 -0.125,-0.118c-0.006,0.012 -0.084,0.087 -0.103,0.15c-0.094,0.293 -0.166,0.615 -0.219,0.965l-0.044,0.3c-0.131,0.903 -0.268,1.838 -0.528,2.744c-0.297,1.053 -0.553,2.119 -0.822,3.244c-0.115,0.478 -0.228,0.959 -0.35,1.453l-0.262,1.059l-0.103,-1.087c-0.013,-0.113 -0.022,-0.213 -0.035,-0.3c-0.018,-0.172 -0.034,-0.31 -0.037,-0.444c-0.016,-1.438 -0.363,-2.828 -0.7,-4.172l-0.147,-0.603c-0.228,-0.922 -0.469,-1.838 -0.713,-2.753c-0.118,-0.453 -0.24,-0.903 -0.356,-1.36c-0.09,-0.331 -0.219,-0.459 -0.253,-0.468c-0.162,0.109 -0.147,0.24 -0.053,0.578c0.581,2.178 0.859,4.387 0.834,6.609c-0.015,1.516 -0.012,3.185 0.003,5.25c0.004,0.441 0.041,0.888 0.082,1.322l0.028,0.331c0.069,0.8 0.14,1.597 0.212,2.397l0.069,0.763l-0.362,0.072c-0.538,-1.857 -0.879,-3.791 -1.21,-5.663c-0.247,-1.387 -0.5,-2.822 -0.831,-4.2c-0.044,-0.012 -0.088,-0.016 -0.122,-0.016c-0.084,0 -0.184,0.019 -0.294,0.247c-0.147,0.316 -0.34,0.6 -0.528,0.866c-0.559,0.787 -0.915,1.591 -1.087,2.45c-0.038,0.194 -0.1,0.394 -0.207,0.634c-0.121,0.285 -0.253,0.572 -0.381,0.86c-0.247,0.543 -0.5,1.106 -0.706,1.678c-0.225,0.619 -0.375,1.294 -0.525,1.947l-0.072,0.315c-0.006,0.035 0.022,0.132 0.047,0.197c0.084,-0.022 0.175,-0.065 0.259,-0.131" style="fill:#9aa1ab;fill-rule:nonzero;"/><path d="M58.503,342.303l0.01,-0.169l0.172,-0.006c0.168,-0.006 0.321,-0.012 0.475,-0.022l0.165,-0.009l0.028,0.162c0.128,0.7 0.263,1.404 0.397,2.11c0.31,1.6 0.625,3.262 0.85,4.906c0.278,2.059 0.444,4.169 0.497,6.269c0.163,6.469 0.278,13.047 0.388,19.406l0.059,3.35c0.016,0.778 -0.063,1.569 -0.231,2.347l-0.191,0.875l-0.178,-0.878c-2.294,-11.625 -3.094,-24.163 -2.441,-38.341m-4.712,25.735c-0.019,0.14 -0.038,0.278 -0.05,0.415l-0.094,0.863l-1.141,-3.478l-0.037,-0.013l0.003,-0.094l-0.003,-0.009l0.081,-3.466c-0.034,-0.006 -0.069,-0.015 -0.103,-0.022c-0.244,-0.05 -0.45,-0.093 -0.491,-0.278c-0.531,-2.337 -1.046,-4.728 -1.525,-7.103c-0.05,-0.234 0.019,-0.469 0.085,-0.697c0.009,-0.025 0.019,-0.053 0.025,-0.084c-0.022,-0.003 -0.044,-0.006 -0.066,-0.006c-0.2,-0.032 -0.422,-0.06 -0.565,-0.21c-0.666,-0.684 -1.122,-0.659 -1.882,0.107c-0.556,0.562 -1.212,1.031 -1.74,1.409c-0.203,0.147 -0.394,0.284 -0.557,0.409l-0.287,0.222l-0.013,-0.362c-0.053,-1.325 1.635,-4.232 4.232,-6.444l0.237,-0.203l0.066,0.309c0.244,1.181 0.475,2.275 0.697,3.344l0.234,1.122l0.091,0.031l-0.028,0.163c-0.004,0.012 -0.01,0.028 -0.013,0.043l1.981,7.978l0,0.091l0.003,0.009l-0.081,3.485c1.21,0.509 1.066,1.55 0.941,2.469m9.906,-5.666c0.672,-4.003 1.363,-8.141 2.172,-12.188c0.444,-2.203 1.119,-4.39 1.775,-6.506c0.228,-0.737 0.456,-1.475 0.675,-2.209c0.134,-0.466 0.437,-0.894 0.984,-1.403l0.366,-0.344l-0.053,0.5c-1.116,10.053 -3.166,19.087 -6.263,27.612l-0.306,0.841l-0.053,-0.891c-0.006,-0.093 -0.019,-0.187 -0.031,-0.281c-0.025,-0.219 -0.053,-0.444 -0.016,-0.665c0.253,-1.491 0.503,-2.975 0.75,-4.466m1.788,20.916c0.309,-2.685 1.39,-5.047 2.509,-7.197c3.056,-5.866 6.194,-10.141 9.869,-13.457c3.084,-2.778 6.781,-4.665 11.303,-5.762c0.184,-0.044 0.422,-0.041 0.665,-0.025c0.094,0.006 0.191,0.012 0.282,0.012l0.778,0l-0.694,0.35c-4.947,2.51 -9.384,6.166 -13.969,11.504c-2.075,2.412 -3.909,5.106 -5.684,7.712c-0.634,0.928 -1.266,1.853 -1.909,2.772c-0.425,0.603 -0.829,1.237 -1.219,1.85c-0.503,0.787 -1.022,1.603 -1.597,2.372l-0.413,0.556l0.079,-0.687Zm185.206,-64.732c-1.081,-1.284 -2.2,-2.612 -3.253,-3.953c-1.975,-2.515 -4.044,-5.031 -6.041,-7.469c-1.766,-2.15 -3.587,-4.368 -5.341,-6.578c-0.543,-0.687 -1.2,-1.431 -1.893,-2.215c-2.153,-2.444 -4.597,-5.216 -4.375,-7.154c0.062,-0.546 0.331,-1.006 0.797,-1.368l-0.454,-3.253l0.275,0.078c0.354,0.1 0.675,0.187 0.969,0.269c0.619,0.168 1.153,0.312 1.663,0.493l0.534,0.191c2.794,1.003 5.441,1.947 8.491,2.109c1.653,0.094 3.581,1.432 4.556,2.653c3.928,4.888 7.166,9.275 9.897,13.41c4.059,6.156 8.003,12.522 11.815,18.678c0.797,1.287 1.591,2.578 2.391,3.865c0.491,0.785 1.081,1.976 1.159,3.207c0.069,0.969 0.141,1.865 0.213,2.706c0.475,5.803 0.737,8.994 -4.003,13.972c-2.247,2.365 -4.719,3.387 -7.572,3.122l-0.163,-0.016l-0.006,-0.159c-0.1,-2.363 0.906,-4.306 1.881,-6.188l0.054,-0.103c0.546,-1.062 1.178,-2.175 2.05,-3.612c0.646,-1.063 0.606,-1.76 -0.163,-2.378c-3.203,1.478 -5.831,6.715 -7.816,15.584l-0.028,0.112l-0.112,0.028c-0.256,0.06 -0.522,0.129 -0.788,0.2c-0.628,0.16 -1.275,0.329 -1.943,0.419c-0.3,0.038 -0.622,0.057 -1.019,0.057c-0.26,0 -0.522,-0.007 -0.8,-0.016c-0.281,-0.009 -0.578,-0.016 -0.888,-0.016l-0.193,0l0.009,-0.197c0.172,-3.153 1.622,-5.778 3.028,-8.315c0.234,-0.425 0.466,-0.847 0.694,-1.272c0.406,-0.756 0.822,-1.51 1.237,-2.26c1.116,-2.028 2.269,-4.121 3.241,-6.237c1.062,-2.319 1.081,-4.447 0.05,-6.703c-1.988,-4.375 -5.122,-8.097 -8.153,-11.691m20.784,-39.394l0.26,0.032c1.965,0.237 3.862,0.453 5.709,0.659c4.034,0.459 7.844,0.888 11.622,1.466l1.55,0.24c4.537,0.703 9.228,1.432 13.925,1.432c1.962,0 3.79,-0.122 5.587,-0.375l1.663,-0.235l-1.572,0.591c-0.356,0.137 -0.719,0.278 -1.072,0.425c-0.809,0.322 -1.647,0.659 -2.506,0.897c-1.253,0.356 -2.613,0.643 -4.285,0.912c-3.775,0.597 -7.537,1.166 -11.19,1.688c-5.972,0.853 -10.65,3.034 -14.297,6.656c-0.272,0.275 -0.569,0.497 -0.875,0.669c-0.156,0.081 -0.328,0.097 -0.613,0.119c-0.15,0.012 -0.35,0.024 -0.603,0.053l-0.168,0.022l-0.032,-0.166l-3.103,-15.084l0,-0.001Zm-45.497,7.506c-0.265,0 -0.506,0.006 -0.734,0.012c-0.197,0.003 -0.384,0.01 -0.559,0.01c-0.391,0 -0.672,-0.025 -0.935,-0.078c-6.594,-1.322 -12.5,-2.65 -17.997,-5.582c-1.203,-0.64 -1.912,-1.003 -2.44,-1.003c-0.725,0 -1.2,0.747 -2.294,2.597l-0.109,0.178l-0.163,-0.125c-0.441,-0.334 -0.884,-0.662 -1.322,-0.984c-1.019,-0.753 -1.981,-1.472 -2.925,-2.244c-4.25,-3.472 -7.297,-7.878 -10.244,-12.141c-1.131,-1.631 -2.296,-3.318 -3.515,-4.931c-1.491,-1.969 -3.188,-3.85 -4.828,-5.675c-0.744,-0.825 -1.491,-1.653 -2.219,-2.49c-0.259,-0.3 -0.528,-0.594 -0.838,-0.938c-0.206,-0.231 -0.437,-0.481 -0.693,-0.769l-0.194,-0.218l0.281,-0.085c0.781,-0.234 1.528,-0.472 2.256,-0.706c1.541,-0.491 2.997,-0.959 4.491,-1.278c3.922,-0.838 6.984,-3.216 9.359,-7.272c0.997,-1.703 1.616,-3.647 2.213,-5.522c0.253,-0.794 0.516,-1.616 0.803,-2.409l0.044,-0.122c0.131,-0.356 0.294,-0.803 0.184,-1.06c-0.059,-0.134 -0.119,-0.281 -0.181,-0.434c-0.291,-0.725 -0.694,-1.712 -1.153,-1.809c-0.122,-0.028 -0.238,-0.038 -0.344,-0.038c-0.75,0 -0.922,0.65 -1.106,1.647c-0.016,0.106 -0.038,0.206 -0.06,0.306c-1.234,6.166 -5.315,10.407 -12.121,12.613c-1.535,0.497 -3.122,0.906 -4.66,1.306c-1.344,0.344 -2.734,0.706 -4.072,1.122c-4.818,1.484 -9.318,3.734 -13.375,6.678c-2.343,1.703 -4.965,3.606 -7.259,3.606c-1.356,0 -2.459,-0.681 -3.284,-2.025l-0.094,-0.156l0.15,-0.097c0.594,-0.391 1.312,-0.616 2.003,-0.841c1.297,-0.406 2.628,-0.831 3.294,-2.321c-0.144,-0.066 -0.282,-0.138 -0.416,-0.21c-0.341,-0.181 -0.659,-0.35 -0.894,-0.322c-0.447,0.069 -0.868,0.247 -1.315,0.438c-0.3,0.128 -0.616,0.262 -0.944,0.359l-0.719,0.216c-2.169,0.65 -4.869,1.456 -7.297,1.456c-0.853,0 -1.637,-0.1 -2.328,-0.3c-3.894,-1.122 -5.378,-3.387 -7.431,-6.528l-0.144,-0.222l0.131,-0.109c0.716,-0.556 1.641,-0.894 2.535,-1.216c1.962,-0.715 3.819,-1.39 3.362,-4.328l-0.122,0.072c-1.906,1.153 -3.703,2.234 -5.79,2.237c-0.816,0 -1.619,-0.165 -2.456,-0.5l-0.06,-0.028l-0.031,-0.053c-1.206,-2.184 0,-4.156 1.066,-5.897l0.134,-0.222c4.459,-7.321 9.016,-14.615 13.541,-21.681c0.75,-1.169 1.34,-2.353 1.912,-3.503c1.284,-2.569 2.497,-5 5.269,-6.947c2.581,-1.819 5.497,-2.597 8.322,-3.347c0.584,-0.159 1.172,-0.309 1.753,-0.475c0.575,-0.165 1.578,-0.518 2.74,-0.928c3.11,-1.1 7.422,-2.609 9.029,-2.447c0.781,0.082 1.559,0.125 2.315,0.125c8.038,0 13.569,-4.815 17.494,-9.012c3.856,-4.131 6.487,-9.047 9.031,-13.797c0.606,-1.128 1.21,-2.26 1.828,-3.378c2.053,-3.71 4.244,-7.419 6.363,-11.016l0.725,-1.225c1.85,-3.141 4.669,-5.684 8.619,-7.778c8.737,-4.641 16.687,-8.728 25.49,-11.737l0.103,-0.038c1.738,-0.594 3.538,-1.209 5.432,-1.209c0.987,0 1.918,0.162 2.84,0.496l0.075,0.022l0.035,0.075c0.953,2.15 0.087,4.1 -0.75,5.988c-0.729,1.647 -1.447,2.894 -2.263,3.925c-5.644,7.14 -9.109,15.341 -11.762,22.419c-2.669,7.128 -8.044,12.197 -15.969,15.068c-1.844,0.666 -3.728,1.316 -5.553,1.947c-3.56,1.228 -7.244,2.503 -10.775,3.947c-6.544,2.681 -11.21,5.763 -14.682,9.7c-0.165,0.188 -0.428,0.272 -0.706,0.36c-0.128,0.04 -0.269,0.087 -0.406,0.143l-0.119,0.053l-0.09,-0.096c-1.432,-1.529 -0.416,-2.957 0.259,-3.901c2.444,-3.399 5.487,-5.853 8.809,-7.084c10.369,-3.856 16.691,-11.606 21.044,-17.925c0.994,-1.444 1.922,-2.978 2.822,-4.456c1.647,-2.716 3.353,-5.525 5.525,-7.913c0.653,-0.709 1.297,-1.434 1.947,-2.162c4.422,-4.963 8.994,-10.091 16.078,-12.403c0.712,-0.231 1.366,-0.681 2,-1.116c0.237,-0.169 0.487,-0.337 0.737,-0.494c-1.018,-1.84 -1.512,-2.456 -2.328,-2.456c-0.568,0 -1.312,0.3 -2.403,0.828c-7.156,3.46 -13.615,8.122 -19.74,14.253c-5.316,5.332 -10.307,11.066 -15.125,16.613c-2.244,2.581 -4.566,5.25 -6.891,7.847c-2.284,2.553 -4.903,4.915 -7.431,7.203c-1.425,1.287 -2.9,2.615 -4.297,3.969l-0.1,0.093c-1.394,1.347 -2.838,2.738 -3.753,4.344c-0.841,1.478 -1.141,3.266 -1.435,4.997l-0.009,0.056c-0.231,1.363 0.647,2.553 2.137,2.9c1.144,0.266 2.16,0.391 3.197,0.391c0.566,0 1.057,-0.038 1.535,-0.072c0.415,-0.031 0.812,-0.059 1.209,-0.059c0.969,0 2.109,0.147 3.894,1.222c3.706,2.225 6.781,5.021 9.147,8.309c0.084,0.112 0.178,0.225 0.275,0.334c0.225,0.26 0.459,0.528 0.55,0.856c1.503,5.194 5.94,5.629 10.353,5.629c0.359,0 0.719,-0.003 1.075,-0.01c3.981,-0.047 7.872,-1.362 10.437,-2.459c3.519,-1.506 6.953,-3.331 10.275,-5.1c1.763,-0.938 3.591,-1.91 5.407,-2.822c6.04,-3.025 11.534,-6.947 16.85,-10.741c2.368,-1.69 4.815,-3.437 7.281,-5.084c7.803,-5.209 17.131,-8.422 28.528,-9.812c0.312,-0.038 0.637,-0.047 0.947,-0.054c0.428,-0.006 0.831,-0.015 1.219,-0.096c2.731,-0.575 5.518,-0.869 8.284,-0.869c7.984,0 15.931,2.265 25.766,7.34c6.384,3.288 12.531,7.697 19.362,13.879c6.7,6.062 13.241,12.734 19.441,19.825c2.5,2.856 4.472,6.153 6.022,10.087c0.965,2.447 2.668,3.419 4.662,2.619c1.013,-0.4 2.066,-0.766 3.084,-1.122c3.654,-1.272 7.438,-2.591 9.96,-5.744c0.672,-0.84 1.281,-1.706 1.987,-2.709c0.322,-0.453 0.657,-0.928 1.019,-1.438l0.203,-0.281l0.125,0.325c0.15,0.397 0.303,0.766 0.453,1.122c0.307,0.725 0.597,1.409 0.732,2.112c0.925,4.86 1.556,9.597 -0.838,14.107c-2.797,5.268 -5.897,7.415 -10.697,7.415c-0.744,0 -1.547,-0.053 -2.387,-0.162c-0.95,-0.125 -1.907,-0.2 -2.741,-0.266c-0.266,-0.022 -0.519,-0.04 -0.753,-0.062c-0.559,0.8 -1.091,1.59 -1.613,2.368c-1.268,1.879 -2.465,3.66 -3.871,5.304c-1.369,1.609 -3.15,3.096 -5.154,4.309c-5.484,3.316 -12.075,5.222 -20.746,5.997c-0.222,0.022 -0.438,0.031 -0.65,0.031c-1.188,0 -2.057,-0.384 -2.725,-1.219c-1.472,-1.837 -17.172,-7.325 -23.404,-9.15c-0.215,-0.062 -0.512,-0.059 -0.943,-0.043c-0.172,0.006 -0.366,0.015 -0.582,0.018c0.619,0.875 5.675,3.619 10.172,6.06c5.669,3.075 12.094,6.565 15.607,9.24c1.012,0.772 1.884,1.728 2.725,2.65c0.259,0.278 0.515,0.56 0.775,0.838c1.187,1.269 1.125,2.315 -0.219,3.74c-4.675,4.95 -11.075,7.197 -16.719,8.744c-4.466,1.222 -9.047,2.338 -13.472,3.422c-5.75,1.403 -11.697,2.853 -17.453,4.547c-4.109,1.212 -8.109,2.975 -11.978,4.675c-1.756,0.775 -3.572,1.572 -5.369,2.309c-0.656,0.272 -1.303,0.531 -1.978,0.806l-0.091,0.038l-0.084,-0.056c-2.25,-1.497 -2.159,-3.613 -2.075,-5.657c0.063,-1.44 0.125,-2.928 -0.656,-4.175c-2.66,2.947 -2.775,8.441 -0.219,12.138l0.103,0.15l-4.631,3.412l-0.106,-0.165c-2.488,-3.919 -3.053,-8.003 -1.682,-12.134c2.247,-6.744 6.947,-10.86 13.969,-12.222l2.328,-0.45c2.288,-0.438 4.65,-0.897 6.963,-1.378c1.265,-0.263 2.534,-0.522 3.803,-0.782c4.128,-0.843 8.394,-1.715 12.537,-2.74c2.647,-0.657 5.266,-1.597 7.797,-2.5c0.707,-0.254 1.41,-0.507 2.113,-0.753c0.265,-0.094 0.484,-0.357 0.74,-0.663c0.091,-0.112 0.188,-0.231 0.291,-0.344c-1.016,-0.944 -2.266,-1.384 -3.922,-1.384c-0.609,0 -1.206,0.059 -1.709,0.112c-4.394,0.5 -8.028,0.51 -11.656,0.057c-1.082,-0.138 -2.25,-0.204 -3.579,-0.204c-1.553,0 -3.143,0.094 -4.684,0.179c-0.875,0.05 -1.747,0.096 -2.616,0.131c-7.121,0.275 -14.437,-1.041 -23.171,-4.175c-7.122,-2.556 -13.516,-6.781 -20.729,-13.691c-2.056,-1.972 -3.159,-4.659 -3.362,-8.218c-0.45,-7.704 2.041,-14.641 7.603,-21.216c0.709,-0.841 1.45,-1.656 2.303,-2.603c0.331,-0.363 0.678,-0.747 1.047,-1.156c-0.816,-0.269 -1.525,-0.5 -2.222,-0.725l-2.147,-0.707l0.203,-0.212c0.194,-0.207 0.372,-0.413 0.541,-0.616c0.359,-0.419 0.694,-0.812 1.131,-1.106c3.478,-2.338 7.038,-4.691 10.472,-6.966c1.556,-1.028 3.113,-2.059 4.663,-3.087c0.262,-0.172 0.537,-0.341 0.806,-0.51c0.734,-0.447 1.487,-0.915 2.044,-1.506c0.353,-0.369 0.518,-0.903 0.734,-1.581c0.103,-0.335 0.222,-0.713 0.378,-1.113l0.031,-0.068l0.072,-0.035c7.025,-2.89 15.3,-4.294 25.288,-4.294c1.022,0 2.081,0.013 3.147,0.041c7.687,0.209 14.634,2.922 21.359,5.541l1.653,0.644c5.406,2.093 10.766,5.037 16.375,8.987c0.547,-0.394 0.828,-0.784 0.835,-1.159c0.012,-0.553 -0.572,-1.047 -1.01,-1.372l-0.859,-0.635c-1.969,-1.468 -4.006,-2.981 -6.235,-4.05c-6.771,-3.246 -13.115,-6.075 -19.393,-8.65c-5.372,-2.203 -11.203,-2.65 -16.7,-2.806c-0.638,-0.019 -1.272,-0.028 -1.907,-0.028c-6.834,0 -13.862,1 -21.484,3.056c-3.944,1.063 -7.941,2.847 -12.219,5.441c0.932,1.725 2.363,1.769 4.166,1.822c0.541,0.015 1.097,0.031 1.675,0.097l0.484,0.056l-0.403,0.281c-2.962,2.081 -6.169,3.794 -9.272,5.45c-5.212,2.772 -10.137,5.394 -13.959,9.619c1.081,1.016 2.35,1.109 3.687,1.209c0.819,0.06 1.663,0.122 2.51,0.394l0.222,0.072l-0.122,0.203c-0.26,0.438 -0.513,0.872 -0.766,1.309c-0.512,0.888 -1.044,1.803 -1.609,2.678c-3,4.625 -5.288,9.641 -6.788,14.904c-1.097,3.828 -0.987,7.618 0.322,11.268c0.225,0.635 0.453,1.272 0.7,1.963l0.428,1.219l-0.218,0.037c-0.46,0.078 -0.932,0.116 -1.441,0.116c-1.141,0 -2.269,-0.197 -3.363,-0.388c-1.087,-0.19 -2.118,-0.365 -3.156,-0.365c-0.89,0 -1.678,0.137 -2.409,0.422c-0.169,0.662 -0.144,1.149 0.078,1.478c0.322,0.478 1.066,0.662 2.087,0.79l0.169,0.022c4.113,0.509 8.372,1.038 12.063,3.194c0.634,0.375 1.237,0.809 1.815,1.237c0.457,0.328 0.922,0.675 1.407,0.978c0.587,0.379 1.178,0.782 1.746,1.172c1.46,0.997 2.963,2.025 4.6,2.694c4.532,1.856 7.091,4.641 8.057,8.756c0.431,1.841 0.909,3.703 1.368,5.507c0.622,2.421 1.26,4.921 1.804,7.403c0.303,1.4 0.093,2.903 -0.125,4.062c-1.004,5.156 -1.697,10.203 0.712,15.216c0.913,1.897 1.772,2.74 2.797,2.74c0.678,0 1.462,-0.384 2.391,-1.171c1.265,-1.082 2.603,-1.604 4.1,-1.604c1.434,0 2.796,0.494 3.821,0.922c6.025,2.513 10.55,7.069 13.457,13.541l0.053,0.119l-0.35,0.365c-0.147,0.153 -0.288,0.303 -0.431,0.453l-0.104,0.104l-0.125,-0.069c-0.359,-0.2 -0.721,-0.403 -1.084,-0.603c-0.847,-0.472 -1.719,-0.957 -2.559,-1.457c-0.466,-0.278 -0.919,-0.575 -1.372,-0.871c-0.828,-0.535 -1.685,-1.094 -2.581,-1.522c-0.082,-0.041 -0.197,-0.057 -0.344,-0.057c-0.466,0 -1.072,0.21 -1.272,0.444c-0.116,0.138 -0.15,0.572 -0.069,0.966c0.053,0.275 0.144,0.415 0.185,0.437c1.234,0.638 2.334,1.513 3.396,2.36c2.044,1.625 4.16,3.306 7.269,3.306c0.085,0 0.163,0 0.241,-0.003l0.184,-0.006l0.147,3.1l-0.209,-0.019c-0.438,-0.035 -0.853,-0.047 -1.247,-0.063c-0.791,-0.025 -1.531,-0.053 -2.216,-0.247c-6.294,-1.781 -12.787,-3.621 -18.787,-6.54c-4.819,-2.35 -8.328,-5.985 -11.047,-11.438c-2.088,-4.2 -4.35,-7.94 -6.919,-11.443c-1.053,-1.444 -2.047,-2.963 -3.003,-4.429c-1.272,-1.95 -2.591,-3.968 -4.066,-5.821c-2.534,-3.163 -5.518,-6.107 -8.359,-8.854c-0.95,-0.915 -2.419,-1.625 -3.653,-1.771c-6.66,-0.766 -11.416,-2.36 -15.41,-5.166c-0.121,0.066 -0.237,0.125 -0.343,0.181c-0.241,0.122 -0.435,0.219 -0.547,0.35c-0.2,0.225 -0.344,0.5 -0.469,0.741c-0.034,0.065 -0.069,0.131 -0.1,0.19c0.363,0.791 0.703,1.547 1.069,2.347l0.872,1.916l-0.56,-0.006Zm-34.828,-99.707l-0.184,0.229c-2.603,3.196 -6.481,7.125 -10.144,7.665l-0.212,0.031l0,-0.218c0,-2.785 2.078,-6.566 3.821,-9.25l0.072,-0.113l0.128,0.035c2.072,0.512 4.15,1.025 6.235,1.55l0.284,0.071Zm-6.028,-2.118l-0.262,-0.066l0.153,-0.219c4.39,-6.447 10.668,-12.675 16,-15.865l0.434,-0.26l-0.162,0.478c-1.857,5.45 -5.641,12.291 -9.647,17.422l-0.075,0.1l-0.116,-0.031c-2.119,-0.528 -4.225,-1.044 -6.325,-1.559m-16.628,11.384c0.544,-0.831 1.044,-1.637 1.528,-2.419c1.003,-1.622 1.956,-3.153 3.069,-4.559c3.387,-4.256 4.087,-9.253 4.512,-14.003c0.244,-2.688 0.388,-5.435 0.532,-8.088c0.14,-2.665 0.287,-5.428 0.531,-8.134c0.64,-7.091 3.525,-13.006 8.575,-17.597c1.372,-1.244 2.737,-2.541 4.059,-3.794c4.044,-3.834 8.222,-7.8 13.138,-10.89c1.003,-0.632 2.034,-1.213 3.128,-1.825c0.528,-0.297 1.072,-0.597 1.625,-0.919l0.15,-0.081l0.097,0.137c2.19,3.141 2.565,6.472 1.143,10.166c-0.962,2.497 -2.178,4.956 -3.353,7.331c-0.481,0.975 -0.962,1.947 -1.431,2.925c-0.391,0.822 -0.797,1.644 -1.203,2.463c-0.697,1.409 -1.422,2.868 -2.063,4.328c-1.037,2.353 -1.325,4.7 -0.881,7.175c0.835,4.668 -2.15,8.156 -4.844,10.675c-1.587,1.487 -3.3,2.903 -4.956,4.272c-1.831,1.512 -3.728,3.078 -5.45,4.734c-0.465,0.45 -0.94,0.894 -1.422,1.341c-2.478,2.306 -5.04,4.69 -6.081,8.009c-0.159,0.512 -0.328,1.025 -0.503,1.534c-0.538,1.622 -1.1,3.3 -1.334,4.982c-0.391,2.715 -1.366,2.928 -4.129,3.15c-0.125,0.009 -0.253,0.015 -0.378,0.015c-0.753,0 -1.506,-0.162 -2.381,-0.344c-0.491,-0.103 -0.997,-0.212 -1.55,-0.3l-0.284,-0.043l0.156,-0.241Zm58.034,-50.259l0.488,0.131l-0.46,0.216c-2.343,1.096 -4.725,2.218 -7.046,3.353c-4.694,2.29 -9.429,5.047 -12.269,9.69c-0.506,0.828 -1.025,1.65 -1.541,2.469l-0.697,1.113l-0.765,-0.238l0.04,-0.169c0.294,-1.256 0.569,-2.547 0.832,-3.793c0.59,-2.8 1.203,-5.697 2.134,-8.454c0.931,-2.765 2.019,-5.484 3.244,-8.493l0.062,-0.15l0.16,0.04c5.846,1.566 11.025,2.969 15.818,4.285m25.369,57.79l0.366,0.122l-0.319,0.213c-0.334,0.225 -0.669,0.443 -1,0.659c-6.109,3.934 -9.419,5.813 -14.434,8.656c-1.466,0.835 -3.069,1.744 -4.932,2.813c-4,2.294 -8.522,4.419 -14.443,4.431c-2.566,0 -7.05,-0.728 -8.282,-2.678c-2.912,-6.838 -9.487,-10.741 -12.293,-12.406c-0.894,-0.532 -1.332,-0.797 -1.488,-0.994l-0.075,-0.094l0.056,-0.106c1.653,-3.109 2.753,-4.141 5.882,-5.528c2.503,-1.103 5.156,-1.994 7.725,-2.86c1.487,-0.496 3.018,-1.009 4.503,-1.559c0.968,-0.356 1.931,-0.691 2.834,-0.997l0.053,-0.019l0.056,0.016c13.96,3.719 25.332,7.006 35.791,10.331m119.903,72.947c0.96,1.26 0.86,2.816 -0.272,4.388c-0.643,0.887 -1.281,1.815 -1.893,2.709c-1.791,2.603 -3.635,5.297 -5.966,7.488c-4.059,3.825 -8.481,7.44 -12.766,10.937c-1.659,1.356 -3.378,2.759 -5.047,4.156c-0.484,0.403 -1.075,0.797 -1.803,1.2l-1.268,0.713c-5.735,3.197 -11.666,6.506 -17.522,9.722c-0.697,0.381 -1.472,0.665 -2.297,0.965c-0.4,0.141 -0.822,0.297 -1.26,0.469l-0.137,0.056l-0.084,-0.125c-1.466,-2.14 -0.985,-3.987 -0.369,-5.693c0.122,-0.338 0.281,-0.679 0.437,-1c0.294,-0.625 0.572,-1.219 0.616,-1.822c0.053,-0.666 -0.313,-1.71 -0.859,-2.06c-0.263,-0.165 -0.529,-0.25 -0.785,-0.25c-0.725,0 -1.278,0.669 -1.431,1.297c-0.494,1.975 -0.856,4.122 -1.163,6.947c-0.087,0.75 0.025,1.534 0.129,2.303c0.046,0.347 0.093,0.694 0.125,1.044l0.009,0.081l-0.059,0.06c-0.044,0.05 -0.088,0.112 -0.135,0.168c-0.115,0.153 -0.244,0.325 -0.44,0.375c-1.688,0.432 -2.91,0.744 -3.716,0.744c-1.697,0 -1.719,-1.256 -1.772,-4.612c-0.116,-7.163 3.059,-12.138 9.709,-15.207c0.672,-0.309 1.341,-0.622 2.01,-0.937c3.672,-1.719 7.462,-3.497 11.503,-4.794c3.9,-1.25 7.622,-3.216 11.216,-5.116c0.912,-0.481 1.825,-0.962 2.737,-1.437c3.041,-1.556 4.972,-4.238 6.459,-6.656c0.872,-1.419 0.763,-2.594 -0.353,-3.807c-0.862,-0.937 -1.672,-1.95 -2.528,-3.021c-0.406,-0.51 -0.834,-1.044 -1.294,-1.607l-0.184,-0.225l0.281,-0.075c0.457,-0.118 0.888,-0.234 1.303,-0.347c0.772,-0.206 1.5,-0.403 2.232,-0.578c0.987,-0.237 1.981,-0.462 2.972,-0.69c1.915,-0.441 3.903,-0.891 5.821,-1.419c0.569,-0.159 1.057,-0.234 1.497,-0.234c0.835,0 1.503,0.275 2.044,0.846c1.569,1.66 3.016,3.357 4.303,5.044m-59.922,26.116c-0.262,1.194 -0.565,2.387 -0.859,3.537c-0.203,0.794 -0.403,1.578 -0.591,2.363l-0.022,0.09l-0.734,0.344c-0.459,0.216 -0.922,0.435 -1.384,0.644c-5.019,2.244 -10.416,4.516 -16.047,6.766l-0.094,0.037l-0.084,-0.062c-0.982,-0.716 -1.907,-1.338 -2.825,-1.9c-0.66,-0.407 -1.313,-0.816 -2.128,-1.335l-1.513,-0.953l0.284,-0.147c4.807,-2.556 9.807,-4.109 14.635,-5.609c3.912,-1.216 7.606,-2.366 11.103,-3.985l0.344,-0.159l-0.085,0.369Zm45.941,76.322c1.147,0.834 1.772,2.056 1.719,3.347c-0.053,1.259 -0.769,2.403 -1.96,3.134c-5.009,3.075 -10.478,4.769 -16.25,5.028c-0.847,0.041 -1.69,0.063 -2.506,0.063c-1.291,0 -2.556,-0.054 -3.759,-0.15c-0.769,-0.066 -1.513,-0.347 -2.232,-0.616c-0.318,-0.125 -0.637,-0.244 -0.959,-0.347l-0.128,-0.041l-0.003,-0.131c-0.041,-4.003 -1.172,-7.712 -3.572,-11.681l-0.113,-0.184l0.197,-0.085c0.569,-0.231 1.125,-0.475 1.678,-0.712c2.71,-1.182 5.263,-2.294 8.382,-2.144l0.231,0.016c0.316,0.021 0.631,0.031 0.841,-0.032c0.321,-0.093 0.653,-0.322 0.681,-0.412c0.009,-0.288 -0.16,-0.747 -0.381,-0.863c-0.75,-0.384 -1.625,-0.797 -2.563,-0.797c-0.362,0 -0.709,0.063 -1.062,0.185c-0.5,0.172 -1,0.34 -1.504,0.512c-1.415,0.478 -2.878,0.975 -4.284,1.532c-1.319,0.521 -2.153,0.803 -2.762,0.803c-1.075,0 -1.438,-0.81 -2.232,-2.578l-0.225,-0.504l0.144,-0.087c0.178,-0.103 0.353,-0.216 0.531,-0.331c0.403,-0.253 0.819,-0.519 1.278,-0.719c3.322,-1.45 7.31,-2.938 11.641,-2.938l0.081,0c3.378,0.016 6.553,1.269 10.282,4.06c1.196,0.9 2.387,1.809 3.571,2.715c1.707,1.307 3.472,2.657 5.238,3.957m-28.641,12.5c-0.187,1.162 -1.15,2.356 -2.018,3.028c-3.563,2.747 -7.86,4.853 -13.138,6.44c-1.587,0.475 -3.287,0.707 -5.2,0.707c-2.425,0 -4.866,-0.372 -7.231,-0.732l-0.66,-0.1c-2.221,-0.34 -4.565,-0.493 -7.375,-0.493c-2.243,0 -4.515,0.1 -6.715,0.197l-0.978,0.046c-6.088,0.272 -11.094,-1.168 -15.397,-4.409c-3.372,-2.544 -6.819,-4.941 -10.25,-7.122c-1.575,-1.003 -2.347,-2.24 -2.425,-3.89c-0.01,-0.185 -0.019,-0.372 -0.031,-0.563c-0.1,-1.825 -0.207,-3.712 1.306,-5.303c0.415,-0.434 1.087,-0.813 1.85,-1.041c0.778,-0.231 1.594,-0.415 2.384,-0.593c1.397,-0.316 2.838,-0.641 4.072,-1.235c1.775,-0.853 3.691,-1.269 5.85,-1.269c1.997,0 3.981,0.341 6.184,0.754l0.685,0.128c1.965,0.368 4.003,0.753 6.009,0.865c0.363,0.019 0.725,0.032 1.081,0.032c2.694,0 4.969,-0.597 6.947,-1.825c1.085,-0.675 2.341,-1.163 3.55,-1.635c0.266,-0.103 0.528,-0.209 0.791,-0.312l0.225,-0.091c1.109,-0.444 2.25,-0.9 3.494,-0.9c0.55,0 1.075,0.084 1.603,0.269c0.109,0.037 0.4,-0.094 0.656,-0.222c0.075,-0.034 0.147,-0.069 0.222,-0.103c-0.9,-1.235 -1.484,-1.66 -2.269,-1.66c-0.434,0 -0.953,0.129 -1.728,0.438c-0.822,0.322 -1.644,0.666 -2.462,1.003c-2.413,1.003 -4.91,2.038 -7.494,2.663c-0.916,0.218 -1.963,0.328 -3.21,0.328c-1.04,0 -2.109,-0.072 -3.143,-0.144c-0.447,-0.031 -0.891,-0.059 -1.325,-0.084c-1.016,-0.06 -2.028,-0.266 -3.003,-0.472c-0.672,-0.141 -1.369,-0.282 -2.054,-0.375c-1.746,-0.232 -3.465,-0.419 -5.281,-0.613c-0.759,-0.081 -1.519,-0.162 -2.284,-0.25l-0.522,-0.059l0.437,-0.281c0.597,-0.385 1.197,-0.794 1.81,-1.213c1.415,-0.962 2.872,-1.959 4.469,-2.791c4.465,-2.321 10.44,-5.221 17.025,-7c5.178,-1.4 10.596,-0.9 15.909,1.463l0.109,0.044c0.147,0.062 0.316,0.131 0.435,0.256c1.953,2.091 4.525,3.578 7.012,5.016c1.075,0.618 2.185,1.259 3.235,1.943c0.665,0.435 1.09,1.125 1.506,1.797c0.165,0.278 0.344,0.566 0.534,0.825c0.838,1.153 1.669,2.313 2.635,3.66l1.481,2.056l-0.51,-0.138c-0.462,-0.125 -0.859,-0.228 -1.206,-0.322c-0.634,-0.162 -1.137,-0.293 -1.615,-0.459c-1.266,-0.425 -2.519,-0.859 -3.779,-1.297c-1.031,-0.356 -2.065,-0.715 -3.1,-1.065l-0.043,-0.016c-0.419,-0.144 -0.853,-0.291 -1.275,-0.319c-0.191,-0.012 -0.394,-0.037 -0.603,-0.065c-0.272,-0.035 -0.56,-0.072 -0.819,-0.072c-0.6,0 -0.919,0.209 -1.066,0.706c-0.09,0.294 -0.078,0.519 0.028,0.687c0.232,0.354 0.894,0.45 1.422,0.529c0.163,0.025 0.313,0.046 0.444,0.071c3.55,0.722 6.794,2.15 9.934,3.529c0.95,0.421 1.935,0.853 2.91,1.259c0.665,0.281 1.225,0.994 1.428,1.562c0.872,2.375 1.044,5.069 0.537,8.232m61.085,39.64c0.29,-1.237 0.025,-2.656 -0.235,-4.022c-0.112,-0.609 -0.231,-1.24 -0.303,-1.85c-0.028,-0.253 -0.078,-0.5 -0.128,-0.759l-0.191,-1.031l0.454,0.559c2.721,3.325 3.625,7.328 2.934,12.985l-0.056,0.443l-0.278,-0.353c-0.125,-0.162 -0.25,-0.319 -0.372,-0.472c-1.294,-1.628 -2.407,-3.028 -1.825,-5.5m-12.46,3.06l0.297,-0.2c2.06,-1.4 3.7,-2.519 5.756,-3.913l0.144,-0.097l7.544,9.488l-13.741,-5.278Zm-1.7,-1.353c-0.497,0 -1.081,-0.172 -1.425,-0.422c-1.609,-1.163 -3.197,-2.413 -4.731,-3.622c-0.547,-0.431 -1.087,-0.86 -1.637,-1.288l-0.1,-0.078l0.256,-0.822l0.109,-0.018c0.556,-0.104 1.116,-0.213 1.678,-0.325c1.378,-0.269 2.81,-0.55 4.228,-0.725c0.635,-0.075 1.388,0.115 2.279,0.556c1.109,0.55 2.212,1.165 3.378,1.819c0.503,0.284 1.028,0.578 1.584,0.884l0.253,0.141l-0.234,0.175c-0.5,0.362 -0.978,0.721 -1.444,1.075c-1.2,0.903 -2.331,1.753 -3.531,2.5c-0.169,0.1 -0.388,0.15 -0.663,0.15m-11.2,-9.888c-0.543,-0.987 -1.112,-2.028 -1.684,-3.066l-0.072,-0.121l0.606,-0.591l7.903,4.334l-0.046,0.147c-0.057,0.191 -0.122,0.385 -0.185,0.575l-0.04,0.125l-5.713,0l-0.769,-1.403Zm-1.34,-7.203l10.137,-0.675l0.063,0.069c2.062,2.262 3.172,5.04 4.24,7.731c0.157,0.394 0.316,0.794 0.482,1.187l0.159,0.407l-0.4,-0.163c-5.644,-2.212 -10.631,-5.119 -14.763,-7.669l-0.115,-0.068l0.197,-0.819Zm13.456,-0.4c3.475,0.453 6.178,1.809 8.581,3.216c0.519,0.296 0.835,0.987 1.088,1.546c1.462,3.232 2.031,6.666 1.853,11.172l-0.01,0.372l-1.003,-0.812c-0.368,-0.3 -0.647,-0.525 -0.922,-0.75c-0.265,-0.225 -0.525,-0.472 -0.778,-0.716c-0.547,-0.525 -1.065,-1.028 -1.681,-1.281c-2.519,-1.038 -3.378,-3.235 -4.209,-5.353c-0.616,-1.572 -1.313,-3.128 -2.06,-4.778c-0.34,-0.757 -0.69,-1.538 -1.053,-2.36l-0.134,-0.3l0.328,0.044Zm19.762,3.812l0.147,-0.393l3.372,6.403l-5.14,10.644l-0.041,-0.716c-0.341,-6.1 -0.184,-10.891 1.662,-15.938m1.516,-3.8l0.019,-0.05c0.819,-2.584 2.447,-4.581 4.325,-6.89l0.378,-0.466l3.187,5.466c0.479,0.822 0.138,1.531 -0.221,2.131c-0.972,1.634 -1.938,3.272 -3.022,5.116l-1.622,2.753l-0.156,-0.303c-0.31,-0.632 -0.61,-1.222 -0.9,-1.797c-0.804,-1.591 -1.494,-2.969 -2.138,-4.397c-0.197,-0.438 -0.003,-1.063 0.15,-1.563m6.028,-9.106c2.15,-2.312 4.378,-4.462 6.825,-6.569l0.281,-0.243l0.022,0.372c0.097,1.35 0.282,1.418 1.969,1.615l0.35,0.047l-0.103,0.25l-6.125,10.475l-3.309,-5.847l0.09,-0.1Zm8.603,-8.053c1.616,-1.312 2.991,-2.366 4.335,-3.322l0.703,-0.5l-2.241,3.838l-0.097,0.012c-0.793,0.088 -1.587,0.185 -2.384,0.281l-0.813,0.1l0.497,-0.409Zm5.407,-0.553c0.734,-0.9 1.468,-1.709 2.25,-2.472l0.412,-0.403l-0.259,1.484c-0.078,0.475 -0.163,0.953 -0.244,1.428l-0.028,0.147l-0.488,0.016c-0.415,0.022 -0.831,0.05 -1.243,0.087l-0.675,0.054l0.275,-0.341Zm-5.947,22.803l-0.063,0.244c-0.731,2.897 -8.269,11.175 -15.225,16.719l-0.484,0.381l0.19,-0.588c1.716,-5.325 4.225,-9.787 6.65,-14.103c0.394,-0.703 0.785,-1.397 1.169,-2.09l0.05,-0.091l0.103,-0.003l7.61,-0.469Zm0.234,-13.519l0.191,-0.375c0.922,-1.837 1.737,-3.328 2.562,-4.687l0.069,-0.11l0.125,0.019c1.491,0.272 2.766,0.572 3.891,0.913l0.159,0.047l-0.028,0.162c-0.025,0.128 -0.047,0.259 -0.069,0.388c-0.022,0.14 -0.047,0.278 -0.072,0.418c-0.159,0.963 -0.647,1.525 -1.537,1.763c-1.075,0.284 -2.15,0.584 -3.316,0.909l-1.975,0.553Zm5.413,0.378l0.075,0.082c0.146,0.159 0.29,0.315 0.437,0.475l0.113,0.122l-1.082,2.812c-0.728,1.909 -1.459,3.816 -2.203,5.719c-0.434,1.128 -1.212,1.669 -2.45,1.712c-1,0.035 -2.019,0.169 -3.006,0.297c-0.597,0.075 -1.213,0.156 -1.822,0.216c-0.062,0.003 -0.128,0.006 -0.191,0.006c-0.237,0 -0.481,-0.037 -0.759,-0.078c-0.178,-0.028 -0.369,-0.059 -0.581,-0.084l-0.272,-0.025l0.475,-0.913c1.522,-2.903 2.962,-5.656 4.419,-8.447l0.04,-0.072l6.807,-1.822Zm3.309,-3.118c0.034,-0.191 0.069,-0.382 0.103,-0.572l0.038,-0.219l0.212,0.078c4.719,1.806 9.05,4.619 13.244,8.6c7.297,6.935 12.64,15.475 17.078,22.931l0.144,0.241l-0.278,0.041c-19.269,2.593 -38.132,4.975 -56.072,7.068l-0.31,0.038l0.113,-0.294c0.194,-0.481 0.519,-0.934 0.969,-1.331l0.762,-0.684c5.147,-4.588 10.466,-9.335 14.856,-14.825c1.9,-2.382 3.591,-4.794 5.022,-7.182c2.119,-3.528 2.906,-7.59 3.669,-11.522c0.094,-0.484 0.187,-0.968 0.281,-1.45c0.06,-0.306 0.119,-0.609 0.169,-0.918m1.872,-4.013c0.119,0 0.24,-0.009 0.365,-0.019c0.307,-0.015 0.604,-0.021 0.835,0.032c5.772,1.403 10.487,3.806 14.422,7.356c4.687,4.222 8.693,9.684 12.6,17.184c1.362,2.61 2.809,5.741 3.209,9.178l0.078,0.688l-0.412,-0.553c-0.738,-0.991 -1.407,-2.038 -2.053,-3.05c-0.497,-0.775 -1.01,-1.581 -1.547,-2.347c-0.822,-1.169 -1.628,-2.353 -2.435,-3.538c-2.272,-3.331 -4.618,-6.781 -7.272,-9.871c-5.875,-6.829 -11.556,-11.507 -17.875,-14.71l-0.693,-0.35l0.778,0Zm26.253,-21.322l-0.059,-0.5l0.368,0.344c0.694,0.644 1.078,1.188 1.247,1.766c0.278,0.94 0.569,1.881 0.86,2.822c0.837,2.703 1.703,5.5 2.268,8.315c1.038,5.169 1.919,10.46 2.772,15.575c0.319,1.903 0.638,3.806 0.963,5.706c0.047,0.279 0.015,0.56 -0.022,0.835c-0.016,0.122 -0.031,0.244 -0.038,0.365l-0.053,0.897l-0.306,-0.843c-3.956,-10.885 -6.572,-22.425 -8,-35.282m10.391,44.347c0.143,-8.112 0.287,-16.503 0.496,-24.756c0.066,-2.684 0.282,-5.384 0.638,-8.006c0.281,-2.088 0.681,-4.194 1.072,-6.232c0.175,-0.909 0.35,-1.825 0.515,-2.737l0.029,-0.156l0.95,0.037l0.006,0.172c0.834,18.134 -0.185,34.156 -3.122,48.988l-0.172,0.884l-0.191,-0.881c-0.212,-0.991 -0.315,-1.994 -0.3,-2.985l0.079,-4.328Zm13.468,-26.728c0,0 0.828,-3.944 1.257,-6l0.059,-0.306l0.241,0.203c3.306,2.819 5.456,6.516 5.393,8.194l-0.012,0.359l-0.291,-0.219c-0.206,-0.162 -0.45,-0.334 -0.712,-0.525c-0.672,-0.481 -1.513,-1.081 -2.216,-1.793c-0.994,-1.004 -1.612,-1.032 -2.478,-0.135c-0.175,0.175 -3.294,15.291 -3.294,15.291c0,0 -0.778,2.294 -1.153,3.431l-0.272,0.825l-0.087,-0.866c-0.022,-0.171 -0.047,-0.35 -0.069,-0.528c-0.159,-1.165 3.634,-17.931 3.634,-17.931m-486.715,27.234c12.284,-9.043 25.09,-16.531 38.062,-22.253c5.235,-2.347 10.803,-4.253 16.197,-6.097c1.484,-0.509 2.975,-1.015 4.453,-1.534c4.816,-1.709 9.75,-3.3 14.525,-4.841l0.356,-0.115l0.082,0.106c0.609,0.803 1.49,1.203 2.781,1.256l0.103,0c0.881,0 1.45,-0.472 1.906,-1.587c0.188,-0.46 0.416,-0.91 0.635,-1.341l0.134,-0.262l0.369,-0.119c18.659,-5.938 37.631,-11.394 55.981,-16.666c9.047,-2.603 18.406,-5.297 27.541,-7.99c6.315,-1.86 12.69,-3.788 18.859,-5.65c7.266,-2.197 14.784,-4.466 22.153,-6.613l43.116,-12.581c7.465,-2.209 15.181,-4.494 22.447,-6.816l0.175,-0.053l0.059,0.172c0.684,2.053 0.525,4.013 -0.466,5.828c-0.346,0.628 -0.881,1.485 -1.55,2.569c-2.637,4.237 -7.043,11.331 -7.743,17.062c-0.1,0.441 -0.038,0.81 0.187,1.088c0.288,0.366 0.831,0.566 1.535,0.566l0.462,-0.007c2.95,-0.043 5.734,-0.081 8.388,-1.334c1.818,-0.856 3.812,-1.734 6.268,-2.769c6.982,-2.925 10.472,-7.025 12.453,-14.609c0.241,-0.931 0.116,-2.003 0.007,-2.953c-0.119,-1.022 -0.21,-1.832 0.162,-2.247c0.375,-0.425 1.103,-0.347 2.4,0.287c3.481,1.141 7.063,2.263 10.528,3.353c1.422,0.444 2.844,0.894 4.266,1.341c0.587,0.188 1.175,0.391 1.756,0.597c1.219,0.428 2.475,0.869 3.75,1.116c0.416,0.081 0.822,0.118 1.2,0.118c1.994,0 3.341,-1.128 3.694,-3.1c0.378,-2.084 0.347,-3.856 -0.081,-5.265c-1.766,-5.785 -5.216,-10.785 -10.263,-14.857l-0.55,-0.446l0.691,0.115c5.1,-2.059 10.194,-4.228 15.14,-6.45c0.191,-0.09 0.382,-0.178 0.575,-0.269l0.725,-0.337l-0.071,0.362c-0.266,1.332 -0.429,2.444 -0.51,3.491c-0.025,0.388 -0.056,0.775 -0.09,1.163c-0.269,3.29 -0.547,6.69 1.212,9.781c6.878,-1.203 13.081,-3.463 18.956,-6.903c1.657,-0.972 3.41,-1.853 5.103,-2.703c1.144,-0.579 2.322,-1.172 3.463,-1.788c1.966,-1.066 3.662,-2.081 5.184,-3.103c8.357,-5.631 15.438,-11.394 21.647,-17.625c4.066,-4.078 7.397,-8.419 9.9,-12.894c0.813,-1.45 0.731,-2.9 -0.24,-4.3c-1.072,-1.544 -2.216,-3.044 -3.425,-4.637c-0.541,-0.703 -1.091,-1.428 -1.66,-2.182l-0.147,-0.203l0.238,-0.084c5.731,-2.106 9.069,-6.528 12.297,-10.806l0.781,-1.032l0.103,0.007c1.694,0.153 3.028,0.222 4.194,0.222c2.706,0 4.594,-0.388 6.509,-1.341c5.685,-2.831 8.894,-7.856 9.541,-14.947c0.578,-6.419 -0.972,-12.766 -4.61,-18.859l-0.106,-0.175c-0.406,-0.691 -0.831,-1.403 -1.562,-1.403c-0.157,0 -0.328,0.034 -0.513,0.1c-1.153,0.4 -1.622,1.284 -1.362,2.546c0.193,0.96 0.218,1.807 0.068,2.597c-0.034,0.185 -0.046,0.366 -0.059,0.56c-0.05,0.675 -0.103,1.437 -1.028,2.634c-2.678,4.444 -6.113,5.809 -10.081,7.384c-1.007,0.4 -2.044,0.813 -3.1,1.288l-0.15,0.066l-0.088,-0.135c-0.256,-0.403 -0.494,-0.765 -0.712,-1.097c-0.457,-0.684 -0.844,-1.272 -1.153,-1.89c-2.057,-4.066 -5.079,-7.435 -7.488,-9.91c-0.694,-0.718 -1.322,-1.515 -1.925,-2.287c-0.322,-0.406 -0.641,-0.816 -0.975,-1.213c-5.019,-6.009 -9.806,-10.922 -14.637,-15.012c-7.432,-6.291 -15.704,-11.975 -24.575,-16.9c-2.791,-1.55 -5.804,-3.119 -9.257,-3.76c-3.856,-0.718 -7.097,-1.281 -10.39,-1.7c-2.788,-0.353 -5.582,-0.534 -8.297,-0.534c-7.113,0 -14.072,1.231 -20.678,3.656c-4.472,1.641 -7.525,2.885 -12.207,6.325c-2.878,1.285 -6.64,4.075 -10.278,6.775c-1.575,1.169 -3.203,2.375 -4.756,3.463l-0.075,0.053l-0.087,-0.031c-10.394,-3.297 -21.575,-6.513 -35.182,-10.125l-0.593,-0.157l0.578,-0.196c3.459,-1.191 6.815,-2.435 9.843,-4.538c6.344,-4.409 10.375,-9.453 12.313,-15.416c2.222,-6.828 5.237,-12.596 9.231,-17.625c0.556,-0.703 1.125,-1.487 1.735,-2.4l0.075,-0.112l0.131,0.034c12.606,3.413 25.344,6.675 38.828,10.132c3.328,0.853 6.675,1.709 10.041,2.575c23.109,5.968 44,11.481 65.609,18.515c12.372,4.038 23.269,8.075 33.312,12.338c12.313,5.222 22.891,10.634 32.344,16.54c11.66,7.316 20.975,15.019 28.485,23.541c4.168,4.694 7.846,9.809 10.94,15.212c1.569,2.688 2.916,5.544 4.006,8.485c1.016,2.784 1.757,5.856 2.194,9.131c0.763,5.706 0.31,12.038 -1.356,18.822c-0.791,3.15 -1.75,6.231 -2.847,9.156c-0.125,0.319 -0.247,0.644 -0.369,0.969c-0.44,1.166 -0.897,2.372 -1.412,3.491c-0.625,1.487 -1.344,2.806 -2.103,4.2l-0.041,0.075c-2.878,4.981 -6.775,9.94 -11.903,15.165c-4.45,4.463 -9.413,8.769 -14.756,12.794c-9.807,7.434 -21.119,14.378 -33.625,20.637c-12.838,6.363 -24.985,11.082 -37.128,14.441c-5.11,1.409 -10.679,2.791 -17.529,4.353l-0.084,0.019l-0.275,-0.216c-2.45,-1.972 -4.987,-4.012 -8.137,-5.325c-3.338,-1.39 -6.125,-1.762 -8.732,-1.181c-2.997,0.669 -5.934,1.509 -9.037,2.4c-1.35,0.388 -2.725,0.778 -4.144,1.172l-0.075,0.022l-0.066,-0.041c-0.331,-0.184 -0.687,-0.375 -1.056,-0.575c-0.865,-0.472 -1.85,-1.003 -2.769,-1.587c-0.512,-0.328 -1.025,-0.65 -1.54,-0.972c-1.788,-1.119 -3.641,-2.272 -5.241,-3.619c-2.778,-2.334 -6.278,-3.656 -10.397,-3.919c-1.059,-0.065 -2.028,-0.1 -2.965,-0.1c-4.282,0 -7.716,0.703 -10.81,2.203c-1.268,0.619 -2.643,1.116 -3.975,1.591c-1.534,0.556 -3.122,1.125 -4.537,1.884c-5.216,2.797 -10.425,5.775 -15.463,8.657c-1.64,0.937 -3.281,1.875 -4.925,2.806l-0.272,0.153c-0.703,0.394 -1.428,0.8 -1.896,1.338c-1.857,2.115 -2.672,5.246 -2.132,8.175c0.532,2.878 2.322,5.256 5.044,6.69c1.047,0.55 2.075,1.131 3.066,1.731l0.347,0.21l-0.388,0.125c-3.869,1.259 -7.091,2.372 -10.131,3.494c-6.941,2.568 -13.103,5.234 -18.838,8.143c-6.672,3.375 -12.384,6.947 -17.459,10.919c-5.906,4.634 -10.656,9.716 -14.109,15.109c-0.9,1.391 -1.741,2.875 -2.579,4.538c-0.081,0.15 -0.231,0.444 -0.3,0.619l-0.256,0.593c-0.206,0.563 -0.35,1.022 -0.431,1.394c-0.231,0.925 -0.263,1.947 -0.094,2.953c0.406,2.366 2.122,4.025 3.11,4.803c1.265,1.007 2.756,1.85 4.687,2.654c2.819,1.146 5.913,2.003 10.028,2.784c3.053,0.578 6.388,1.044 10.188,1.428c6.04,0.6 12.531,0.95 20.428,1.1c2.531,0.047 5.147,0.069 7.784,0.069c9.797,0 20.25,-0.294 32.888,-0.919c12.422,-0.625 25.609,-1.525 40.315,-2.747c20.213,-1.69 41.341,-3.815 64.603,-6.497l0.132,-0.015l0.056,0.118c0.037,0.075 0.081,0.15 0.122,0.222c0.069,0.113 0.134,0.228 0.184,0.357c0.272,0.671 0.647,0.912 1.135,0.725c0.306,-0.116 0.612,-0.644 0.693,-1.044c0.022,-0.1 0.025,-0.216 0.025,-0.335l0.013,-0.303l2.819,-0.331c3.184,-0.369 6.368,-0.734 9.54,-1.119c14.5,-1.753 29.394,-3.662 45.535,-5.834l0.125,-0.019l0.062,0.113c0.663,1.209 1.153,2.218 1.544,3.178c0.615,1.5 1.381,2.112 2.622,2.059c1.909,-0.081 3.1,-0.684 3.862,-1.95c0.844,-1.409 1.669,-2.925 2.597,-4.769l0.047,-0.087l0.097,-0.013c7.4,-1.018 14.153,-1.968 20.653,-2.903c9.737,-1.375 9.356,-3.937 -0.369,-2.565c-6.278,0.9 -12.565,1.781 -18.697,2.634l-0.337,0.044l0.14,-0.306c2.313,-5.075 4.235,-10.422 6.094,-15.591l0.306,-0.85c0.632,-1.75 0.991,-3.641 1.341,-5.466c0.163,-0.853 0.328,-1.737 0.525,-2.597c0.381,-1.696 0.766,-3.396 1.163,-5.146l0.896,-3.947l0.229,0.175c3.993,2.993 6.893,6.509 8.871,10.747c0.966,2.059 1.835,4.203 2.675,6.275c0.375,0.921 0.747,1.84 1.129,2.756c0.062,0.144 0.112,0.306 0.162,0.472c0.097,0.318 0.197,0.647 0.378,0.772c0.606,0.406 1.303,0.65 1.856,0.65c0.185,-0.088 0.597,-1.025 0.5,-1.4l-0.325,-1.197c-0.65,-2.432 -1.325,-4.947 -2.312,-7.278c-0.916,-2.157 -2.038,-4.269 -3.128,-6.316c-0.553,-1.041 -1.125,-2.116 -1.666,-3.188c-0.434,-0.862 -0.709,-1.581 -0.872,-2.25c-0.775,-3.281 -2.362,-6.331 -4.862,-9.318c-0.763,-0.91 -1.628,-1.982 -2.278,-3.157c-0.653,-1.184 -1.435,-1.462 -2.928,-1.062c-1.5,5.259 -2.641,10.728 -3.744,16.019c-1.447,6.953 -2.947,14.137 -5.285,21.009l-0.534,1.572l0.553,-5.256c0.291,-2.725 0.578,-5.45 0.85,-8.178c0.041,-0.41 0.085,-0.822 0.125,-1.232c0.169,-1.628 0.347,-3.309 0.363,-4.965c0.072,-7.816 0.078,-13.857 0.009,-19.582c-0.103,-8.24 1.109,-16.428 3.6,-24.331l0.05,-0.169c0.369,-1.143 0.653,-2.046 -0.534,-2.7c-0.685,-0.375 -1.575,0.569 -2.035,2.063c-0.512,1.669 -1.034,3.334 -1.556,5.003c-1.053,3.372 -2.144,6.859 -3.141,10.309c-0.209,0.744 -0.428,1.482 -0.646,2.219c-1.485,5.05 -3.025,10.266 -3.097,15.694c-0.01,0.494 -0.072,0.981 -0.157,1.597c-0.043,0.337 -0.093,0.712 -0.14,1.147l-0.106,0.925l-0.26,-0.897c-0.55,-1.888 -1.072,-3.735 -1.581,-5.55c-1.172,-4.153 -2.278,-8.081 -3.584,-11.972c-1.107,-3.294 -1.697,-6.709 -2.275,-10.016l-0.222,-1.272c-0.228,-1.309 -0.557,-2.543 -0.969,-3.662c-0.147,-0.413 -0.7,-0.884 -1.072,-0.919c-0.378,0 -0.95,0.391 -1.128,0.747c-0.344,0.681 -0.525,1.472 -0.5,2.169c0.041,1.253 0.069,2.509 0.091,3.765c0.075,3.535 0.15,7.194 0.581,10.744c1.1,9.141 2.503,16.541 4.419,23.291c1.675,5.9 3.29,11.681 4.628,17.509c0.478,2.103 0.656,4.306 0.828,6.435c0.078,0.953 0.159,1.934 0.262,2.896l0.019,0.163l-0.841,0.2l-0.068,-0.125c-0.066,-0.122 -0.138,-0.244 -0.21,-0.366c-0.168,-0.281 -0.347,-0.568 -0.453,-0.884c-2.869,-8.347 -7.7,-15.841 -14.762,-22.909c-4.285,-4.288 -9.303,-7.129 -14.925,-8.444c-0.997,-0.238 -2.132,-0.372 -3.457,-0.416l-0.212,-0.009l0.034,-0.206c0.166,-1.085 0.325,-2.172 0.485,-3.257c0.275,-1.881 0.562,-3.822 0.868,-5.728c0.125,-0.787 0.029,-1.309 -0.815,-1.59c-0.35,0.331 -0.71,0.665 -1.063,1.003c-0.818,0.768 -1.659,1.568 -2.528,2.328c-3.775,3.309 -7.265,6.34 -10.675,9.275c-3.753,3.228 -6.722,6.44 -9.078,9.834c-2.95,4.25 -4.831,9.05 -5.581,14.269c-0.05,0.337 -0.185,0.647 -0.335,1.003c-0.075,0.172 -0.153,0.347 -0.228,0.544l-0.131,0.353l-0.197,-0.319c-0.337,-0.528 -0.65,-1.047 -0.959,-1.547c-0.675,-1.1 -1.313,-2.134 -1.991,-3.137c-0.175,-0.256 -0.347,-0.522 -0.519,-0.791c-0.578,-0.915 -1.175,-1.856 -1.993,-2.403c-4.235,-2.844 -8.288,-4.287 -12.394,-4.419c-1.978,-0.059 -3.984,0.103 -5.931,0.269c-1.663,0.134 -3.378,0.278 -5.072,0.278c-1.953,0 -3.66,-0.194 -5.222,-0.597c-0.4,-0.103 -0.75,0.022 -0.931,0.332c-0.2,0.34 -0.175,0.821 0.062,1.256c0.191,0.34 0.406,0.672 0.619,0.997c0.25,0.378 0.509,0.768 0.719,1.178c0.622,1.181 1.234,2.397 1.825,3.572c1.05,2.078 2.131,4.234 3.297,6.287c3.637,6.41 8.59,10.094 15.146,11.263c2.9,0.515 5.722,1.656 8.604,2.868c1.04,0.441 2.006,1.06 2.868,1.844l0.303,0.275l-0.406,0.047c-22.2,2.55 -42.75,4.65 -62.825,6.416c-14.656,1.262 -27.815,2.193 -40.234,2.85c-13.116,0.681 -23.922,1 -34.003,1c-2.197,0 -4.388,-0.016 -6.51,-0.047c-7.831,-0.128 -14.265,-0.46 -20.25,-1.041c-3.762,-0.369 -7.034,-0.819 -10.006,-1.369c-3.916,-0.731 -6.969,-1.565 -9.612,-2.634c-1.713,-0.706 -3.079,-1.472 -4.175,-2.334c-1.335,-1.057 -2.157,-2.278 -2.369,-3.535c-0.122,-0.756 -0.1,-1.447 0.069,-2.118c0.081,-0.357 0.171,-0.638 0.312,-1.025l0.253,-0.594c0.056,-0.15 0.1,-0.231 0.16,-0.347l0.09,-0.175c0.803,-1.6 1.603,-3.022 2.456,-4.35c3.313,-5.203 7.894,-10.125 13.613,-14.634c4.944,-3.894 10.541,-7.41 17.106,-10.747c5.653,-2.885 11.741,-5.528 18.619,-8.091c3.55,-1.325 7.412,-2.647 11.791,-4.053l0.087,-0.028l0.078,0.05c2.263,1.565 4.178,3.165 5.853,4.887c2.55,2.625 5.785,3.957 9.616,3.957c0.362,0 0.734,-0.013 1.103,-0.035c0.988,-0.065 1.991,-0.159 2.959,-0.253c1.069,-0.1 2.182,-0.203 3.279,-0.269c0.946,-0.053 1.946,-0.084 2.965,-0.084c4.013,0 8.06,0.441 11.972,0.862c0.613,0.066 1.228,0.135 1.844,0.197c1.419,0.15 3.025,0.322 4.575,0.322c2.278,0 4.087,-0.365 5.694,-1.147l0.662,-0.318c5.406,-2.625 11,-5.338 14.313,-10.36l0.059,-0.094l0.112,0.013c0.429,0.041 0.85,0.087 1.269,0.137c0.938,0.104 1.822,0.204 2.725,0.232c0.585,0.015 1.178,0.047 1.769,0.078c0.891,0.04 1.812,0.087 2.709,0.087c0.978,0 1.819,-0.056 2.582,-0.172c6.812,-1.034 12.268,-3.275 16.678,-6.853c2.281,-1.853 3.362,-3.578 3.603,-5.765c0.184,-1.697 -0.556,-2.966 -2.335,-3.994c-1.271,-0.734 -2.565,-1.6 -4.062,-2.725l-0.322,-0.241l0.391,-0.09c6.215,-1.453 11.275,-2.732 15.931,-4.025c12.069,-3.363 24.647,-8.282 37.387,-14.622c12.579,-6.338 23.963,-13.353 33.825,-20.863c5.391,-4.078 10.397,-8.44 14.888,-12.968c5.212,-5.325 9.169,-10.391 12.103,-15.491c0.813,-1.488 1.591,-2.944 2.197,-4.4c0.534,-1.175 0.978,-2.359 1.412,-3.503c0.132,-0.35 0.266,-0.703 0.4,-1.056c1.113,-2.988 2.079,-6.122 2.872,-9.31c1.166,-4.806 1.747,-9.45 1.716,-13.803l-0.006,-1.219c-0.151,-3.343 -0.589,-6.574 -1.397,-9.662l-0.288,-1.028c-0.334,-1.178 -0.637,-2.141 -0.959,-3.022c-1.144,-3.05 -2.491,-5.894 -4.125,-8.691c-3.144,-5.472 -6.888,-10.653 -11.128,-15.406c-7.603,-8.597 -17.028,-16.353 -28.8,-23.713c-9.516,-5.915 -20.163,-11.337 -32.547,-16.559c-10.003,-4.219 -20.941,-8.237 -33.438,-12.281c-21.643,-6.981 -42.565,-12.444 -65.712,-18.353c-3.353,-0.853 -6.691,-1.697 -10.006,-2.538c-13.391,-3.39 -26.041,-6.594 -38.566,-9.94l-0.244,-0.066l0.138,-0.213c1.209,-1.912 2.287,-3.846 3.469,-5.987c1.503,-2.738 0.084,-5.447 -1.319,-7.506c-0.513,-0.744 -1.347,-1.107 -2.556,-1.107c-0.866,0 -1.763,0.191 -2.36,0.338c-4.134,1.003 -7.206,1.978 -9.947,3.156c-3.284,1.41 -6.834,3 -10.843,4.866l-0.063,0.031l-0.062,-0.019c-5.035,-1.368 -10.391,-2.803 -16.857,-4.518l-0.203,-0.054l0.078,-0.196c1.082,-2.66 1.975,-4.879 2.794,-7.204c1.197,-3.4 1.097,-6.593 -0.287,-9.49c-1.175,-2.438 -3.038,-3.056 -5.36,-1.803c-2.359,1.278 -4.834,2.665 -6.89,4.393c-2.766,2.316 -5.491,4.76 -8.129,7.125c-0.684,0.616 -1.368,1.229 -2.056,1.844l-0.072,0.066l-0.1,-0.028c-2.984,-0.785 -5.956,-1.569 -8.89,-2.353c-16.678,-4.435 -34.394,-9.216 -50.96,-14.119c-3.65,-1.088 -7.265,-2.203 -10.765,-3.281c-4.241,-1.313 -8.25,-2.547 -12.285,-3.725c-7.772,-2.263 -14.743,-4.319 -21.415,-6.6c-3.769,-1.285 -7,-2.491 -9.875,-3.685c-2.835,-1.194 -6.113,-2.669 -8.991,-4.544c-1.256,-0.843 -2.662,-1.884 -3.556,-3.231c-0.86,-1.322 -1.097,-3.009 -0.638,-4.515c0.375,-1.269 1.153,-2.547 2.378,-3.904c0.907,-0.993 1.975,-1.946 3.363,-3.006c4.816,-3.562 9.919,-5.997 14.737,-8.178c4.175,-1.856 8.579,-3.603 13.857,-5.509c4.918,-1.766 9.84,-3.403 15.225,-5.063c-4.125,1.26 -9.366,2.931 -15.241,5.022c-5.294,1.897 -9.703,3.634 -13.872,5.472c-4.831,2.175 -9.956,4.594 -14.787,8.153c-1.391,1.059 -2.472,2.016 -3.388,3.016c-1.259,1.387 -2.031,2.647 -2.425,3.956c-0.475,1.522 -0.231,3.294 0.638,4.634c0.953,1.435 2.362,2.457 3.609,3.303c2.878,1.894 6.031,3.322 9.009,4.585c2.872,1.203 6.107,2.425 9.882,3.725c6.631,2.284 13.618,4.365 21.406,6.659c4.028,1.185 8.037,2.435 12.284,3.76c3.494,1.087 7.103,2.212 10.741,3.303c16.587,4.962 34.284,9.79 50.937,14.268c2.744,0.738 5.519,1.479 8.307,2.225l0.334,0.088l-0.256,0.228c-1.391,1.241 -2.531,2.238 -3.594,3.147c-5.216,4.475 -8.412,10.062 -9.512,16.612c-0.538,3.207 -0.754,6.513 -0.963,9.716c-0.05,0.813 -0.103,1.619 -0.159,2.428c-0.107,1.444 -0.157,2.919 -0.203,4.347c-0.066,2.022 -0.138,4.116 -0.363,6.159c-0.109,1 -0.341,2.035 -0.725,3.26l-0.056,0.165l-0.166,-0.04l-29.259,-6.878c-16.003,-3.869 -36.778,-9.16 -55.55,-15.778c-9.385,-3.325 -17.328,-6.616 -24.291,-10.066c-8.481,-4.213 -15.219,-8.491 -20.59,-13.088c-6.516,-5.531 -10.95,-11.803 -12.819,-18.137c-2.341,-7.175 -2.613,-14.159 -0.791,-20.197c1.628,-5.572 4.975,-10.706 9.95,-15.256c3.688,-3.385 7.931,-6.322 13.356,-9.238c4.735,-2.54 9.341,-4.362 12.822,-5.665c0.888,-0.338 1.772,-0.669 2.647,-0.985c-0.875,0.313 -1.762,0.641 -2.65,0.978c-3.478,1.291 -8.078,3.097 -12.834,5.635c-5.444,2.909 -9.7,5.837 -13.394,9.215c-5,4.547 -8.372,9.688 -10.022,15.279c-3.894,13.278 1.688,29.125 13.575,38.543c5.385,4.625 12.125,8.935 20.619,13.178c6.978,3.479 14.925,6.797 24.3,10.138c18.787,6.678 39.556,12.022 55.553,15.931l29.378,6.985l-0.072,0.193c-1.268,3.416 -3.478,6.475 -5.612,9.432c-0.528,0.728 -1.056,1.462 -1.572,2.2c-0.934,1.334 -8.256,5.743 -9.906,6.146c-4.588,1.135 -8.51,3.11 -11.988,6.038c-1.972,1.656 -2.753,3.653 -3.581,5.766c-0.519,1.334 -1.063,2.715 -1.931,4.034c-1.86,2.828 -3.563,5.806 -5.207,8.694c-2.559,4.484 -5.206,9.122 -8.537,13.312c-1.05,1.316 -1.422,3.285 -1.55,4.703c-0.091,1.025 0.309,2.369 1.081,3.597c0.616,0.975 1.41,1.881 2.178,2.76c0.503,0.578 1.022,1.168 1.491,1.784c0.384,0.503 0.741,0.994 1.078,1.469c1.638,2.29 2.931,4.097 6.106,4.678c2.453,0.453 4.507,1.422 6.741,2.553c1.247,0.628 2.734,1.331 4.294,1.762c2.087,0.585 3.962,0.4 5.468,-0.54c1.804,-1.138 3.419,-2.178 4.888,-3.422c2.781,-2.356 5.216,-3.666 7.894,-4.247c1.068,-0.234 2.409,-0.181 3.915,0.147c3.26,0.697 5.275,2.962 6.966,5.309c4.366,6.047 8.519,11.975 12.35,17.625c3.3,4.863 8.175,8.463 15.347,11.332c0.784,0.315 1.825,0.184 3.031,0.237c-0.419,-1.519 -0.712,-2.597 -1,-3.647l-0.041,-0.156l0.15,-0.063c0.1,-0.043 0.182,-0.081 0.247,-0.115c0.116,-0.06 0.203,-0.1 0.297,-0.1l0.081,0.009c0.357,0.106 0.71,0.231 1.066,0.353c0.641,0.219 1.306,0.447 1.969,0.557c5.387,0.89 15.684,3.884 16.444,6.121c2.053,3.232 4.396,6.544 6.975,9.863c3.171,4.081 6.506,8.162 9.731,12.106c0.769,0.941 1.537,1.878 2.306,2.822c1.066,1.309 2.175,2.622 3.247,3.891c2.031,2.403 4.131,4.89 6.022,7.447c0.384,0.518 0.731,1.075 1.069,1.696l0.109,0.197l-0.216,0.072c-7.75,2.469 -15.868,4.947 -24.818,7.581l-40.532,11.735c-7.375,2.131 -14.893,4.39 -22.159,6.569c-6.175,1.856 -12.563,3.771 -18.881,5.618c-9.088,2.666 -18.407,5.325 -27.419,7.9c-17.841,5.094 -36.291,10.369 -54.459,16.075l-0.463,0.147l0.372,-0.64c3.709,-6.254 7.816,-12.813 13.569,-18.282c5.128,-4.878 10.643,-7.606 16.859,-8.343c1.45,-0.172 1.488,-0.179 1.544,-2.044c-0.622,-0.066 -1.238,-0.141 -1.86,-0.219c-1.575,-0.187 -3.203,-0.384 -4.815,-0.462c-0.485,-0.022 -0.928,-0.035 -1.35,-0.035c-1.316,0 -2.431,0.113 -3.416,0.344c-4.394,1.031 -8.315,3.25 -11.656,6.597c-5.519,5.522 -9.294,11.378 -11.538,17.909c-0.09,0.25 -0.225,0.472 -0.353,0.688c-0.059,0.1 -0.118,0.197 -0.172,0.297l-0.065,0.125l-0.141,-0.032c-0.087,-0.022 -0.172,-0.04 -0.259,-0.062l-0.325,-0.081l0.019,-0.16c0.081,-0.759 0.146,-1.531 0.209,-2.281c0.131,-1.663 0.272,-3.381 0.647,-5.025c1.044,-4.559 2.306,-9.088 3.619,-13.7c1.5,-5.281 2.596,-11.069 3.459,-18.216c0.334,-2.79 0.394,-5.665 0.45,-8.443c0.022,-0.969 0.041,-1.941 0.072,-2.907c0.019,-0.537 -0.122,-1.147 -0.385,-1.675c-0.131,-0.265 -0.568,-0.565 -0.825,-0.565c-0.293,0.028 -0.712,0.39 -0.821,0.693c-0.319,0.86 -0.575,1.822 -0.76,2.86l-0.169,0.962c-0.45,2.6 -0.918,5.288 -1.784,7.878c-1.025,3.047 -1.887,6.119 -2.806,9.375c-0.4,1.416 -0.806,2.857 -1.235,4.332l-0.259,0.887l-0.103,-0.922c-0.038,-0.334 -0.078,-0.618 -0.113,-0.878c-0.065,-0.494 -0.118,-0.881 -0.121,-1.275c-0.06,-4.231 -1.26,-8.309 -2.422,-12.253c-0.169,-0.584 -0.341,-1.162 -0.51,-1.744c-0.775,-2.687 -1.625,-5.406 -2.443,-8.028c-0.413,-1.319 -0.825,-2.637 -1.232,-3.953c-0.347,-1.141 -1.018,-1.872 -1.528,-1.591c-0.859,0.472 -0.722,1.06 -0.406,2.06l0.044,0.134c1.95,6.188 2.897,12.597 2.818,19.05c-0.053,4.435 -0.05,9.303 0.007,15.322c0.015,1.303 0.153,2.634 0.287,3.919c0.035,0.309 0.066,0.619 0.097,0.922c0.219,2.19 0.447,4.375 0.681,6.559l0.457,4.313l-0.538,-1.569c-1.834,-5.388 -3.006,-11.019 -4.141,-16.463c-0.859,-4.125 -1.75,-8.387 -2.915,-12.49c-1.138,-0.297 -1.728,-0.082 -2.225,0.822c-0.506,0.915 -1.188,1.753 -1.785,2.475c-1.953,2.334 -3.196,4.715 -3.803,7.275c-0.125,0.528 -0.34,1.093 -0.681,1.765c-0.419,0.831 -0.856,1.653 -1.291,2.472c-0.856,1.606 -1.74,3.269 -2.459,4.963c-0.772,1.821 -1.3,3.79 -1.809,5.693l-0.253,0.932c-0.069,0.259 0.212,0.918 0.35,1.043c0.453,-0.009 0.975,-0.193 1.434,-0.503c0.131,-0.09 0.206,-0.34 0.278,-0.581c0.041,-0.128 0.078,-0.259 0.128,-0.375c0.303,-0.722 0.597,-1.45 0.894,-2.178c0.653,-1.613 1.331,-3.281 2.081,-4.885c1.55,-3.325 3.825,-6.081 6.953,-8.425l0.228,-0.171l0.066,0.278c0.553,2.428 1.059,4.662 1.563,6.897c0.153,0.671 0.284,1.359 0.412,2.028c0.269,1.428 0.553,2.906 1.044,4.272l0.269,0.746c2.028,5.641 4.131,11.479 7.106,16.816l0.109,0.2l-0.219,0.069c-4.665,1.497 -9.49,3.044 -14.325,4.747c-1.496,0.522 -2.996,1.028 -4.496,1.54c-5.382,1.832 -10.944,3.722 -16.3,6.107c-13.107,5.75 -26.041,13.281 -38.454,22.381" style="fill:#9aa1ab;fill-rule:nonzero;"/><path d="M130.513,94.276c-0.184,0.397 -0.747,0.659 -0.978,0.753c-0.666,0.269 -1.366,0.403 -2.075,0.403c-0.531,0 -1.088,-0.072 -1.653,-0.222c-0.953,-0.25 -1.953,-0.431 -2.925,-0.606l-0.503,-0.084c-0.935,-0.166 -1.9,-0.332 -2.51,-1.422l-0.103,-0.181l0.191,-0.082c0.112,-0.053 0.218,-0.1 0.322,-0.153c0.228,-0.112 0.446,-0.219 0.684,-0.275c0.428,-0.094 0.891,-0.147 1.337,-0.147l0,0.188l0.013,-0.188c1.066,0 1.997,-0.328 2.937,-0.7c0.322,-0.125 0.66,-0.212 1.054,-0.309c0.178,-0.044 0.368,-0.091 0.575,-0.147c0.006,-0.025 -0.004,-0.044 -0.01,-0.053c-0.028,-0.059 -0.144,-0.128 -0.375,-0.131l-0.047,-0.003c-0.325,0 -0.715,0.084 -1.128,0.24c-0.672,0.256 -1.581,0.553 -2.64,0.553c-0.232,0 -0.466,-0.012 -0.697,-0.04l-0.519,-0.063l0.437,-0.278c0.125,-0.081 0.247,-0.162 0.369,-0.247c0.285,-0.187 0.572,-0.387 0.891,-0.537c0.481,-0.235 0.978,-0.45 1.459,-0.653c0.36,-0.157 0.716,-0.31 1.069,-0.472c0.659,-0.303 1.319,-0.272 2.022,0.106c0.206,0.116 0.415,0.228 0.628,0.344c0.372,0.206 0.744,0.412 1.125,0.606c1.5,0.762 1.662,2.491 1.05,3.8m-3.128,-5.491c-0.172,-0.09 -0.456,-0.184 -0.685,-0.184c-0.065,0 -0.118,0.006 -0.156,0.019l-0.394,0.153c-1.75,0.678 -3.556,1.378 -5.021,2.512c-0.172,0.135 -0.341,0.266 -0.51,0.4c-0.287,0.228 -0.578,0.457 -0.872,0.678c-0.39,0.288 -0.6,0.575 -0.622,0.85c-0.015,0.238 0.11,0.494 0.375,0.76c0.588,0.59 1.175,1.031 1.75,1.309c1.479,0.719 3.094,0.866 4.516,0.997c0.416,0.038 0.809,0.075 1.166,0.122c2.143,-0.028 2.815,-0.228 3.987,-1.166c0.178,-0.14 0.319,-0.353 0.35,-0.515c0.063,-0.36 0.097,-0.735 0.128,-1.094c0.032,-0.294 0.057,-0.588 0.097,-0.875c0.125,-0.891 -0.281,-1.638 -1.24,-2.275c-0.997,-0.663 -2.06,-1.253 -2.869,-1.691" style="fill:#9aa1ab;fill-rule:nonzero;"/><path d="M351.625,418.028c-0.456,0.978 -1.956,1.644 -2.409,1.828c-1.7,0.687 -3.494,1.034 -5.316,1.034c-1.365,0 -2.794,-0.193 -4.247,-0.578c-2.5,-0.659 -5.118,-1.125 -7.647,-1.575l-1.362,-0.244c-2.378,-0.412 -4.838,-0.84 -6.366,-3.571l-0.103,-0.182l0.188,-0.081c0.309,-0.134 0.597,-0.275 0.872,-0.409c0.581,-0.288 1.131,-0.553 1.718,-0.688c1.091,-0.247 2.263,-0.375 3.394,-0.375l0.041,0c2.875,0 5.443,-0.919 7.837,-1.862c0.835,-0.328 1.735,-0.55 2.772,-0.807c0.497,-0.121 1.025,-0.253 1.603,-0.409c0.103,-0.187 0.11,-0.372 0.025,-0.537c-0.159,-0.307 -0.625,-0.497 -1.244,-0.513l-0.121,0c-1.138,0 -2.3,0.353 -3.072,0.65c-2.585,0.988 -4.685,1.428 -6.81,1.428c-0.597,0 -1.197,-0.034 -1.797,-0.106l-0.521,-0.063l0.443,-0.281c0.335,-0.209 0.66,-0.428 0.985,-0.65c0.725,-0.487 1.475,-0.994 2.287,-1.387c1.241,-0.597 2.538,-1.157 3.794,-1.694c0.928,-0.4 1.887,-0.813 2.816,-1.238c1.65,-0.759 3.284,-0.675 5.021,0.266c0.541,0.291 1.082,0.588 1.619,0.888c0.978,0.537 1.981,1.09 2.991,1.606c2.272,1.159 3.053,3.053 3.309,4.437c0.303,1.647 0.05,3.507 -0.7,5.113m-7.784,-14.516c-0.485,-0.262 -1.266,-0.525 -1.922,-0.525c-0.213,0 -0.384,0.028 -0.525,0.081l-1.016,0.394c-4.603,1.781 -9.362,3.625 -13.247,6.628c-0.465,0.36 -0.931,0.725 -1.39,1.094c-0.722,0.569 -1.466,1.163 -2.219,1.725c-1.1,0.816 -1.684,1.641 -1.747,2.45c-0.05,0.716 0.303,1.463 1.06,2.222c1.559,1.566 3.128,2.737 4.668,3.487c3.925,1.9 8.178,2.291 11.935,2.635c1.09,0.103 2.122,0.2 3.065,0.325c5.71,-0.075 7.503,-0.603 10.647,-3.122c0.528,-0.419 0.938,-1.034 1.022,-1.531c0.172,-0.972 0.263,-1.966 0.353,-2.935c0.069,-0.731 0.141,-1.49 0.241,-2.237c0.344,-2.466 -0.763,-4.506 -3.381,-6.247c-2.613,-1.734 -5.404,-3.284 -7.544,-4.444" style="fill:#9aa1ab;fill-rule:nonzero;"/><path d="M171.968,318.034c-5.331,0.956 -9.291,4.1 -12.113,9.603c-0.84,1.641 -1.493,3.394 -2.181,5.247c-0.328,0.884 -0.669,1.797 -1.044,2.741l-0.246,0.622l-0.11,-0.663c-0.044,-0.266 -0.09,-0.491 -0.134,-0.687c-0.075,-0.363 -0.138,-0.654 -0.11,-0.935c0.054,-0.584 0.104,-1.162 0.15,-1.747c0.141,-1.706 0.288,-3.472 0.616,-5.175c1.369,-7.128 5.322,-12.15 11.75,-14.922c1.116,-0.481 1.853,-0.409 2.75,0.216c1.194,0.831 2.456,1.603 3.678,2.353c0.663,0.403 1.322,0.806 1.972,1.219c0.181,0.116 0.313,0.281 0.45,0.459c0.059,0.078 0.122,0.16 0.194,0.238l0.212,0.24l-0.312,0.066c-0.638,0.131 -1.25,0.263 -1.856,0.388c-1.26,0.268 -2.454,0.521 -3.666,0.737m2.037,5.309c0.241,0.157 0.491,0.294 0.741,0.438c0.969,0.55 1.969,1.119 2.706,2.522l0.166,0.306l-0.35,-0.037c-6.628,-0.729 -11.894,1.809 -16.238,7.809l-0.178,0.253l-0.137,-0.275c-0.538,-1.1 -0.069,-1.806 0.278,-2.328l0.103,-0.153c1.878,-2.963 3.981,-6.035 7.156,-8.213c2.172,-1.487 3.838,-1.559 5.753,-0.322m5.832,5.897c0.334,0.107 0.659,0.338 0.834,0.591c1.356,2.028 2.419,4.35 3.344,7.312l0.137,0.441l-0.403,-0.219c-3.712,-2.037 -7.312,-3.065 -10.7,-3.065c-4.987,0 -9.619,2.131 -14.165,6.515l-0.444,0.428l0.131,-0.603c0.406,-1.859 1.503,-3.075 2.466,-4.15l0.037,-0.04c1.856,-2.063 3.694,-4.047 5.791,-5.7c2.131,-1.678 4.512,-2.494 7.275,-2.494c1.731,0 3.594,0.322 5.697,0.984m-24.463,-2.937l-0.209,0.947l-0.156,-0.957c-0.082,-0.515 -0.172,-1.034 -0.269,-1.55c-0.425,-2.4 -0.869,-4.884 -0.372,-7.418c0.556,-2.825 1.584,-5.185 3.147,-7.207c0.878,-1.14 2.231,-1.612 3.925,-1.387c1.197,0.162 2.381,0.528 3.631,0.922c0.578,0.178 1.175,0.365 1.813,0.544l0.35,0.096l-0.288,0.232c-0.694,0.543 -1.384,1.056 -2.053,1.55c-2.144,1.587 -4.166,3.087 -5.606,5.231c-1.916,2.85 -3.197,5.791 -3.913,8.997m-2.137,-12.875l-0.078,-0.431c-0.735,-4.063 -0.816,-8.179 -0.891,-12.154c-0.025,-1.196 -0.05,-2.396 -0.091,-3.59l-0.022,-0.622l0.36,0.503c0.244,0.341 0.487,0.678 0.731,1.019c2.028,2.809 3.944,5.465 4.588,8.675l0.015,0.078l-4.612,6.522Zm0.593,29.075l-0.015,0.837l-0.725,-1.618c-0.3,-0.672 -0.6,-1.347 -0.91,-2.013c-0.528,-1.147 -1.05,-2.319 -1.553,-3.456c-1.128,-2.544 -2.293,-5.178 -3.653,-7.647c-3.328,-6.059 -8.484,-9.134 -15.331,-9.141c-1.428,0 -2.875,-0.184 -4.272,-0.359c-0.641,-0.081 -1.278,-0.163 -1.916,-0.225l-0.121,-0.013l-0.257,-0.846l0.132,-0.072c0.203,-0.11 0.4,-0.241 0.6,-0.366c0.443,-0.275 0.903,-0.569 1.406,-0.706c0.681,-0.194 1.362,-0.394 2.044,-0.6c2.118,-0.631 4.309,-1.285 6.515,-1.528c3.819,-0.425 6.766,0.322 9.122,2.29l0.575,0.475c1.625,1.35 3.309,2.744 4.584,4.563c1.469,2.084 2.435,4.64 3.038,8.053c0.756,4.259 0.797,8.647 0.737,12.372m-5.34,-3.888c-0.591,-0.293 -1.131,-0.572 -1.641,-0.834c-1.044,-0.541 -1.95,-1.006 -2.884,-1.391c-3.76,-1.562 -7.544,-1.784 -11.219,-0.659c-0.659,0.203 -1.609,0.575 -2.384,1.203c-0.288,0.231 -0.578,0.456 -0.866,0.691c-2.025,1.609 -4.122,3.272 -5.547,5.543c-0.112,0.182 -0.278,0.316 -0.469,0.469c-0.1,0.081 -0.209,0.172 -0.331,0.281l-0.29,0.266l-0.022,-0.394c-0.182,-3.422 0.953,-6.225 3.368,-8.343c1.91,-1.672 4.032,-3.135 6.31,-4.347c1.003,-0.535 2.047,-0.797 3.19,-0.797c1.879,0 3.729,0.712 5.516,1.406l0.584,0.222c3.041,1.156 5.244,3.203 6.932,6.431l0.265,0.51l-0.512,-0.257Zm-23.047,-5.668c1.15,-2.782 2.341,-5.66 4.919,-7.707c1.512,-1.206 3.247,-1.478 5.428,-0.834c3.709,1.094 6.49,3.541 8.94,6.022l0.097,0.097l-0.368,0.665l-0.144,-0.043c-0.453,-0.132 -0.928,-0.247 -1.385,-0.36c-1.018,-0.244 -2.068,-0.494 -3,-0.969c-1.39,-0.7 -2.743,-1.04 -4.143,-1.04c-2.125,0 -4.335,0.803 -6.957,2.534c-0.184,0.122 -0.365,0.244 -0.546,0.366c-0.8,0.537 -1.625,1.094 -2.594,1.515l-0.422,0.182l0.175,-0.428Zm6.962,-19.963c0.222,-0.081 0.441,-0.172 0.663,-0.262c0.475,-0.2 0.966,-0.404 1.478,-0.475c1.591,-0.225 3.688,-0.482 5.809,-0.482c2.104,0 3.994,0.247 5.785,0.753c2.897,0.819 4.469,2.275 5.106,4.719c0.231,0.903 0.541,1.81 0.838,2.681c0.134,0.4 0.271,0.8 0.4,1.204l0.046,0.146l-0.134,0.075c-0.141,0.075 -0.281,0.15 -0.422,0.229l-0.125,0.065l-1.309,-1.4c-0.722,-0.769 -1.444,-1.544 -2.163,-2.315c-3,-3.235 -6.534,-4.875 -10.5,-4.875c-0.293,0 -0.59,0.009 -0.89,0.028c-0.985,0.056 -1.978,0.256 -2.941,0.453c-0.447,0.09 -0.891,0.178 -1.337,0.256l-0.141,0.022l-0.356,-0.753l0.193,-0.069Zm11.775,-3.122c0.05,-5.653 2.569,-10.284 5.372,-14.925l0.066,-0.112l0.744,0.15l0.009,0.143l0.991,17.225l-7.182,-2.343l0,-0.138Zm33.21,9.097c0.703,0 1.359,0.069 2.009,0.219c0.091,0.022 0.194,0.031 0.316,0.031c0.537,0 1.137,-0.206 1.281,-0.45c0.228,-0.381 0.131,-1.284 -0.187,-1.719c-0.744,-1.022 -1.657,-2.181 -2.791,-3.009c-6.313,-4.609 -11.981,-6.938 -17.844,-7.328l-0.112,-0.006l-0.044,-0.104c-0.275,-0.609 -0.528,-1.212 -0.778,-1.8c-0.538,-1.262 -1.044,-2.453 -1.66,-3.59c-1.693,-3.131 -3.515,-6.256 -5.278,-9.278l-0.347,-0.597c-0.168,-0.294 -0.431,-0.544 -0.762,-0.86c-0.128,-0.125 -0.269,-0.256 -0.416,-0.406c-2.259,3.41 -4.093,6.291 -5.393,9.46c-0.938,2.281 -1.66,4.593 -2.422,7.046c-0.338,1.082 -0.675,2.166 -1.035,3.257l-0.043,0.128l-0.632,0.003c-0.093,0 -0.197,0 -0.297,-0.003c-0.296,-0.006 -0.584,-0.01 -0.875,-0.01c-4.196,0 -7.5,0.813 -10.4,2.557l-1.618,0.972c-2.397,1.44 -4.872,2.925 -7.269,4.446c-0.394,0.25 -0.778,0.947 -0.734,1.332c0.028,0.259 0.496,0.653 1.131,0.956c0.306,0.144 0.678,0.178 1.075,0.209c0.156,0.013 0.312,0.028 0.465,0.044c2.238,0.297 4.479,0.591 6.719,0.884l2.844,0.372l-0.363,0.275c-0.362,0.275 -0.75,0.544 -1.121,0.8c-0.794,0.55 -1.616,1.122 -2.254,1.819c-3.171,3.478 -5.118,7.163 -5.959,11.266c-0.15,0.731 -0.303,1.462 -0.462,2.19c-0.307,1.432 -0.625,2.913 -0.882,4.382c-0.197,1.153 -0.309,2.35 -0.415,3.506c-0.032,0.359 -0.066,0.719 -0.103,1.075c-0.054,0.55 0.009,0.925 0.193,1.131c0.119,0.128 0.288,0.191 0.525,0.191c0.341,-0.01 0.782,-0.328 1.247,-0.878c0.713,-0.838 1.416,-1.716 2.094,-2.56c1.225,-1.534 2.491,-3.115 3.881,-4.537c2.372,-2.425 5.431,-3.703 8.847,-3.703c2.997,0 5.5,0.953 7.075,1.746c4.475,2.272 7.628,5.738 9.375,10.313c0.309,0.809 0.622,1.434 1.3,1.216c0.525,-0.166 1.056,-0.875 1.288,-1.46c2.656,-6.706 6.625,-10.5 12.49,-11.94c1.519,-0.372 2.988,-0.563 4.372,-0.563c2.828,0 5.381,0.75 7.803,2.297c0.406,0.259 0.806,0.522 1.21,0.781c0.815,0.531 1.659,1.081 2.506,1.588c0.253,0.147 0.569,0.228 0.962,0.325c0.163,0.04 0.338,0.084 0.528,0.137c0.038,-0.24 0.082,-0.472 0.129,-0.694c0.109,-0.54 0.206,-1.006 0.081,-1.365c-0.15,-0.435 -0.294,-0.872 -0.438,-1.303c-0.965,-2.875 -1.968,-5.85 -3.684,-8.453c-2.019,-3.072 -3.941,-5.741 -7.041,-7.382c-0.684,-0.362 -1.343,-0.765 -2.04,-1.197c-0.322,-0.193 -0.653,-0.4 -1,-0.606l-0.388,-0.231l0.438,-0.109c1.603,-0.4 3.256,-0.813 4.903,-0.813" style="fill:#9aa1ab;fill-rule:nonzero;"/></g></g></svg>