<?xml version="1.0" encoding="UTF-8" standalone="no"?>
<!DOCTYPE svg PUBLIC "-//W3C//DTD SVG 1.1//EN" "http://www.w3.org/Graphics/SVG/1.1/DTD/svg11.dtd">
<svg width="100%" height="100%" viewBox="0 0 50 50" version="1.1" xmlns="http://www.w3.org/2000/svg" xmlns:xlink="http://www.w3.org/1999/xlink" xml:space="preserve" style="fill-rule:evenodd;clip-rule:evenodd;stroke-linejoin:round;stroke-miterlimit:1.41421;">
    <g id="Artboard1">
        <path d="M32.495,0.011C32.859,-0.039 33.232,0.088 33.474,0.376L44.147,13.093C44.38,13.288 44.526,13.577 44.527,13.9C44.527,13.929 44.511,13.953 44.509,13.981L44.509,45.761C44.509,48.097 42.609,50 40.271,50L9.712,50C7.374,50 5.472,48.097 5.472,45.761L5.472,4.25C5.472,1.912 7.375,0.011 9.712,0.011L32.495,0.011ZM30.005,10.084L22.358,10.084C21.947,10.084 21.599,10.337 21.473,10.748L16.259,26.548C16.164,26.833 16.227,27.149 16.385,27.402C16.575,27.654 16.859,27.781 17.143,27.781L22.832,27.781L22.105,38.904C22.073,39.347 22.358,39.757 22.8,39.884C22.895,39.916 22.99,39.916 23.053,39.916C23.4,39.916 23.716,39.726 23.874,39.41L33.671,21.587C33.829,21.303 33.829,20.955 33.639,20.67C33.481,20.386 33.165,20.196 32.818,20.196L27.983,20.196L30.89,11.317C30.985,11.032 30.921,10.716 30.763,10.463C30.605,10.211 30.29,10.084 30.005,10.084Z"/>
    </g>
</svg>
