<?xml version="1.0" encoding="UTF-8" standalone="no"?><!DOCTYPE svg PUBLIC "-//W3C//DTD SVG 1.1//EN" "http://www.w3.org/Graphics/SVG/1.1/DTD/svg11.dtd"><svg width="100%" height="100%" viewBox="0 0 209 209" version="1.1" xmlns="http://www.w3.org/2000/svg" xmlns:xlink="http://www.w3.org/1999/xlink" xml:space="preserve" xmlns:serif="http://www.serif.com/" style="fill-rule:evenodd;clip-rule:evenodd;stroke-linejoin:round;stroke-miterlimit:2;"><g id="Artboard1"><path d="M185.523,57.672c-0.014,-1.574 -0.957,-2.343 -1.69,-3.256c-0,0 -35.983,-43.288 -43.639,-52.031c-0.393,-0.449 -0.416,-0.454 -1.27,-1.317c-0.568,-0.574 -1.374,-1.068 -2.015,-1.068c-58.476,-0 -65.607,-0.001 -98.316,-0.002c-8.716,0 -15.792,7.077 -15.792,15.792l0,176.75c0,8.716 7.076,15.792 15.792,15.792l131.146,-0c8.715,-0 15.792,-7.076 15.792,-15.792l-0.008,-134.868Z" style="fill:#333f4c;"/><g><path d="M140.163,86.127c-0.658,-1.185 -1.975,-1.975 -3.423,-1.975l-20.146,-0l12.114,-37c0.395,-1.185 0.131,-2.501 -0.527,-3.555c-0.658,-1.053 -1.975,-1.58 -3.16,-1.58l-31.864,0c-1.712,0 -3.16,1.054 -3.687,2.765l-21.726,65.836c-0.395,1.185 -0.131,2.502 0.527,3.555c0.79,1.053 1.975,1.58 3.16,1.58l23.701,-0l-3.029,46.348c-0.131,1.844 1.054,3.555 2.897,4.082c0.395,0.132 0.79,0.132 1.053,0.132c1.449,-0 2.766,-0.79 3.424,-2.107l40.818,-74.262c0.658,-1.186 0.658,-2.634 -0.132,-3.819Z" style="fill:#fec136;fill-rule:nonzero;"/></g></g></svg>